<?xml version="1.0" standalone="no"?>
<!DOCTYPE svg PUBLIC "-//W3C//DTD SVG 20010904//EN"
 "http://www.w3.org/TR/2001/REC-SVG-20010904/DTD/svg10.dtd">
<svg version="1.0" xmlns="http://www.w3.org/2000/svg"
 width="1280.000000pt" height="1280.000000pt" viewBox="0 0 1280.000000 1280.000000"
 preserveAspectRatio="xMidYMid meet">
<metadata>
Created by potrace 1.15, written by Peter Selinger 2001-2017
</metadata>
<g transform="translate(0.000000,1280.000000) scale(0.100000,-0.100000)"
fill="#EBB251" stroke="none">
<path d="M6382 12441 c-16 -99 -117 -466 -176 -636 -57 -166 -128 -346 -210
-529 -64 -142 -333 -686 -340 -686 -1 0 8 37 23 83 22 72 25 100 25 232 1 127
-3 162 -22 228 -66 230 -185 351 -342 351 -83 0 -143 -26 -208 -91 -60 -60
-98 -136 -119 -239 -15 -74 -15 -90 2 -246 25 -233 19 -327 -28 -421 -58 -116
-159 -217 -297 -295 -30 -18 -53 -32 -50 -32 28 0 298 63 341 79 110 42 177
109 220 220 20 51 23 81 29 331 8 308 17 359 71 404 17 14 39 26 49 26 34 0
80 -52 119 -134 69 -142 104 -295 116 -506 l7 -115 -41 -88 c-168 -364 -178
-670 -28 -860 24 -32 238 -202 223 -179 -2 4 -38 58 -79 120 -42 62 -85 137
-96 168 l-21 55 41 81 c43 81 83 119 141 133 39 10 110 -26 176 -88 99 -94
124 -107 210 -107 71 0 74 1 60 18 -8 9 -23 51 -33 92 -58 247 -186 323 -385
229 -83 -39 -134 -81 -187 -152 l-43 -59 0 51 c0 122 55 302 155 506 66 135
197 351 267 443 71 92 175 132 199 78 10 -20 5 -38 -29 -113 -74 -159 -74
-271 -2 -419 27 -54 61 -104 105 -150 l65 -69 -43 90 c-40 86 -42 94 -42 185
0 94 0 96 54 205 73 151 91 207 91 282 0 108 -50 173 -132 173 -51 0 -125 -41
-210 -114 l-78 -66 54 82 c189 291 331 717 390 1169 16 119 32 359 25 359 -3
0 -10 -35 -17 -79z"/>
<path d="M6414 12408 c36 -542 185 -1055 410 -1411 l55 -88 -67 61 c-79 71
-169 120 -223 120 -74 0 -129 -73 -129 -172 0 -72 13 -113 81 -258 32 -69 63
-149 68 -177 14 -72 -3 -155 -50 -250 l-38 -78 68 72 c80 84 134 186 152 285
16 88 0 181 -47 272 -50 99 -44 146 19 146 68 0 133 -68 257 -266 196 -312
310 -600 310 -781 l0 -58 -34 51 c-69 102 -178 174 -297 197 -142 26 -239 -66
-285 -270 -9 -40 -20 -76 -25 -79 -45 -27 101 -35 154 -8 17 9 56 40 87 69 79
73 107 94 151 105 50 14 115 -13 151 -61 30 -40 78 -133 78 -151 0 -26 -60
-139 -130 -243 l-72 -107 79 58 c149 110 199 174 239 309 26 85 24 252 -4 367
-24 97 -81 256 -120 333 -24 48 -25 53 -19 205 6 165 25 268 72 400 51 140
109 220 160 220 29 0 80 -57 96 -107 7 -23 15 -149 19 -313 8 -302 14 -337 71
-424 63 -95 153 -141 350 -181 63 -13 128 -27 145 -30 19 -5 -1 12 -56 46 -98
61 -201 161 -247 239 -67 113 -74 203 -42 498 10 98 11 136 1 195 -54 312
-340 447 -535 252 -55 -54 -99 -137 -133 -250 -25 -80 -28 -106 -28 -235 0
-129 3 -154 26 -230 15 -47 25 -86 24 -88 -6 -5 -245 476 -320 641 -96 212
-192 453 -249 627 -53 159 -141 486 -158 583 -6 37 -13 67 -16 67 -3 0 -3 -46
1 -102z"/>
<path d="M8890 11836 c-158 -34 -268 -94 -381 -206 -71 -71 -93 -101 -132
-180 -62 -126 -80 -200 -80 -330 -1 -128 19 -216 73 -325 76 -153 185 -260
345 -336 97 -47 198 -69 311 -69 115 0 210 23 324 77 81 39 107 59 185 137
149 150 215 306 215 511 0 337 -221 626 -545 710 -86 22 -236 27 -315 11z"/>
<path d="M3475 11746 c-272 -63 -488 -270 -555 -532 -24 -94 -27 -260 -5 -351
89 -377 467 -622 847 -549 373 72 638 432 588 802 -39 295 -231 524 -515 614
-89 28 -272 36 -360 16z"/>
<path d="M5266 10281 c-4 -6 -45 -32 -91 -58 -176 -97 -266 -233 -268 -398 0
-104 24 -165 96 -243 33 -36 57 -56 52 -46 -38 90 -44 142 -23 191 7 15 33 60
59 98 84 127 132 238 173 400 15 57 15 78 2 56z"/>
<path d="M7559 10187 c38 -139 82 -241 148 -339 31 -46 62 -97 69 -115 19 -45
17 -104 -5 -162 l-19 -50 50 52 c76 80 102 144 102 247 -1 102 -25 171 -89
258 -41 57 -61 72 -222 172 l-61 38 27 -101z"/>
<path d="M4453 9998 c-15 -24 -28 -45 -30 -47 -1 -2 -23 8 -49 23 -25 14 -50
23 -55 20 -5 -3 -9 -30 -9 -60 l0 -54 -55 0 c-63 0 -70 -13 -35 -65 27 -40 25
-50 -9 -65 -16 -6 -37 -20 -46 -30 -16 -18 -14 -20 27 -46 23 -16 45 -30 47
-31 3 -2 -5 -21 -17 -42 -35 -62 -31 -71 33 -71 l55 0 0 -53 c0 -30 3 -57 6
-60 4 -4 29 5 56 20 26 14 49 24 51 22 2 -2 15 -24 31 -47 26 -41 28 -43 46
-27 10 9 24 30 30 46 15 35 20 36 74 4 24 -14 46 -22 49 -18 4 3 7 30 7 60 l0
53 54 0 c30 0 57 4 60 9 3 5 -5 29 -19 53 -14 23 -25 45 -25 48 0 3 20 16 45
30 25 14 45 30 45 36 0 6 -20 22 -45 35 -25 13 -45 27 -45 30 0 4 11 26 24 50
14 24 23 46 20 51 -3 4 -30 8 -60 8 l-54 0 0 54 c0 30 -4 57 -8 60 -5 3 -27
-6 -51 -20 -24 -13 -46 -24 -50 -24 -3 0 -17 20 -30 45 -13 25 -28 45 -32 45
-5 0 -21 -19 -36 -42z m54 -44 c16 -25 16 -27 -1 -40 -14 -10 -23 -10 -36 -1
-17 10 -17 13 -4 39 18 34 19 34 41 2z m-128 -23 c30 -23 22 -54 -11 -49 -18
2 -24 11 -26 36 -4 37 3 39 37 13z m251 -17 c0 -33 -2 -35 -27 -32 -38 4 -41
33 -6 52 15 8 29 15 31 16 1 0 2 -16 2 -36z m-180 -34 c0 -5 -4 -10 -10 -10
-5 0 -10 5 -10 10 0 6 5 10 10 10 6 0 10 -4 10 -10z m91 -3 c-1 -12 -15 -9
-19 4 -3 6 1 10 8 8 6 -3 11 -8 11 -12z m-228 -49 c6 -21 -6 -38 -28 -38 -6 0
-19 14 -28 30 l-18 30 34 0 c27 0 36 -5 40 -22z m402 -9 c-20 -37 -49 -36 -53
4 -3 25 -1 27 33 27 l36 0 -16 -31z m-345 11 c0 -5 -4 -10 -10 -10 -5 0 -10 5
-10 10 0 6 5 10 10 10 6 0 10 -4 10 -10z m250 0 c0 -5 -4 -10 -10 -10 -5 0
-10 5 -10 10 0 6 5 10 10 10 6 0 10 -4 10 -10z m-299 -83 c-13 -13 -26 -3 -16
12 3 6 11 8 17 5 6 -4 6 -10 -1 -17z m346 -3 c-9 -9 -28 6 -21 18 4 6 10 6 17
-1 6 -6 8 -13 4 -17z m-388 -21 c6 -11 6 -24 0 -35 -9 -17 -12 -17 -41 -2
l-31 16 24 19 c30 23 36 23 48 2z m461 -1 l22 -18 -27 -18 c-26 -17 -27 -17
-40 1 -9 12 -10 23 -4 35 12 23 21 23 49 0z m-410 -62 c0 -5 -7 -10 -15 -10
-8 0 -15 5 -15 10 0 6 7 10 15 10 8 0 15 -4 15 -10z m340 0 c0 -5 -4 -10 -10
-10 -5 0 -10 5 -10 10 0 6 5 10 10 10 6 0 10 -4 10 -10z m-363 -48 c7 -4 10
-17 6 -30 -4 -17 -13 -22 -39 -22 l-35 0 16 30 c16 30 30 36 52 22z m407 -17
c22 -33 21 -35 -19 -35 -30 0 -35 3 -35 23 0 44 29 50 54 12z m-344 -15 c0 -5
-4 -10 -10 -10 -5 0 -10 5 -10 10 0 6 5 10 10 10 6 0 10 -4 10 -10z m250 0 c0
-5 -4 -10 -10 -10 -5 0 -10 5 -10 10 0 6 5 10 10 10 6 0 10 -4 10 -10z m-168
-45 c0 -5 -5 -11 -11 -13 -6 -2 -11 4 -11 13 0 9 5 15 11 13 6 -2 11 -8 11
-13z m89 -8 c-13 -13 -26 -3 -16 12 3 6 11 8 17 5 6 -4 6 -10 -1 -17z m-145
-9 c7 -22 -16 -48 -43 -48 -19 0 -16 47 5 59 25 15 30 14 38 -11z m225 12 c5
0 9 -16 9 -36 l0 -35 -30 18 c-16 9 -30 20 -30 24 0 21 14 39 27 35 8 -3 19
-6 24 -6z m-101 -48 c0 -4 -9 -18 -19 -31 l-19 -24 -16 31 c-15 29 -15 32 1
41 17 9 53 -2 53 -17z"/>
<path d="M8274 10008 c-29 -58 -31 -58 -77 -32 -62 35 -67 33 -67 -34 l0 -57
-45 3 c-67 6 -79 -9 -49 -61 13 -23 24 -45 24 -49 0 -3 -20 -18 -45 -32 -25
-15 -45 -31 -45 -35 0 -5 20 -21 45 -35 25 -15 45 -30 45 -33 0 -3 -11 -26
-25 -49 l-25 -43 21 -12 c13 -6 38 -9 60 -5 l39 6 0 -54 c0 -30 5 -58 10 -61
6 -4 31 5 56 20 25 15 47 25 48 23 2 -1 13 -22 26 -45 13 -24 29 -43 36 -43 7
0 24 20 39 45 l26 45 43 -25 c61 -36 66 -34 66 33 l0 58 54 0 c30 -1 57 2 61
6 4 4 -4 27 -19 52 -14 24 -26 47 -26 49 0 3 20 17 45 31 25 15 45 31 45 37 0
5 -14 18 -31 27 -66 36 -65 34 -34 86 34 58 26 69 -44 65 l-51 -4 0 58 c0 66
-5 68 -66 32 l-43 -25 -26 45 c-15 25 -33 45 -41 45 -7 0 -21 -15 -30 -32z
m50 -47 c15 -29 7 -51 -19 -51 -27 0 -34 23 -17 52 9 15 17 28 19 28 1 0 9
-13 17 -29z m-129 -23 c35 -16 31 -53 -5 -53 -21 0 -26 5 -28 33 -4 36 -3 37
33 20z m253 -20 c-2 -25 -8 -34 -24 -36 -32 -5 -41 28 -14 50 32 26 42 22 38
-14z m-174 -39 c-8 -14 -24 -10 -24 6 0 9 6 12 15 9 8 -4 12 -10 9 -15z m82
-6 c-10 -10 -19 5 -10 18 6 11 8 11 12 0 2 -7 1 -15 -2 -18z m-222 -40 c5 -11
1 -22 -10 -30 -24 -18 -27 -17 -46 17 l-17 30 33 0 c23 0 36 -6 40 -17z m56 2
c0 -8 -4 -15 -10 -15 -5 0 -10 7 -10 15 0 8 5 15 10 15 6 0 10 -7 10 -15z
m250 -1 c0 -8 -4 -12 -10 -9 -5 3 -10 10 -10 16 0 5 5 9 10 9 6 0 10 -7 10
-16z m101 -1 c-22 -38 -28 -43 -44 -37 -9 3 -17 17 -17 30 0 21 5 24 35 24 31
0 34 -2 26 -17z m-393 -74 c-2 -6 -8 -10 -13 -10 -5 0 -11 4 -13 10 -2 6 4 11
13 11 9 0 15 -5 13 -11z m342 3 c0 -13 -12 -22 -22 -16 -10 6 -1 24 13 24 5 0
9 -4 9 -8z m-390 -38 c11 -12 11 -18 -2 -30 -12 -12 -19 -13 -41 -3 -33 15
-34 23 -4 37 30 14 33 14 47 -4z m464 1 c22 -16 21 -17 -13 -35 -19 -10 -26
-9 -39 4 -13 12 -13 18 -2 30 15 20 29 20 54 1z m-417 -71 c-9 -9 -28 6 -21
18 4 6 10 6 17 -1 6 -6 8 -13 4 -17z m337 5 c-3 -5 -10 -7 -15 -3 -5 3 -7 10
-3 15 3 5 10 7 15 3 5 -3 7 -10 3 -15z m-44 -13 c0 -3 -4 -8 -10 -11 -5 -3
-10 -1 -10 4 0 6 5 11 10 11 6 0 10 -2 10 -4z m-320 -26 c31 -17 14 -50 -26
-50 l-33 0 17 30 c19 34 17 33 42 20z m413 -20 l18 -30 -34 0 c-26 0 -36 5
-40 20 -3 12 1 24 11 30 24 14 26 13 45 -20z m-343 -15 c0 -8 -4 -15 -10 -15
-5 0 -10 7 -10 15 0 8 5 15 10 15 6 0 10 -7 10 -15z m250 0 c0 -8 -4 -15 -10
-15 -5 0 -10 7 -10 15 0 8 5 15 10 15 6 0 10 -7 10 -15z m-170 -45 c0 -5 -4
-10 -10 -10 -5 0 -10 5 -10 10 0 6 5 10 10 10 6 0 10 -4 10 -10z m94 -5 c-4
-8 -10 -12 -15 -9 -14 8 -10 24 6 24 9 0 12 -6 9 -15z m-147 -12 c6 -16 -28
-53 -48 -53 -8 0 -10 47 -2 63 8 14 44 7 50 -10z m231 -20 c4 -37 -6 -41 -38
-15 -27 22 -18 55 14 50 16 -2 22 -11 24 -35z m-121 -4 c9 -9 8 -19 -3 -42
l-16 -30 -18 29 c-14 21 -16 32 -8 41 13 16 30 17 45 2z"/>
<path d="M2715 10006 c-145 -46 -219 -139 -218 -271 1 -120 66 -240 192 -358
114 -105 209 -158 366 -202 l90 -25 -150 6 c-287 10 -652 42 -915 80 -267 38
-772 158 -920 218 -79 32 -73 13 21 -67 103 -89 353 -347 481 -498 162 -190
342 -435 541 -734 98 -148 184 -279 189 -290 6 -11 -22 13 -62 54 -121 122
-238 187 -417 232 -122 30 -246 25 -326 -14 -231 -114 -202 -431 55 -601 29
-20 112 -61 183 -92 72 -30 155 -71 186 -90 158 -96 249 -285 249 -521 l0 -88
52 150 c48 141 51 156 52 255 1 95 -2 110 -26 160 -49 101 -125 163 -344 285
-166 91 -252 158 -282 217 -45 88 -8 128 118 128 153 0 356 -59 551 -161 94
-50 98 -53 170 -152 246 -340 547 -499 779 -411 19 7 73 29 120 49 l85 35
-141 -6 c-77 -4 -166 -4 -198 0 -53 7 -59 11 -91 54 -93 126 -98 223 -16 281
16 12 73 35 126 52 53 18 110 41 128 53 39 26 114 154 77 131 -6 -4 -43 4 -83
16 -55 18 -96 23 -173 24 -94 0 -103 -2 -136 -27 -51 -39 -76 -85 -94 -170
-20 -92 -7 -195 36 -285 16 -35 26 -63 23 -63 -16 0 -147 103 -203 161 -124
127 -270 344 -390 584 -80 158 -103 241 -79 290 32 64 62 59 119 -20 67 -93
132 -155 194 -185 106 -52 217 -62 354 -34 109 23 121 33 37 34 -181 0 -261
51 -393 246 -74 111 -123 160 -187 190 -92 43 -162 26 -202 -49 -22 -41 -21
-159 1 -243 23 -89 21 -88 -30 5 -199 371 -564 758 -976 1034 -59 39 -105 73
-103 75 1 2 52 -21 111 -51 223 -112 533 -221 776 -272 190 -40 349 -57 536
-58 l172 0 -87 -28 c-189 -61 -265 -155 -204 -255 46 -76 126 -111 286 -125
275 -24 337 -53 435 -205 24 -35 44 -63 46 -61 12 12 -51 169 -98 244 -85 136
-222 212 -383 213 -97 1 -132 46 -79 101 37 38 100 58 225 69 231 21 509 8
703 -31 107 -22 242 -69 277 -98 22 -18 21 -18 -56 -24 -97 -7 -201 -55 -273
-125 -125 -123 -111 -232 53 -402 l82 -85 31 46 c27 38 32 55 32 103 0 32 -7
86 -16 119 -53 205 11 278 234 269 51 -2 53 -3 96 -62 25 -33 70 -112 100
-175 31 -63 58 -115 60 -115 2 0 0 17 -4 38 -5 20 -13 78 -19 127 -34 292
-300 478 -751 525 -104 11 -121 16 -180 50 -160 94 -290 202 -382 318 -132
166 -142 250 -32 268 55 8 152 -26 279 -101 306 -178 335 -190 460 -190 135 0
218 54 388 253 l77 90 -75 -43 c-136 -77 -285 -111 -415 -94 -88 12 -180 59
-320 165 -127 95 -202 137 -287 159 -69 18 -163 18 -218 1z"/>
<path d="M9871 9995 c-80 -23 -164 -68 -266 -145 -205 -153 -268 -182 -405
-183 -50 0 -112 7 -150 17 -70 18 -212 82 -263 118 -36 25 92 -121 188 -216
76 -76 162 -117 254 -124 96 -6 200 32 384 142 230 137 309 167 386 146 73
-20 75 -77 6 -185 -88 -136 -238 -274 -420 -386 -67 -41 -77 -43 -207 -60
-293 -37 -481 -111 -607 -237 -89 -89 -126 -171 -141 -315 -6 -51 -12 -103
-16 -117 -3 -14 26 36 65 110 38 74 86 154 105 176 33 39 38 41 106 47 87 7
155 -11 194 -52 40 -41 44 -102 17 -218 -26 -112 -26 -144 -1 -191 25 -47 59
-91 60 -75 0 7 35 48 79 92 148 150 167 256 66 369 -82 91 -208 152 -316 152
-27 0 -49 4 -49 9 0 13 131 68 213 91 162 44 260 54 537 54 284 0 366 -8 436
-48 21 -12 45 -35 53 -51 13 -27 12 -30 -13 -52 -20 -17 -39 -23 -75 -23 -224
0 -403 -146 -475 -389 -24 -81 -20 -82 28 -10 59 88 131 151 198 173 29 9 107
22 173 27 66 5 143 14 170 20 65 12 147 60 177 101 31 44 31 111 1 154 -27 37
-123 90 -216 119 l-69 21 179 0 c409 2 839 109 1282 320 74 35 137 64 140 64
3 0 -40 -30 -94 -67 -436 -290 -797 -671 -995 -1048 -23 -44 -43 -82 -45 -84
-2 -1 3 21 11 50 8 30 17 95 21 145 5 75 3 97 -12 128 -47 98 -163 100 -276 7
-20 -17 -65 -72 -99 -123 -101 -149 -143 -193 -215 -229 -55 -27 -79 -33 -161
-37 -52 -3 -92 -8 -87 -13 14 -13 160 -39 222 -39 175 0 310 73 401 216 45 72
75 93 109 75 50 -27 40 -136 -24 -270 -134 -279 -299 -525 -447 -668 -52 -51
-168 -136 -175 -129 -2 1 11 33 28 70 56 120 51 292 -12 390 -43 70 -96 90
-208 83 -47 -3 -115 -15 -151 -27 -36 -12 -73 -19 -83 -16 -28 7 39 -110 77
-133 17 -11 76 -34 131 -51 80 -26 107 -40 139 -71 38 -38 38 -40 34 -103 -3
-56 -10 -73 -50 -134 l-47 -70 -58 -8 c-32 -4 -121 -4 -198 -1 -77 3 -133 3
-125 0 8 -3 54 -22 101 -43 139 -62 234 -71 362 -35 67 20 160 69 226 119 81
63 218 208 287 306 59 83 62 86 170 142 201 105 406 163 555 156 88 -4 119
-22 119 -70 0 -76 -82 -152 -294 -271 -285 -161 -348 -225 -377 -382 -13 -73
2 -157 59 -329 l47 -141 2 100 c4 245 96 424 266 519 34 19 115 57 180 85 65
28 142 67 171 86 160 106 244 283 203 426 -49 168 -218 241 -447 195 -177 -36
-310 -106 -432 -226 -43 -42 -78 -76 -78 -74 0 6 147 233 249 384 206 306 366
515 552 725 106 119 410 422 473 471 26 21 35 33 27 38 -7 4 -10 2 -9 -5 2 -6
-3 -14 -11 -17 -9 -3 -11 0 -6 8 6 10 3 11 -11 6 -119 -49 -491 -148 -709
-190 -159 -30 -371 -61 -565 -81 -163 -16 -606 -45 -690 -44 l-55 0 90 23
c163 43 270 103 389 221 147 145 204 293 164 428 -17 57 -96 139 -160 167 -68
29 -191 36 -267 15z"/>
<path d="M6289 9905 c-38 -21 -54 -65 -39 -109 12 -37 69 -95 120 -121 30 -15
33 -15 74 9 111 65 145 148 86 208 -27 27 -35 29 -73 24 -52 -8 -63 -8 -107
-1 -21 3 -45 -1 -61 -10z m121 -5 c14 0 38 1 53 2 38 1 70 -32 70 -72 0 -33
-31 -72 -94 -116 l-37 -25 -39 19 c-51 27 -91 71 -99 109 -5 27 -1 37 25 64
27 26 36 30 64 25 18 -4 43 -7 57 -6z"/>
<path d="M6196 9639 c-65 -57 -58 -151 18 -224 l41 -41 -60 1 c-122 0 -217
-81 -218 -187 -1 -111 66 -181 172 -181 75 0 119 24 149 83 28 55 22 94 -19
133 -31 28 -67 34 -100 17 -27 -15 -24 -28 5 -23 37 7 80 -39 71 -75 -12 -49
-49 -77 -105 -77 -42 0 -54 5 -81 31 -87 87 -8 224 130 224 117 0 176 -112
120 -227 -40 -82 -102 -118 -291 -169 -244 -64 -361 -141 -430 -281 -33 -67
-33 -68 -34 -223 l-2 -155 8 132 c7 126 8 134 40 183 38 59 91 98 143 107 44
7 54 -10 37 -61 -12 -38 -4 -70 11 -43 5 8 23 18 39 22 83 18 55 130 -35 141
-30 4 -52 -1 -89 -20 l-49 -25 34 36 c45 45 173 107 279 133 231 56 268 71
331 132 56 54 79 108 79 187 0 83 -25 135 -93 197 -78 70 -97 100 -97 155 0
39 5 51 26 68 33 26 66 27 88 2 22 -24 17 -65 -8 -69 -15 -3 -18 1 -14 22 4
17 1 25 -6 23 -19 -6 -19 -50 0 -64 24 -17 30 -17 54 7 31 31 27 83 -11 114
-43 36 -88 35 -133 -5z"/>
<path d="M6469 9641 c-19 -20 -29 -40 -29 -60 0 -32 29 -71 54 -71 35 0 49 68
16 78 -13 5 -13 3 -2 -11 15 -18 8 -37 -13 -37 -12 0 -25 21 -25 41 0 18 40
49 64 49 29 0 76 -52 76 -83 0 -40 -41 -106 -95 -151 -69 -60 -105 -130 -105
-207 0 -72 20 -119 76 -179 55 -59 125 -91 272 -124 62 -14 143 -37 180 -52
67 -27 160 -82 182 -109 16 -19 1 -19 -24 0 -10 8 -38 17 -61 21 -111 16 -169
-100 -71 -141 19 -8 40 -23 46 -32 9 -15 10 -10 6 22 -3 22 -8 50 -12 62 -17
60 90 34 158 -39 59 -61 68 -92 69 -238 l2 -115 9 90 c33 320 -111 485 -507
581 -140 34 -224 91 -260 176 -59 142 76 259 216 188 139 -72 76 -275 -72
-231 -46 14 -69 44 -69 88 0 37 37 69 70 60 26 -7 26 9 1 23 -35 18 -71 11
-102 -19 -54 -54 -30 -160 44 -194 104 -48 205 -17 248 77 35 76 14 165 -50
219 -40 33 -132 61 -178 54 l-35 -6 41 45 c47 50 61 80 61 130 0 104 -113 163
-181 95z"/>
<path d="M3860 9454 c-30 -8 -88 -35 -130 -59 -41 -24 -88 -49 -105 -56 l-30
-12 60 -18 c144 -44 214 -54 394 -52 199 2 220 -4 286 -79 21 -24 35 -35 32
-26 -3 9 -11 36 -17 60 -19 68 -46 113 -95 156 -104 91 -253 124 -395 86z"/>
<path d="M8715 9445 c-27 -8 -53 -14 -56 -15 -22 -1 -131 -86 -153 -119 -29
-42 -88 -213 -60 -176 26 35 67 76 93 93 21 14 56 17 216 18 195 1 252 8 390
52 l60 19 -30 14 c-16 7 -57 30 -90 50 -33 19 -82 43 -110 53 -69 24 -197 30
-260 11z"/>
<path d="M4975 9424 c-155 -29 -309 -110 -424 -224 -127 -125 -203 -264 -237
-429 -22 -114 -15 -297 16 -396 30 -95 43 -106 17 -14 -30 109 -30 324 1 432
83 289 306 512 589 589 120 33 317 30 436 -6 140 -42 253 -107 350 -201 27
-26 50 -45 53 -42 9 8 -153 152 -209 186 -67 39 -151 74 -233 96 -86 23 -262
28 -359 9z"/>
<path d="M7571 9430 c-127 -18 -265 -71 -371 -143 -56 -39 -146 -122 -173
-162 -12 -19 2 -9 39 27 351 336 880 330 1199 -14 142 -153 211 -316 222 -528
5 -97 -5 -189 -32 -287 -3 -10 2 -2 11 17 39 85 55 273 33 396 -68 388 -386
673 -779 697 -47 3 -114 1 -149 -3z"/>
<path d="M5110 9330 c-11 -11 -20 -28 -19 -37 0 -13 3 -11 10 7 6 13 15 28 22
32 21 13 60 9 81 -9 21 -18 21 -18 2 5 -24 28 -69 29 -96 2z"/>
<path d="M7848 9340 c-9 -6 -27 -24 -39 -41 l-22 -31 31 16 c42 21 62 20 62
-4 0 -28 -28 -39 -112 -45 -118 -10 -137 -14 -172 -46 -39 -34 -57 -96 -49
-164 l5 -40 -34 50 c-61 88 -172 155 -258 155 -47 0 -124 -29 -162 -60 -82
-68 -69 -177 22 -192 80 -13 122 98 44 118 -20 5 -22 9 -12 21 21 25 66 43
110 43 48 0 152 -44 181 -77 18 -20 17 -20 -21 -10 -33 9 -46 7 -86 -12 -45
-22 -101 -85 -90 -102 13 -22 73 -20 120 4 66 34 123 48 143 37 23 -12 70
-100 103 -195 16 -44 27 -69 24 -55 -29 149 -29 159 -14 181 8 12 43 39 79 59
56 31 109 86 109 111 0 16 -101 10 -137 -8 -39 -18 -70 -61 -79 -111 -10 -52
-24 -18 -24 56 0 75 21 127 60 147 18 9 58 13 131 12 68 -1 112 3 126 11 21
12 24 10 38 -24 8 -21 50 -70 92 -110 l76 -73 -5 -51 c-4 -44 -12 -58 -49 -96
-24 -25 -57 -53 -73 -61 l-30 -16 27 33 c33 38 41 68 34 121 -5 42 -44 101
-77 119 -17 9 -21 5 -31 -29 -10 -35 -9 -51 11 -120 28 -97 23 -116 -46 -164
-81 -55 -105 -81 -42 -44 31 19 93 46 138 61 109 36 119 30 170 -107 21 -56
59 -93 86 -83 19 7 19 108 -1 146 -8 15 -29 40 -47 54 l-33 26 45 -6 c112 -16
197 -79 207 -153 l6 -42 -27 12 c-23 11 -30 10 -54 -8 -60 -44 -23 -123 58
-123 76 0 114 71 90 171 -17 71 -64 128 -135 164 -50 25 -70 30 -134 30 -42 0
-94 -4 -116 -8 l-40 -8 42 31 c43 32 83 99 83 141 0 34 -22 72 -83 142 -62 71
-81 103 -73 123 10 27 35 14 55 -28 l19 -43 1 57 c1 50 -2 59 -26 78 -18 14
-37 20 -55 18 -16 -3 -28 -1 -28 4 0 4 -9 17 -20 28 -21 21 -64 26 -92 10z"/>
<path d="M7463 9313 c9 -2 23 -2 30 0 6 3 -1 5 -18 5 -16 0 -22 -2 -12 -5z"/>
<path d="M7420 9295 c-7 -9 -11 -17 -9 -20 3 -2 10 5 17 15 14 24 10 26 -8 5z"/>
<path d="M7521 9293 c7 -12 15 -20 18 -17 3 2 -3 12 -13 22 -17 16 -18 16 -5
-5z"/>
<path d="M5222 9280 c0 -14 2 -19 5 -12 2 6 2 18 0 25 -3 6 -5 1 -5 -13z"/>
<path d="M5395 9281 c-104 -27 -175 -98 -220 -224 l-22 -60 -6 47 c-12 84 -53
139 -117 156 -25 7 -60 4 -128 -9 -51 -11 -103 -16 -115 -13 -55 13 -36 54 21
45 l37 -5 -34 26 c-19 14 -45 26 -57 26 -26 0 -74 -36 -74 -56 0 -9 -10 -14
-28 -14 -35 0 -72 -37 -72 -72 0 -14 7 -41 15 -59 l14 -34 1 36 c0 37 21 66
40 54 20 -12 10 -62 -30 -144 -65 -135 -50 -206 57 -262 l51 -27 -56 -7 c-161
-20 -271 -111 -288 -239 -9 -64 3 -112 38 -151 25 -29 37 -35 69 -35 75 0 118
81 69 130 -25 25 -41 25 -73 0 -22 -17 -26 -18 -31 -4 -27 71 32 167 135 219
27 14 51 25 53 25 3 0 -6 -16 -19 -36 -29 -43 -34 -114 -11 -169 18 -41 25
-43 55 -11 18 20 25 42 32 106 11 113 24 130 98 130 54 0 178 -19 226 -35 15
-5 17 -4 5 3 -8 6 -45 20 -81 32 -95 30 -103 42 -109 160 -4 77 -9 102 -24
119 -23 25 -40 15 -62 -37 -31 -75 -11 -151 52 -193 l29 -19 -25 0 c-37 0
-128 56 -150 93 -29 47 -26 96 9 144 37 52 67 110 75 148 6 29 8 30 54 27 31
-2 72 6 121 22 90 31 120 32 155 5 33 -26 52 -63 66 -125 16 -69 4 -87 -23
-34 -36 70 -114 98 -196 69 -35 -12 -35 -13 -21 -40 14 -24 49 -41 132 -63 89
-24 102 -39 107 -134 4 -58 6 -70 12 -47 3 17 7 47 8 68 0 21 8 69 17 107 19
84 33 91 145 77 75 -10 109 -7 139 12 12 8 11 13 -5 31 -28 31 -89 60 -125 60
-17 0 -45 -7 -61 -16 -17 -8 -33 -14 -35 -11 -10 10 95 108 136 126 51 23 83
26 129 10 36 -13 40 -25 11 -34 -44 -14 -30 -94 19 -110 28 -9 86 21 100 51
16 35 14 54 -9 92 -33 54 -150 92 -225 73z"/>
<path d="M5192 9209 c-12 -21 -29 -39 -37 -39 -8 0 -23 17 -34 38 -11 20 -20
33 -21 27 0 -19 40 -75 55 -75 14 0 72 76 64 85 -2 2 -15 -14 -27 -36z"/>
<path d="M7410 9224 c0 -6 19 -28 43 -49 l42 -40 -40 45 c-22 25 -41 47 -42
49 -2 2 -3 0 -3 -5z"/>
<path d="M7532 9200 c0 -14 2 -19 5 -12 2 6 2 18 0 25 -3 6 -5 1 -5 -13z"/>
<path d="M7509 9143 c-13 -16 -12 -17 4 -4 9 7 17 15 17 17 0 8 -8 3 -21 -13z"/>
<path d="M5817 9015 c-8 -56 -37 -114 -82 -164 -19 -21 -35 -41 -35 -44 0 -11
129 84 150 110 11 14 20 34 20 45 0 17 -36 98 -44 98 -2 0 -6 -20 -9 -45z"/>
<path d="M6951 9017 c-21 -42 -22 -51 -10 -79 7 -17 38 -50 73 -75 86 -63 108
-73 70 -32 -55 60 -78 102 -94 168 l-16 65 -23 -47z"/>
<path d="M8286 8976 c18 -8 37 -22 43 -33 6 -10 11 -13 11 -6 0 16 -49 53 -69
53 -9 -1 -2 -7 15 -14z"/>
<path d="M8214 8953 c-14 -16 -31 -37 -36 -48 -6 -11 -7 -15 -2 -10 5 6 25 27
43 48 19 20 32 37 27 37 -4 0 -18 -12 -32 -27z"/>
<path d="M6354 8914 c-18 -14 -18 -14 6 -3 31 14 36 19 24 19 -6 0 -19 -7 -30
-16z"/>
<path d="M6426 8918 c12 -5 27 -20 32 -32 6 -11 11 -15 11 -8 1 6 -8 21 -19
32 -11 11 -26 20 -32 19 -7 0 -3 -5 8 -11z"/>
<path d="M8313 8873 c-12 -13 -19 -23 -14 -23 10 0 46 39 40 43 -2 2 -14 -7
-26 -20z"/>
<path d="M6189 8873 c-13 -16 -12 -17 4 -4 9 7 17 15 17 17 0 8 -8 3 -21 -13z"/>
<path d="M6260 8886 c0 -2 8 -10 18 -17 15 -13 16 -12 3 4 -13 16 -21 21 -21
13z"/>
<path d="M8160 8874 c0 -23 29 -35 77 -31 l48 3 -52 2 c-38 2 -55 7 -62 20 -6
9 -11 12 -11 6z"/>
<path d="M6330 8833 c0 -5 10 -18 23 -29 l22 -19 -20 25 c-11 14 -21 27 -22
29 -2 2 -3 0 -3 -6z"/>
<path d="M6446 8812 l-19 -27 24 22 c12 12 21 24 18 27 -2 2 -13 -8 -23 -22z"/>
<path d="M4426 8809 c-14 -11 -26 -28 -25 -37 0 -12 3 -10 9 6 6 13 24 29 42
37 18 8 26 14 17 15 -9 0 -28 -9 -43 -21z"/>
<path d="M4533 8785 c25 -19 47 -40 50 -47 4 -9 6 -9 6 -1 1 12 -80 83 -94 83
-4 0 13 -16 38 -35z"/>
<path d="M6500 8806 c0 -2 8 -10 18 -17 15 -13 16 -12 3 4 -13 16 -21 21 -21
13z"/>
<path d="M6388 8783 c6 -2 18 -2 25 0 6 3 1 5 -13 5 -14 0 -19 -2 -12 -5z"/>
<path d="M5270 8769 c-33 -13 -68 -47 -87 -82 -14 -27 -13 -28 6 -18 23 13 89
13 151 2 33 -7 54 -5 82 6 44 18 46 22 15 51 -47 44 -116 61 -167 41z"/>
<path d="M4401 8739 c-1 -17 29 -49 45 -49 5 0 1 5 -9 11 -10 6 -22 20 -27 32
-6 15 -9 17 -9 6z"/>
<path d="M6238 8734 c-361 -65 -651 -360 -709 -721 -7 -43 -14 -80 -15 -81 -1
-2 -32 8 -67 22 -97 39 -195 56 -317 56 -241 0 -458 -88 -623 -253 -332 -332
-345 -875 -29 -1218 35 -37 85 -84 112 -104 l50 -37 -70 -55 c-131 -104 -241
-272 -290 -443 -31 -107 -38 -298 -16 -411 35 -171 112 -314 241 -445 135
-137 286 -217 470 -249 160 -28 329 -12 469 44 l71 28 21 -107 c68 -343 315
-609 649 -696 99 -26 332 -26 430 0 249 66 459 236 574 463 36 73 76 204 86
286 5 49 9 57 23 52 288 -114 527 -109 777 14 300 148 485 445 485 781 0 281
-123 533 -345 708 l-40 31 50 43 c216 184 326 416 327 688 0 237 -86 447 -252
616 -240 245 -608 330 -925 214 -33 -12 -67 -24 -75 -26 -12 -4 -19 13 -33 86
-92 486 -546 802 -1029 714z m397 -84 c93 -29 205 -90 286 -155 156 -126 278
-355 291 -545 l3 -45 -86 -3 -87 -3 -6 54 c-10 78 -57 205 -100 269 -20 31
-68 86 -106 121 -292 276 -760 218 -982 -122 -48 -74 -98 -206 -98 -261 0 -56
-6 -60 -86 -60 l-74 0 0 43 c0 24 9 78 19 119 76 297 302 523 599 598 108 28
325 23 427 -10z m-110 -215 c106 -27 184 -72 266 -154 104 -103 161 -221 175
-357 l7 -64 -587 0 -586 0 0 38 c0 50 33 179 58 229 75 146 221 264 381 309
65 17 215 17 286 -1z m-1206 -509 c30 -9 79 -25 108 -37 63 -26 68 -45 26
-121 -20 -36 -31 -47 -42 -42 -277 124 -589 56 -776 -167 -102 -122 -149 -251
-149 -414 -1 -128 22 -218 82 -325 34 -62 145 -185 187 -208 19 -11 19 -13
-19 -87 -22 -41 -45 -75 -51 -75 -23 0 -149 116 -202 185 -243 319 -222 761
50 1051 126 136 282 219 474 254 65 12 245 4 312 -14z m2551 -6 c152 -37 285
-115 393 -230 254 -269 297 -667 106 -987 -41 -67 -150 -186 -212 -231 l-46
-32 -40 69 c-23 38 -41 72 -41 75 0 3 40 45 88 93 144 144 196 267 196 463 0
94 -4 128 -23 185 -38 116 -80 184 -166 271 -65 66 -98 89 -166 122 -112 53
-174 67 -299 66 -99 -1 -174 -17 -271 -58 -12 -5 -25 8 -53 54 -20 34 -36 65
-36 69 0 11 78 44 150 65 135 39 279 41 420 6z m-815 -129 c-6 -5 -133 -79
-284 -165 l-274 -156 -43 21 c-50 24 -87 20 -129 -13 -19 -15 -32 -18 -45 -12
-57 28 -559 320 -560 327 0 4 302 7 672 7 392 0 668 -4 663 -9z m165 -389 l-1
-387 -36 -23 -35 -23 -318 183 -318 183 6 35 c2 19 5 36 6 37 7 10 682 390
688 387 4 -3 8 -179 8 -392z m-1290 189 c291 -167 345 -202 348 -222 2 -21
-14 -33 -140 -105 -79 -45 -223 -128 -321 -185 l-179 -102 -28 16 c-15 10 -38
17 -49 17 -21 0 -21 1 -21 378 0 379 2 402 35 402 5 0 165 -90 355 -199z
m-619 102 c45 -14 83 -32 86 -39 4 -11 -542 -971 -568 -998 -16 -17 -121 76
-175 155 -68 100 -95 180 -101 299 -6 117 12 204 65 304 69 133 216 251 363
290 30 8 98 15 152 15 80 1 112 -4 178 -26z m2498 11 c204 -50 373 -217 425
-420 20 -78 21 -212 1 -288 -23 -87 -73 -181 -133 -246 -58 -64 -119 -108
-132 -94 -15 16 -570 983 -570 993 0 10 88 46 149 61 60 14 191 11 260 -6z
m-169 -612 c188 -326 341 -595 339 -597 -2 -1 -140 76 -306 172 l-303 175 0
43 c0 58 -16 91 -57 116 l-33 21 0 341 c0 200 4 337 9 332 5 -6 163 -277 351
-603z m-2179 -106 c-29 -32 -41 -62 -41 -99 l0 -35 -292 -169 c-161 -92 -296
-169 -300 -171 -4 -2 26 56 68 130 209 364 539 937 558 968 l21 35 3 -319 c2
-301 1 -321 -17 -340z m873 295 c10 -15 68 -21 105 -10 35 10 41 8 363 -178
257 -147 328 -192 328 -208 0 -30 37 -84 65 -97 l25 -11 0 -371 0 -371 -34
-27 c-20 -16 -40 -45 -48 -69 -14 -41 -18 -44 -339 -230 -323 -187 -325 -188
-363 -178 -31 9 -47 7 -82 -6 l-44 -17 -320 184 c-310 178 -319 184 -320 214
0 47 -39 97 -88 114 l-42 14 0 368 c0 344 1 368 18 368 24 0 79 35 91 59 6 11
13 34 15 52 2 21 12 39 26 48 59 39 616 359 627 360 6 1 14 -3 17 -8z m-859
-882 c0 -358 -1 -394 -16 -393 -9 1 -168 89 -353 195 -321 185 -335 195 -314
209 58 40 664 388 673 386 6 -2 10 -142 10 -397z m2189 197 c205 -118 324
-192 318 -198 -5 -5 -155 -94 -333 -197 -245 -142 -329 -186 -344 -181 -19 7
-20 18 -23 376 -2 341 -1 370 15 382 10 7 23 11 29 10 6 -2 158 -88 338 -192z
m34 -853 c-198 -340 -373 -640 -389 -668 l-29 -50 0 380 0 380 29 17 c44 25
66 65 65 118 l-2 45 337 197 c185 108 339 197 343 197 3 1 -156 -277 -354
-616z m-2974 414 c-339 -277 -316 -801 46 -1042 134 -89 293 -127 442 -105 45
6 105 21 135 31 29 11 57 18 62 15 5 -3 24 -32 41 -63 31 -54 31 -57 14 -70
-10 -8 -55 -26 -99 -40 -72 -24 -95 -27 -235 -27 -136 -1 -164 2 -230 22 -279
88 -483 297 -562 577 -33 120 -31 306 6 428 52 175 142 309 280 419 l49 39 45
-76 45 -76 -39 -32z m391 -31 c239 -142 309 -189 308 -203 -4 -33 8 -73 33
-102 l24 -29 -2 -355 -3 -355 -360 621 c-198 341 -362 624 -364 630 -5 12 15
1 364 -207z m3139 112 c115 -117 166 -203 212 -353 36 -120 38 -307 6 -428
-73 -269 -271 -477 -539 -567 -169 -56 -370 -53 -533 9 -90 34 -88 29 -41 114
l41 75 58 -23 c232 -93 505 -33 688 149 128 128 188 274 188 456 0 189 -60
329 -199 466 l-82 80 36 62 c19 34 42 62 49 62 8 0 60 -46 116 -102z m-155
-156 c110 -110 171 -258 171 -412 0 -274 -201 -519 -467 -571 -106 -20 -291 1
-352 40 -11 7 48 116 275 510 159 275 293 501 297 501 4 0 38 -31 76 -68z
m-3009 -460 c150 -261 273 -481 274 -490 2 -29 -104 -55 -229 -56 -132 -1
-217 22 -312 83 -169 109 -260 266 -270 466 -9 174 46 316 169 439 64 65 70
68 82 50 7 -10 136 -232 286 -492z m2130 -234 c0 -219 -3 -398 -6 -398 -4 0
-162 89 -351 198 l-343 197 2 44 3 45 314 182 315 182 33 -27 33 -26 0 -397z
m-1205 213 c218 -125 260 -153 260 -172 0 -19 -56 -55 -360 -230 -198 -115
-363 -209 -367 -209 -5 0 -8 177 -8 393 l0 394 40 12 c21 6 42 16 45 22 7 11
14 7 390 -210z m321 -286 c44 -30 77 -32 123 -7 l34 18 346 -199 c190 -109
348 -201 350 -203 2 -2 -357 -4 -799 -4 -489 0 -800 4 -794 9 8 8 695 411 701
411 1 0 19 -11 39 -25z m-566 -496 c0 -46 47 -176 87 -242 44 -73 143 -172
216 -215 138 -83 329 -113 482 -78 241 57 440 259 489 498 l13 63 78 3 78 3
-7 -57 c-9 -80 -50 -196 -99 -284 -57 -101 -196 -240 -297 -297 -379 -212
-850 -103 -1084 250 -64 97 -101 181 -121 278 -24 115 -29 109 75 109 l90 0 0
-31z m1214 -6 c-4 -21 -17 -66 -30 -100 -97 -262 -367 -418 -641 -369 -238 42
-435 235 -477 469 l-7 37 581 0 581 0 -7 -37z"/>
<path d="M7425 8711 c-38 -23 -87 -80 -82 -95 7 -22 78 -18 137 8 77 35 116
42 137 25 17 -13 17 -13 2 11 -22 35 -87 70 -129 70 -19 0 -49 -8 -65 -19z"/>
<path d="M4545 8710 c-13 -6 -15 -9 -5 -9 8 0 22 4 30 9 18 12 2 12 -25 0z"/>
<path d="M4498 8693 c7 -3 16 -2 19 1 4 3 -2 6 -13 5 -11 0 -14 -3 -6 -6z"/>
<path d="M7768 8575 c19 -16 41 -52 57 -95 32 -84 81 -132 103 -102 20 25 9
124 -17 160 -24 34 -86 62 -137 62 l-36 0 30 -25z"/>
<path d="M5013 8578 c-17 -6 -46 -26 -64 -44 -26 -27 -33 -43 -36 -86 -4 -54
18 -117 43 -125 22 -7 52 61 59 132 7 72 25 119 47 128 24 10 -16 5 -49 -5z"/>
<path d="M5140 8576 c0 -23 60 -283 86 -376 27 -94 45 -124 94 -157 108 -74
255 38 219 169 -8 30 -29 60 -77 108 -63 62 -307 270 -317 270 -3 0 -5 -6 -5
-14z m133 -123 c128 -108 217 -193 233 -225 50 -96 -37 -205 -140 -177 -50 14
-84 54 -107 128 -25 81 -88 351 -82 351 3 0 46 -35 96 -77z"/>
<path d="M7535 8473 c-168 -155 -232 -225 -246 -273 -45 -150 140 -261 248
-148 33 35 53 88 77 208 28 135 57 311 54 322 -2 5 -62 -44 -133 -109z m61
-165 c-18 -92 -42 -184 -53 -204 -33 -65 -111 -91 -173 -59 -55 28 -77 113
-46 173 8 15 79 91 158 167 128 125 143 137 146 115 1 -14 -13 -100 -32 -192z"/>
<path d="M3443 8263 c-28 -5 -73 -58 -73 -85 0 -11 -13 -33 -30 -50 -23 -22
-30 -39 -30 -67 0 -102 104 -126 229 -54 l44 25 -7 70 c-8 88 -35 142 -77 157
-18 6 -32 10 -33 10 -1 -1 -11 -4 -23 -6z m67 -43 c24 -24 34 -60 35 -129 l0
-55 -47 -24 c-26 -14 -66 -25 -89 -26 -82 -2 -116 87 -54 141 14 12 25 31 25
43 0 11 11 32 25 45 30 31 77 33 105 5z"/>
<path d="M9270 8232 c-34 -34 -52 -95 -48 -160 3 -46 4 -47 62 -76 85 -42 134
-45 174 -11 27 23 32 33 32 72 0 37 -5 50 -30 73 -16 15 -30 38 -30 50 0 12
-13 35 -29 51 -40 40 -91 40 -131 1z m129 -18 c12 -15 21 -37 21 -50 0 -13 9
-28 19 -33 26 -14 43 -65 31 -96 -20 -51 -74 -58 -161 -19 -63 29 -64 30 -59
114 4 68 38 110 91 110 29 0 42 -6 58 -26z"/>
<path d="M4400 8201 c36 -72 88 -79 195 -26 64 31 66 34 30 28 -79 -14 -158
-7 -203 16 l-43 22 21 -40z"/>
<path d="M8355 8208 c-40 -16 -63 -19 -117 -14 -36 3 -75 8 -85 11 -10 3 18
-13 62 -35 43 -22 89 -40 101 -40 28 0 70 34 89 71 18 33 17 34 -50 7z"/>
<path d="M4696 8199 c-89 -31 -155 -78 -292 -210 -151 -145 -201 -173 -299
-167 -49 3 -70 10 -98 31 -88 67 -66 201 43 257 68 35 133 18 170 -43 26 -42
25 -76 -3 -118 -41 -61 -100 -75 -141 -33 -18 17 -22 69 -6 79 13 8 13 25 0
25 -21 0 -60 -49 -60 -75 0 -61 57 -115 122 -115 70 0 148 76 163 160 19 103
-103 217 -208 195 -72 -15 -177 -105 -177 -152 0 -28 -17 -3 -23 33 -11 69
-87 144 -146 144 -74 0 -133 -68 -115 -132 11 -38 63 -73 94 -63 24 8 42 38
34 59 -8 20 -43 31 -57 17 -8 -8 -5 -11 11 -11 12 0 22 -6 22 -14 0 -22 -17
-28 -39 -16 -24 12 -35 43 -26 71 9 28 67 52 98 40 33 -13 75 -65 86 -109 6
-20 17 -62 25 -93 21 -74 51 -117 110 -153 67 -42 156 -47 241 -16 52 20 76
39 184 147 68 69 150 144 182 168 55 40 166 92 176 81 3 -2 -4 -7 -15 -11 -11
-3 -37 -24 -56 -45 -29 -32 -36 -48 -36 -80 0 -48 27 -80 68 -80 16 0 37 9 47
20 10 11 27 20 38 20 31 0 2 27 -37 34 -47 9 -60 26 -40 54 26 37 96 72 160
78 65 7 104 -7 232 -81 34 -20 62 -34 62 -32 0 14 -174 115 -230 134 -84 29
-183 30 -264 2z"/>
<path d="M7872 8205 c-63 -18 -94 -33 -194 -97 -88 -56 -106 -76 -25 -28 28
17 85 47 125 67 72 35 74 36 139 25 68 -11 134 -46 153 -81 12 -24 -10 -51
-44 -51 -12 0 -31 -7 -42 -15 -19 -14 -19 -14 2 -15 11 0 29 -9 39 -20 23 -25
76 -26 97 -2 48 55 18 128 -78 189 -30 19 39 -2 93 -28 65 -31 129 -85 250
-209 130 -135 193 -171 294 -172 75 0 120 16 174 63 44 39 68 88 85 174 15 73
31 107 66 134 52 41 134 15 134 -42 0 -29 -34 -62 -55 -54 -23 10 -18 37 7 37
16 0 19 3 11 11 -13 13 -48 -2 -56 -25 -9 -22 21 -56 49 -56 34 0 84 51 84 85
0 63 -51 110 -121 110 -65 0 -133 -69 -145 -147 -7 -43 -19 -49 -28 -15 -9 36
-63 94 -109 116 -89 43 -193 17 -244 -60 -88 -133 61 -324 197 -254 63 33 80
106 35 150 -25 26 -45 32 -45 16 0 -6 5 -13 10 -16 6 -3 10 -21 10 -40 0 -64
-73 -86 -129 -39 -82 69 -51 185 56 208 44 10 113 -22 149 -70 24 -31 29 -47
29 -95 0 -47 -4 -62 -25 -84 -51 -54 -115 -70 -198 -49 -71 19 -97 37 -222
160 -120 117 -198 174 -279 205 -73 27 -180 33 -249 14z"/>
<path d="M3519 7941 c-57 -57 -30 -157 50 -191 31 -13 133 -10 165 5 19 8 19
8 0 -21 -30 -42 -44 -90 -44 -146 0 -113 74 -188 186 -188 55 0 95 20 128 62
69 92 44 217 -49 248 -65 22 -143 -40 -121 -96 6 -17 8 -16 19 6 28 55 103 48
128 -12 9 -23 9 -36 -5 -72 -20 -53 -56 -79 -109 -79 -75 0 -135 76 -123 156
19 127 138 187 233 118 94 -68 111 -189 54 -381 -17 -58 -36 -145 -43 -193
-30 -227 58 -383 282 -500 111 -58 112 -48 2 15 -130 76 -159 109 -183 208
-10 42 7 129 27 137 8 3 32 -11 54 -31 42 -37 76 -51 46 -17 -13 14 -14 24 -6
45 24 63 -53 111 -115 70 -27 -18 -55 -81 -55 -126 0 -48 -11 -27 -19 39 -12
82 5 200 46 328 78 242 46 398 -98 470 -60 31 -132 33 -219 5 -34 -11 -85 -20
-112 -20 -41 0 -54 5 -79 29 -50 50 -30 121 33 121 28 0 53 -23 43 -40 -9 -15
-26 -12 -41 8 -12 15 -13 15 -14 1 0 -23 25 -41 52 -37 36 5 37 59 2 87 -38
30 -79 27 -115 -8z"/>
<path d="M9190 7963 c-49 -18 -69 -82 -32 -102 23 -12 62 11 62 37 -1 16 -1
16 -11 0 -11 -19 -34 -24 -44 -9 -8 14 24 41 49 41 52 0 75 -76 36 -118 -24
-25 -84 -44 -119 -36 -14 4 -55 15 -90 25 -89 27 -145 24 -211 -9 -61 -31
-112 -94 -131 -165 -17 -65 -4 -179 35 -305 45 -144 61 -259 47 -337 -13 -72
-21 -81 -21 -26 0 102 -83 171 -149 125 -21 -15 -23 -23 -18 -64 4 -29 1 -52
-6 -59 -8 -8 -8 -11 1 -11 7 0 28 16 47 35 39 38 61 37 72 -4 21 -76 -10 -188
-65 -237 -15 -12 -66 -46 -114 -75 -49 -28 -88 -53 -88 -56 0 -2 46 20 102 49
268 140 328 315 233 674 -43 161 -47 238 -18 305 22 49 80 105 118 115 70 18
153 -35 174 -111 14 -53 14 -67 -5 -114 -38 -95 -165 -106 -210 -19 -26 50
-23 97 10 124 15 13 35 24 44 24 24 0 62 -28 62 -46 0 -8 5 -14 10 -14 6 0 10
14 10 30 0 45 -39 80 -87 80 -76 -1 -123 -52 -123 -133 0 -153 158 -234 283
-145 80 57 92 202 25 300 l-18 26 48 -15 c80 -24 168 1 197 57 17 33 20 93 5
121 -19 34 -74 55 -110 42z"/>
<path d="M4409 7713 c-13 -16 -12 -17 4 -4 9 7 17 15 17 17 0 8 -8 3 -21 -13z"/>
<path d="M4220 7680 c-26 -26 -26 -81 -2 -103 10 -10 23 -17 28 -17 4 0 -2 7
-14 16 -15 10 -22 25 -22 47 0 37 7 49 35 65 11 6 14 12 8 12 -7 0 -22 -9 -33
-20z"/>
<path d="M8471 7674 c-12 -15 -21 -36 -20 -48 1 -15 4 -12 10 11 5 18 19 39
31 48 13 8 17 15 11 15 -6 0 -21 -12 -32 -26z"/>
<path d="M8555 7688 c28 -16 27 -14 35 -55 l8 -38 1 33 c1 33 -27 72 -51 72
-7 0 -4 -6 7 -12z"/>
<path d="M4321 7673 c7 -12 15 -20 18 -17 3 2 -3 12 -13 22 -17 16 -18 16 -5
-5z"/>
<path d="M4341 7624 c0 -11 3 -14 6 -6 3 7 2 16 -1 19 -3 4 -6 -2 -5 -13z"/>
<path d="M4311 7580 c-13 -11 -19 -20 -14 -20 6 0 18 9 28 20 23 25 17 25 -14
0z"/>
<path d="M8477 7579 c12 -12 24 -21 27 -18 2 2 -8 13 -22 23 l-27 19 22 -24z"/>
<path d="M8566 7575 c-11 -8 -15 -15 -9 -15 6 0 16 7 23 15 16 19 11 19 -14 0z"/>
<path d="M2478 7242 c4 -146 22 -214 79 -299 88 -133 230 -196 372 -167 36 8
70 14 74 14 5 0 5 5 2 10 -3 6 -18 10 -33 10 -40 1 -104 33 -134 69 -15 17
-47 73 -72 124 -55 110 -118 196 -218 294 l-73 73 3 -128z"/>
<path d="M10245 7276 c-90 -92 -178 -217 -219 -310 -15 -33 -38 -75 -53 -94
-28 -37 -92 -71 -135 -72 -48 0 -39 -17 16 -30 190 -45 376 66 452 270 15 41
37 320 25 320 -3 0 -41 -38 -86 -84z"/>
<path d="M3833 7231 c-22 -6 -21 -7 12 -30 40 -27 68 -69 102 -150 l23 -56 -6
65 c-3 36 -7 79 -10 96 -8 53 -68 90 -121 75z"/>
<path d="M3637 7209 c-299 -85 -519 -313 -594 -615 -24 -101 -22 -295 6 -399
45 -171 150 -333 284 -441 82 -65 221 -134 318 -158 100 -24 114 -18 21 10
-312 92 -540 339 -599 648 -21 110 -13 285 17 381 67 212 195 376 381 487 67
39 188 87 221 88 9 0 20 5 23 10 8 13 3 12 -78 -11z"/>
<path d="M8883 7215 c-27 -19 -40 -61 -46 -155 l-6 -75 24 64 c26 70 65 125
115 159 l33 22 -49 0 c-28 0 -59 -7 -71 -15z"/>
<path d="M9128 7194 c312 -92 540 -339 599 -648 21 -110 13 -285 -17 -381 -47
-151 -147 -307 -251 -395 -29 -24 -87 -65 -129 -90 -66 -40 -106 -56 -239 -96
-8 -3 -12 -7 -9 -9 8 -8 146 34 212 64 227 103 401 316 463 567 24 101 22 295
-6 399 -45 171 -150 333 -284 441 -82 65 -221 134 -318 158 -100 24 -114 18
-21 -10z"/>
<path d="M11695 7211 c-85 -14 -137 -31 -220 -71 -247 -119 -405 -372 -405
-647 0 -124 22 -217 77 -333 39 -81 59 -108 137 -186 76 -76 106 -98 186 -138
113 -55 201 -76 331 -76 273 0 524 153 646 395 119 233 103 518 -42 735 -94
142 -265 263 -429 305 -73 18 -215 26 -281 16z"/>
<path d="M8979 7141 c-63 -63 -7 -175 69 -139 21 10 28 21 30 51 4 41 10 44
52 22 58 -30 99 -140 85 -231 l-7 -49 -18 41 c-24 56 -70 87 -138 92 -53 5
-54 4 -47 -19 13 -43 34 -67 90 -104 57 -38 75 -60 75 -92 0 -25 -66 -126
-126 -193 l-49 -55 53 45 c67 56 103 80 122 80 8 0 46 -18 84 -40 51 -30 79
-40 112 -40 51 0 55 11 22 60 -48 70 -126 98 -189 66 -45 -23 -46 -14 -3 24
47 41 92 60 141 60 55 0 77 -20 124 -110 23 -44 55 -92 71 -105 28 -23 29 -27
15 -43 -26 -31 -45 -77 -57 -141 -15 -82 -28 -109 -61 -127 -51 -26 -157 -13
-207 25 -21 15 -20 16 42 16 58 0 68 3 95 29 33 32 67 107 58 130 -11 28 -83
-1 -123 -50 -72 -88 -105 -94 -213 -40 -92 47 -102 46 -22 -1 34 -21 89 -62
122 -91 75 -68 77 -90 15 -165 -56 -69 -66 -88 -66 -127 0 -30 2 -32 28 -25
40 10 91 43 110 73 9 14 19 46 22 71 l6 46 22 -58 c37 -97 28 -184 -26 -239
-32 -34 -42 -35 -42 -5 0 57 -73 76 -110 30 -28 -36 -21 -89 15 -120 62 -54
171 -5 228 102 33 62 30 172 -8 247 -15 32 -43 74 -61 94 -41 45 -42 49 -5 30
74 -39 161 -28 205 24 13 16 36 65 51 109 35 106 75 158 91 116 3 -8 -4 -28
-15 -44 -29 -40 -27 -42 19 -18 52 29 70 69 48 108 -13 22 -14 34 -6 57 14 35
4 78 -21 91 -10 6 -38 15 -62 20 l-44 10 38 -32 c27 -24 35 -36 28 -46 -17
-26 -56 3 -112 85 -60 87 -106 124 -153 124 -37 0 -112 -33 -144 -63 -21 -19
-20 -15 10 48 29 62 33 80 33 155 0 98 -19 145 -81 200 -78 68 -165 81 -215
31z"/>
<path d="M3530 7119 c-35 -14 -88 -67 -113 -114 -33 -62 -30 -172 8 -247 15
-32 43 -74 61 -94 19 -20 34 -38 34 -39 0 -1 -26 7 -57 18 -115 40 -181 0
-227 -140 -36 -108 -76 -160 -92 -118 -3 8 4 28 15 44 29 40 27 42 -19 18 -52
-29 -70 -69 -48 -108 13 -22 14 -34 6 -57 -14 -35 -4 -78 21 -91 10 -6 38 -15
62 -20 l44 -10 -38 32 c-27 24 -35 36 -28 46 17 26 56 -3 112 -85 60 -87 106
-124 153 -124 37 0 112 33 144 63 21 19 20 15 -10 -48 -29 -62 -33 -80 -33
-155 0 -98 19 -145 81 -200 78 -68 165 -81 215 -31 63 63 7 175 -69 139 -21
-10 -28 -21 -30 -51 -4 -41 -10 -44 -52 -22 -58 30 -99 140 -85 231 l7 49 18
-41 c24 -56 70 -87 138 -92 53 -5 54 -4 47 19 -13 43 -34 67 -90 104 -57 38
-75 60 -75 92 0 25 66 126 126 193 l49 55 -53 -45 c-67 -56 -103 -80 -122 -80
-8 0 -46 18 -84 40 -51 30 -79 40 -112 40 -51 0 -55 -11 -21 -60 47 -70 125
-98 188 -66 45 23 46 14 3 -24 -47 -41 -92 -60 -141 -60 -55 0 -77 20 -124
110 -23 44 -55 92 -71 105 -28 23 -29 27 -15 43 27 31 45 77 57 142 14 80 31
113 65 128 51 23 155 10 203 -27 21 -15 20 -16 -42 -16 -58 0 -68 -3 -95 -29
-33 -32 -67 -107 -58 -130 11 -28 83 1 123 50 72 88 105 94 213 40 92 -47 102
-46 22 1 -34 21 -89 62 -122 91 -75 68 -77 90 -15 165 56 69 66 88 66 127 0
30 -2 32 -27 25 -41 -10 -92 -43 -111 -73 -9 -14 -19 -46 -22 -71 l-6 -46 -22
58 c-37 97 -28 184 26 240 32 33 42 34 42 4 0 -13 8 -31 18 -40 48 -44 119 5
108 73 -10 66 -76 97 -146 69z"/>
<path d="M821 7019 c-422 -110 -651 -550 -501 -962 80 -217 279 -394 510 -454
88 -22 263 -22 350 1 325 87 550 374 550 703 0 124 -22 217 -77 333 -39 81
-59 108 -137 186 -76 76 -106 98 -186 138 -52 25 -126 53 -165 61 -99 21 -253
18 -344 -6z"/>
<path d="M9357 6942 c-19 -20 -37 -67 -36 -90 0 -9 7 4 15 30 8 26 24 54 36
63 13 8 18 15 12 15 -6 0 -18 -8 -27 -18z"/>
<path d="M9445 6940 c21 -24 26 -25 19 -6 -3 8 -13 17 -22 21 -13 5 -13 2 3
-15z"/>
<path d="M9445 6850 c-16 -17 -16 -20 -3 -15 9 4 19 13 22 21 7 19 2 18 -19
-6z"/>
<path d="M3235 6810 c-26 -28 -15 -31 12 -3 12 13 19 23 14 23 -4 0 -16 -9
-26 -20z"/>
<path d="M3313 6820 c10 -7 32 -33 48 -58 16 -25 29 -41 29 -35 0 17 -63 96
-80 100 -9 3 -8 0 3 -7z"/>
<path d="M9390 6820 c-8 -5 -10 -10 -5 -10 6 0 17 5 25 10 8 5 11 10 5 10 -5
0 -17 -5 -25 -10z"/>
<path d="M3226 6727 c7 -20 57 -40 86 -34 18 3 17 5 -8 6 -17 0 -43 10 -58 22
-18 14 -24 16 -20 6z"/>
<path d="M3885 6721 c-94 -44 -125 -119 -85 -207 12 -27 24 -44 25 -39 2 6 6
22 9 36 3 14 28 54 56 89 41 51 50 70 50 101 0 45 -1 45 -55 20z"/>
<path d="M10184 6695 c-14 -25 -29 -45 -32 -45 -4 0 -25 11 -47 24 -50 31 -65
21 -65 -45 l0 -49 -55 0 c-63 0 -66 -5 -30 -66 27 -46 26 -48 -32 -78 -18 -9
-33 -23 -33 -30 0 -8 20 -26 45 -41 l45 -26 -25 -43 c-36 -61 -33 -66 30 -66
l55 0 0 -49 c0 -66 15 -76 65 -45 22 13 43 24 47 24 3 0 18 -20 32 -45 15 -25
31 -45 36 -45 5 0 21 20 36 45 14 25 28 45 32 45 3 0 24 -11 48 -25 36 -21 44
-23 54 -10 6 8 10 33 8 57 l-3 43 58 3 c33 2 57 8 57 14 0 6 -11 30 -25 54
-27 46 -26 48 33 78 17 9 32 23 32 31 0 8 -15 22 -32 31 -59 30 -60 32 -33 78
36 61 33 66 -30 66 l-55 0 0 49 c0 66 -15 76 -65 45 -22 -13 -43 -24 -47 -24
-3 0 -18 20 -32 45 -15 25 -31 45 -36 45 -5 0 -21 -20 -36 -45z m55 -42 c10
-22 9 -29 -3 -42 -15 -14 -17 -14 -32 0 -12 13 -13 20 -3 42 7 15 15 27 19 27
4 0 12 -12 19 -27z m-101 -39 c2 -1 -1 -11 -7 -22 -18 -33 -51 -17 -51 24 l0
34 28 -17 c15 -9 28 -18 30 -19z m222 2 c0 -42 -33 -57 -52 -23 -7 14 -7 22
-1 24 6 2 19 10 29 18 25 19 24 20 24 -19z m-179 -39 c-1 -12 -15 -9 -19 4 -3
6 1 10 8 8 6 -3 11 -8 11 -12z m93 -8 c-3 -5 -10 -7 -15 -3 -5 3 -7 10 -3 15
3 5 10 7 15 3 5 -3 7 -10 3 -15z m-226 -45 c5 -32 -28 -41 -50 -14 -26 32 -22
42 15 38 24 -2 33 -8 35 -24z m412 17 c0 -21 -36 -52 -53 -46 -17 7 -23 35
-10 48 10 10 63 8 63 -2z m-350 -11 c0 -5 -7 -10 -15 -10 -8 0 -15 5 -15 10 0
6 7 10 15 10 8 0 15 -4 15 -10z m250 0 c0 -5 -7 -10 -15 -10 -8 0 -15 5 -15
10 0 6 7 10 15 10 8 0 15 -4 15 -10z m-300 -80 c0 -5 -4 -10 -9 -10 -6 0 -13
5 -16 10 -3 6 1 10 9 10 9 0 16 -4 16 -10z m345 0 c-3 -5 -10 -10 -16 -10 -5
0 -9 5 -9 10 0 6 7 10 16 10 8 0 12 -4 9 -10z m-385 -44 c0 -27 -22 -35 -51
-20 -16 8 -29 17 -29 19 0 2 12 11 28 19 28 15 52 6 52 -18z m480 -1 c0 -2
-13 -11 -29 -19 -29 -15 -51 -7 -51 19 0 26 22 34 51 19 16 -8 29 -17 29 -19z
m-440 -50 c0 -9 -6 -12 -15 -9 -8 4 -12 10 -9 15 8 14 24 10 24 -6z m344 6 c3
-5 -1 -11 -9 -15 -9 -3 -15 0 -15 9 0 16 16 20 24 6z m-366 -50 c25 -16 9 -46
-26 -49 -36 -4 -39 3 -16 36 17 24 22 26 42 13z m406 -13 c23 -33 20 -40 -16
-36 -35 3 -51 33 -26 49 20 13 25 11 42 -13z m-334 -18 c0 -5 -7 -10 -15 -10
-8 0 -15 5 -15 10 0 6 7 10 15 10 8 0 15 -4 15 -10z m250 0 c0 -5 -7 -10 -15
-10 -8 0 -15 5 -15 10 0 6 7 10 15 10 8 0 15 -4 15 -10z m-179 -53 c-13 -13
-26 -3 -16 12 3 6 11 8 17 5 6 -4 6 -10 -1 -17z m93 2 c-3 -5 -10 -7 -15 -3
-5 3 -7 10 -3 15 3 5 10 7 15 3 5 -3 7 -10 3 -15z m-134 -29 c0 -3 -13 -14
-30 -23 l-30 -18 0 35 c0 25 5 36 18 39 15 3 42 -17 42 -33z m220 -7 c0 -35
-2 -35 -49 -5 -21 15 3 52 29 45 15 -4 20 -14 20 -40z m-121 3 c9 -10 9 -20 0
-40 -7 -14 -15 -26 -19 -26 -4 0 -12 12 -19 26 -11 26 -2 54 19 54 4 0 13 -6
19 -14z"/>
<path d="M2544 6685 c-14 -25 -28 -45 -32 -45 -3 0 -24 11 -48 25 -36 21 -44
23 -54 10 -6 -8 -10 -33 -8 -57 l3 -43 -58 -3 c-33 -2 -57 -8 -57 -14 0 -6 11
-30 25 -54 27 -46 26 -48 -32 -78 -18 -9 -33 -23 -33 -31 0 -8 15 -22 33 -31
58 -30 59 -32 32 -78 -36 -61 -33 -66 30 -66 l55 0 0 -49 c0 -66 15 -76 65
-45 22 13 43 24 47 24 3 0 18 -20 32 -45 15 -25 31 -45 36 -45 5 0 21 20 36
45 14 25 29 45 32 45 4 0 25 -11 47 -24 50 -31 65 -21 65 45 l0 49 55 0 c63 0
66 5 30 66 -27 46 -26 48 33 78 17 9 32 23 32 30 0 8 -20 26 -45 41 l-45 26
25 43 c36 61 33 66 -30 66 l-55 0 0 49 c0 66 -15 76 -65 45 -22 -13 -43 -24
-47 -24 -3 0 -18 20 -32 45 -15 25 -31 45 -36 45 -5 0 -21 -20 -36 -45z m55
-42 c10 -22 9 -29 -3 -42 -15 -14 -17 -14 -32 0 -12 13 -13 20 -3 42 7 15 15
27 19 27 4 0 12 -12 19 -27z m-110 -31 c21 -15 -3 -52 -29 -45 -15 4 -20 14
-20 40 0 35 2 35 49 5z m231 -6 c0 -41 -33 -57 -51 -24 -6 11 -9 21 -7 22 14
11 53 36 55 36 2 0 3 -15 3 -34z m-179 -39 c-1 -12 -15 -9 -19 4 -3 6 1 10 8
8 6 -3 11 -8 11 -12z m99 5 c0 -13 -12 -22 -22 -16 -10 6 -1 24 13 24 5 0 9
-4 9 -8z m-232 -58 c5 -32 -28 -41 -50 -14 -26 32 -22 42 15 38 24 -2 33 -8
35 -24z m412 17 c0 -21 -36 -52 -53 -46 -17 7 -23 35 -10 48 10 10 63 8 63 -2z
m-350 -11 c0 -5 -7 -10 -15 -10 -8 0 -15 5 -15 10 0 6 7 10 15 10 8 0 15 -4
15 -10z m250 0 c0 -5 -7 -10 -15 -10 -8 0 -15 5 -15 10 0 6 7 10 15 10 8 0 15
-4 15 -10z m-303 -87 c-3 -3 -11 -2 -17 2 -9 6 -9 10 1 16 14 8 27 -7 16 -18z
m347 6 c-8 -14 -24 -10 -24 6 0 9 6 12 15 9 8 -4 12 -10 9 -15z m-384 -43 c0
-27 -22 -35 -51 -20 -16 8 -29 17 -29 19 0 2 12 11 28 19 28 15 52 6 52 -18z
m480 -1 c0 -2 -13 -11 -29 -19 -29 -15 -51 -7 -51 19 0 26 22 34 51 19 16 -8
29 -17 29 -19z m-440 -45 c0 -5 -7 -10 -16 -10 -8 0 -12 5 -9 10 3 6 10 10 16
10 5 0 9 -4 9 -10z m345 0 c3 -5 -1 -10 -9 -10 -9 0 -16 5 -16 10 0 6 4 10 9
10 6 0 13 -4 16 -10z m-367 -49 c25 -16 9 -46 -26 -49 -36 -4 -39 3 -16 36 17
24 22 26 42 13z m406 -13 c23 -33 20 -40 -16 -36 -35 3 -51 33 -26 49 20 13
25 11 42 -13z m-334 -18 c0 -5 -7 -10 -15 -10 -8 0 -15 5 -15 10 0 6 7 10 15
10 8 0 15 -4 15 -10z m250 0 c0 -5 -7 -10 -15 -10 -8 0 -15 5 -15 10 0 6 7 10
15 10 8 0 15 -4 15 -10z m-176 -51 c-3 -5 -10 -7 -15 -3 -5 3 -7 10 -3 15 3 5
10 7 15 3 5 -3 7 -10 3 -15z m93 -5 c-9 -9 -28 6 -21 18 4 6 10 6 17 -1 6 -6
8 -13 4 -17z m-137 -23 c0 -3 -14 -14 -30 -23 l-30 -17 0 34 c0 24 5 35 18 38
15 3 42 -17 42 -32z m220 -7 l0 -34 -27 17 c-16 9 -29 18 -31 19 -2 1 1 11 7
22 18 33 51 17 51 -24z m-121 2 c9 -10 9 -20 0 -40 -7 -14 -15 -26 -19 -26 -4
0 -12 12 -19 26 -11 26 -2 54 19 54 4 0 13 -6 19 -14z"/>
<path d="M8787 6693 c-13 -21 30 -84 83 -120 30 -21 64 -53 76 -70 21 -31 22
-32 28 -10 20 74 -7 148 -64 177 -45 23 -115 36 -123 23z"/>
<path d="M4273 6549 c-73 -19 -360 -121 -390 -138 -30 -17 389 -144 478 -145
160 -1 212 209 69 282 -53 26 -64 26 -157 1z m148 -24 c63 -33 86 -112 49
-172 -29 -48 -72 -67 -137 -59 -44 5 -380 100 -391 110 -1 2 55 24 125 49 258
92 299 100 354 72z"/>
<path d="M8385 6525 c-133 -48 -133 -230 0 -281 43 -16 49 -16 117 1 71 17
379 124 414 143 14 8 -14 20 -122 55 -264 86 -350 103 -409 82z m179 -40 c52
-14 142 -40 198 -58 l103 -33 -130 -46 c-175 -63 -261 -88 -297 -88 -64 0
-128 61 -128 123 0 64 62 127 126 127 18 0 75 -11 128 -25z"/>
<path d="M3826 6307 c-20 -74 7 -148 64 -177 45 -23 115 -36 123 -23 13 21
-30 84 -83 120 -30 21 -64 53 -76 70 -21 31 -22 32 -28 10z"/>
<path d="M8970 6310 c0 -28 -15 -55 -67 -118 -35 -43 -43 -62 -43 -94 0 -36 2
-39 23 -32 109 33 158 116 123 209 -20 51 -36 67 -36 35z"/>
<path d="M4256 6137 c-266 -140 -326 -315 -231 -673 43 -161 47 -238 18 -305
-22 -49 -80 -105 -118 -115 -70 -18 -153 35 -174 111 -14 53 -14 67 5 114 38
95 165 106 210 19 26 -50 23 -97 -10 -124 -15 -13 -35 -24 -44 -24 -24 0 -62
28 -62 46 0 8 -4 14 -10 14 -5 0 -10 -14 -10 -30 0 -45 39 -80 87 -80 76 1
123 52 123 133 0 153 -158 234 -283 145 -80 -57 -92 -202 -25 -300 l18 -26
-48 15 c-113 35 -212 -22 -212 -122 0 -47 14 -71 51 -91 54 -27 119 4 119 57
0 37 -29 54 -58 33 -12 -8 -22 -23 -22 -32 1 -16 1 -16 11 1 11 18 34 23 44 8
8 -14 -24 -41 -49 -41 -52 0 -75 76 -36 118 24 25 84 44 119 36 14 -4 55 -15
90 -25 89 -27 145 -24 211 9 61 31 112 94 131 165 17 65 4 179 -35 305 -45
144 -61 259 -47 337 13 72 21 81 21 26 0 -102 83 -171 149 -125 21 15 23 23
18 64 -4 29 -1 52 6 59 8 8 8 11 -1 11 -7 0 -28 -16 -47 -35 -39 -38 -61 -37
-72 4 -21 76 10 188 65 237 15 12 66 46 115 75 74 43 98 60 85 59 -2 0 -48
-24 -102 -53z"/>
<path d="M8443 6182 c4 -5 42 -29 85 -54 130 -76 159 -109 183 -208 10 -42 -7
-129 -27 -137 -8 -3 -32 11 -54 31 -42 37 -76 51 -46 17 13 -14 14 -24 6 -45
-24 -63 53 -111 115 -70 27 18 55 80 56 127 0 31 0 32 10 7 14 -35 14 -163 -1
-235 -6 -33 -25 -103 -42 -155 -73 -226 -37 -385 103 -455 60 -31 132 -33 219
-5 34 11 85 20 112 20 41 0 54 -5 79 -29 50 -50 30 -121 -33 -121 -28 0 -53
23 -43 40 9 15 26 12 41 -7 12 -16 13 -16 14 -2 0 23 -25 41 -52 37 -36 -5
-37 -59 -2 -87 38 -30 79 -27 115 8 57 57 30 157 -50 191 -31 13 -133 10 -165
-5 -19 -8 -19 -8 0 21 30 41 44 90 44 145 0 114 -74 189 -185 189 -56 0 -96
-19 -129 -62 -69 -92 -44 -217 49 -248 65 -22 143 40 121 96 -6 17 -8 16 -19
-6 -28 -55 -103 -48 -128 12 -9 23 -9 36 5 72 20 53 56 79 109 79 75 0 135
-76 123 -156 -19 -127 -138 -187 -233 -118 -94 68 -111 189 -54 381 17 58 36
145 43 193 30 227 -58 383 -282 500 -51 27 -90 45 -87 39z"/>
<path d="M9502 6100 c21 -4 47 -15 58 -25 16 -15 20 -15 15 -3 -8 20 -49 38
-83 37 -22 -1 -20 -3 10 -9z"/>
<path d="M9410 6073 c0 -17 63 -96 80 -100 9 -3 8 0 -3 7 -10 7 -32 33 -48 58
-16 25 -29 41 -29 35z"/>
<path d="M2253 5965 c-4 -245 -96 -424 -266 -519 -34 -19 -115 -57 -180 -85
-65 -28 -142 -67 -171 -86 -160 -106 -244 -283 -203 -426 49 -168 218 -241
447 -195 177 36 310 106 432 226 43 42 78 76 78 74 0 -6 -147 -233 -249 -384
-206 -306 -366 -515 -552 -725 -106 -119 -410 -422 -473 -471 -26 -21 -35 -33
-27 -38 7 -4 10 -2 9 5 -2 6 3 14 11 17 9 3 11 0 6 -8 -6 -10 -3 -11 11 -6
119 49 491 148 709 190 159 30 371 61 565 81 163 16 606 45 690 44 l55 0 -90
-23 c-163 -43 -270 -103 -389 -221 -116 -114 -176 -229 -176 -338 0 -76 19
-125 72 -182 59 -64 125 -95 222 -102 130 -10 249 35 411 157 205 153 268 182
405 183 50 0 112 -7 150 -17 70 -18 212 -82 263 -118 36 -25 -92 121 -188 216
-76 76 -162 117 -254 124 -96 6 -200 -32 -384 -142 -230 -137 -309 -167 -386
-146 -73 20 -75 77 -6 185 88 136 238 274 420 386 67 41 77 43 207 60 293 37
481 111 607 237 89 89 126 171 141 315 6 51 12 103 16 117 3 14 -26 -36 -65
-110 -38 -74 -86 -154 -105 -176 -33 -39 -38 -41 -106 -47 -87 -7 -155 11
-194 52 -40 41 -44 102 -17 218 26 112 26 144 1 191 -25 47 -59 91 -60 75 0
-7 -35 -48 -79 -92 -148 -150 -167 -256 -66 -369 82 -91 208 -152 316 -152 27
0 49 -4 49 -9 0 -13 -131 -68 -213 -91 -162 -44 -260 -54 -537 -54 -284 0
-366 8 -436 48 -21 12 -45 35 -53 51 -13 27 -12 30 13 52 20 17 39 23 75 23
224 0 403 146 475 389 24 81 20 82 -28 10 -59 -88 -131 -151 -198 -173 -29 -9
-107 -22 -173 -27 -66 -5 -142 -14 -170 -20 -65 -12 -147 -60 -177 -101 -31
-44 -31 -111 -1 -154 27 -37 123 -90 216 -119 l69 -21 -179 0 c-409 -2 -839
-109 -1282 -320 -74 -35 -137 -64 -140 -64 -3 0 40 30 94 67 436 290 797 671
995 1048 23 44 43 82 45 84 2 1 -3 -21 -11 -50 -8 -30 -17 -95 -21 -145 -5
-75 -3 -97 12 -128 47 -98 163 -100 276 -7 20 17 65 72 99 123 101 149 143
193 215 229 55 27 79 33 161 37 52 3 92 8 87 13 -14 13 -160 39 -222 39 -175
0 -310 -73 -401 -216 -45 -72 -75 -93 -109 -75 -50 27 -40 136 24 270 134 279
299 525 447 668 52 51 168 136 175 129 2 -1 -11 -33 -28 -70 -56 -120 -51
-292 12 -390 43 -70 96 -90 208 -83 47 3 115 15 151 27 36 12 73 19 83 16 28
-7 -39 110 -77 133 -17 11 -76 34 -131 51 -80 26 -107 40 -139 71 -38 38 -38
40 -34 103 3 56 10 73 51 134 44 67 49 71 94 78 26 4 115 4 198 1 82 -3 143
-3 135 0 -8 3 -54 22 -101 43 -139 62 -234 71 -362 35 -67 -20 -160 -69 -226
-119 -81 -63 -218 -208 -287 -306 -59 -83 -62 -86 -170 -142 -201 -105 -406
-163 -555 -156 -88 4 -119 22 -119 70 0 76 82 152 294 271 285 161 348 225
377 382 13 73 -2 157 -59 329 l-47 141 -2 -100z"/>
<path d="M10485 5891 c-46 -142 -50 -163 -50 -250 0 -84 3 -103 27 -151 49
-101 125 -163 344 -285 166 -91 252 -158 282 -217 45 -88 8 -128 -118 -128
-153 0 -356 59 -551 161 -94 50 -98 53 -170 152 -246 340 -547 499 -779 411
-19 -7 -73 -29 -120 -49 l-85 -35 141 6 c77 4 166 4 198 0 53 -7 59 -11 91
-54 93 -126 98 -223 16 -281 -16 -12 -73 -35 -126 -52 -53 -18 -110 -41 -128
-53 -39 -26 -114 -154 -77 -131 6 4 43 -4 83 -16 55 -18 96 -23 173 -24 94 0
103 2 136 27 51 39 76 85 94 170 20 92 7 195 -36 286 -16 34 -26 62 -23 62 16
0 147 -103 203 -161 124 -127 270 -344 390 -584 80 -158 103 -241 79 -290 -32
-64 -62 -59 -119 20 -67 93 -132 155 -194 185 -106 52 -217 62 -354 34 -109
-23 -121 -33 -37 -34 181 0 261 -51 393 -246 74 -111 123 -160 187 -190 92
-43 162 -26 202 49 22 41 21 159 -1 243 -23 89 -21 88 30 -5 199 -371 564
-758 976 -1034 59 -39 105 -73 103 -75 -1 -2 -52 21 -111 51 -223 112 -533
221 -776 272 -190 40 -349 57 -536 58 l-172 0 87 28 c189 61 265 155 204 255
-46 76 -126 111 -286 125 -275 24 -337 53 -435 205 -24 35 -44 63 -46 61 -12
-12 51 -169 98 -244 85 -136 222 -212 383 -213 97 -1 132 -46 79 -101 -37 -38
-100 -58 -225 -69 -231 -21 -509 -8 -703 31 -107 22 -242 69 -277 98 -22 18
-21 18 56 24 97 7 201 55 273 125 125 123 111 232 -53 402 l-82 85 -31 -46
c-27 -38 -32 -55 -32 -103 0 -32 7 -86 16 -119 53 -205 -11 -278 -234 -269
-51 2 -53 3 -96 62 -25 33 -70 112 -100 175 -31 63 -58 115 -60 115 -2 0 0
-17 4 -37 5 -21 13 -78 19 -128 34 -292 300 -478 751 -525 125 -13 158 -27
307 -132 193 -135 370 -351 361 -441 -2 -26 -10 -36 -42 -51 -70 -34 -162 -3
-391 135 -202 121 -298 156 -406 146 -117 -10 -207 -74 -362 -255 l-77 -90 75
43 c136 77 285 111 415 94 88 -12 180 -59 320 -165 183 -137 289 -181 425
-172 123 8 224 68 272 162 34 65 36 164 5 243 -39 103 -159 242 -277 323 -66
46 -158 86 -260 115 l-90 25 150 -6 c287 -10 652 -42 915 -80 267 -38 772
-158 920 -218 79 -32 73 -13 -21 67 -103 89 -353 347 -481 498 -162 190 -342
435 -541 734 -98 149 -184 279 -189 290 -6 11 22 -13 62 -54 121 -122 238
-187 417 -232 122 -30 246 -25 326 14 231 114 202 431 -55 601 -29 20 -112 61
-183 92 -163 70 -229 110 -289 174 -50 53 -104 159 -126 245 -7 28 -15 100
-19 160 l-6 110 -50 -154z"/>
<path d="M2736 6020 c-53 -21 -115 -66 -156 -114 -80 -93 -101 -157 -109 -327
l-6 -137 27 19 c79 57 232 258 282 373 15 33 38 75 53 94 28 37 92 71 134 72
43 0 42 13 -3 27 -63 19 -164 15 -222 -7z"/>
<path d="M9875 6025 c-33 -8 -66 -14 -73 -14 -25 -2 -1 -21 26 -21 40 -1 104
-33 134 -69 15 -17 47 -73 72 -124 55 -110 118 -196 218 -294 l73 -73 -3 128
c-4 146 -22 214 -79 299 -57 86 -153 154 -238 168 -22 4 -47 8 -55 10 -8 2
-42 -3 -75 -10z"/>
<path d="M9553 5993 c-12 -13 -19 -23 -14 -23 10 0 46 39 40 43 -2 2 -14 -7
-26 -20z"/>
<path d="M3390 5980 c-8 -5 -10 -10 -5 -10 6 0 17 5 25 10 8 5 11 10 5 10 -5
0 -17 -5 -25 -10z"/>
<path d="M3346 5954 c-23 -23 -20 -30 4 -9 11 10 20 20 20 22 0 7 -9 2 -24
-13z"/>
<path d="M3466 5924 c-4 -20 -18 -47 -31 -60 -13 -13 -20 -24 -15 -24 23 0 73
100 57 116 -2 3 -8 -12 -11 -32z"/>
<path d="M3336 5866 c3 -8 13 -17 22 -21 13 -5 13 -2 -3 15 -21 24 -26 25 -19
6z"/>
<path d="M3951 5768 c-19 -64 -56 -122 -103 -162 l-42 -36 45 0 c81 0 103 33
113 168 2 39 4 72 2 72 -2 0 -8 -19 -15 -42z"/>
<path d="M8836 5740 c12 -153 31 -178 133 -172 23 2 22 4 -15 31 -40 30 -81
94 -109 168 l-14 38 5 -65z"/>
<path d="M4169 5363 c-13 -16 -12 -17 4 -4 9 7 17 15 17 17 0 8 -8 3 -21 -13z"/>
<path d="M4219 5223 c-13 -17 -13 -17 6 -3 11 8 22 16 24 17 2 2 0 3 -6 3 -6
0 -17 -8 -24 -17z"/>
<path d="M4291 5237 c2 -1 15 -11 29 -22 l25 -20 -19 23 c-11 12 -24 22 -29
22 -6 0 -8 -1 -6 -3z"/>
<path d="M8474 5218 l-19 -23 25 20 c14 11 27 21 29 22 2 2 0 3 -6 3 -5 0 -18
-10 -29 -22z"/>
<path d="M8551 5237 c2 -1 13 -9 24 -17 19 -14 19 -14 6 3 -7 9 -18 17 -24 17
-6 0 -8 -1 -6 -3z"/>
<path d="M4201 5173 c-1 -34 27 -73 52 -73 6 0 3 6 -8 12 -28 16 -27 14 -35
55 l-8 38 -1 -32z"/>
<path d="M8590 5173 c0 -33 -8 -46 -35 -61 -11 -6 -14 -12 -7 -12 22 0 52 39
52 70 0 17 -2 30 -5 30 -3 0 -5 -12 -5 -27z"/>
<path d="M4341 5172 c0 -13 -13 -34 -27 -48 -14 -15 -20 -24 -13 -22 22 7 51
55 46 74 -4 16 -5 15 -6 -4z"/>
<path d="M8451 5174 c0 -11 3 -14 6 -6 3 7 2 16 -1 19 -3 4 -6 -2 -5 -13z"/>
<path d="M8460 5143 c0 -6 8 -17 18 -24 16 -13 16 -13 2 6 -8 11 -16 22 -17
24 -2 2 -3 0 -3 -6z"/>
<path d="M8379 5083 c-13 -16 -12 -17 4 -4 16 13 21 21 13 21 -2 0 -10 -8 -17
-17z"/>
<path d="M4062 5029 c-75 -14 -148 -71 -175 -139 -8 -19 -20 -62 -27 -95 -15
-73 -31 -107 -66 -134 -52 -41 -134 -15 -134 42 0 29 34 62 55 54 23 -10 18
-37 -7 -37 -15 0 -19 -3 -12 -10 13 -13 42 -3 54 20 13 24 -14 60 -46 60 -34
0 -84 -51 -84 -85 0 -63 51 -110 121 -110 65 0 133 69 145 147 7 43 19 49 28
16 9 -37 63 -95 109 -117 89 -43 193 -17 244 60 88 133 -61 324 -197 254 -63
-33 -80 -106 -35 -150 25 -26 45 -32 45 -16 0 6 -4 13 -10 16 -5 3 -10 21 -10
40 0 64 73 86 129 39 74 -62 58 -161 -32 -198 -46 -19 -48 -19 -93 0 -27 11
-60 35 -78 57 -27 34 -31 47 -31 97 0 48 4 63 25 85 51 54 115 70 198 49 71
-19 96 -37 227 -164 177 -173 274 -225 420 -225 100 0 157 19 272 91 100 63
137 94 53 45 -30 -18 -88 -48 -128 -68 -72 -35 -74 -36 -139 -25 -68 11 -134
46 -153 81 -12 24 10 51 44 51 12 0 31 7 42 15 19 14 19 14 -2 15 -11 0 -29 9
-39 20 -23 25 -76 26 -97 3 -48 -56 -18 -129 78 -190 30 -19 -39 2 -93 28 -65
31 -129 85 -250 209 -145 149 -231 191 -351 169z"/>
<path d="M8570 5009 c-45 -18 -77 -44 -179 -146 -68 -69 -150 -144 -182 -168
-55 -40 -166 -92 -176 -81 -3 2 4 7 15 11 11 3 37 24 56 45 29 32 36 48 36 80
0 48 -27 80 -68 80 -16 0 -37 -9 -47 -20 -10 -11 -27 -20 -38 -20 -31 0 -2
-27 37 -34 47 -9 60 -26 40 -54 -26 -37 -96 -72 -160 -78 -65 -7 -104 7 -231
81 -35 20 -63 34 -63 32 0 -14 174 -115 230 -134 125 -43 260 -24 379 55 31
20 111 90 179 155 149 143 199 171 297 165 49 -3 70 -10 98 -31 88 -67 66
-201 -43 -257 -68 -35 -133 -18 -170 43 -26 42 -25 76 3 118 41 61 100 75 141
33 18 -17 22 -69 6 -79 -13 -8 -13 -25 0 -25 21 0 60 49 60 75 0 61 -57 115
-122 115 -71 0 -148 -76 -163 -161 -19 -102 103 -215 208 -194 72 15 177 105
177 152 0 28 17 3 23 -33 11 -69 87 -144 146 -144 74 0 133 68 115 132 -11 38
-63 73 -94 63 -24 -8 -42 -38 -34 -59 8 -20 43 -31 57 -17 8 8 5 11 -11 11
-12 0 -22 6 -22 14 0 22 17 28 39 16 24 -12 35 -43 26 -71 -9 -28 -67 -52 -98
-40 -33 13 -75 65 -86 109 -6 20 -17 62 -25 93 -21 74 -51 117 -110 154 -65
40 -164 46 -246 14z"/>
<path d="M3342 4815 c-27 -23 -32 -33 -32 -72 0 -37 5 -50 30 -73 17 -15 30
-38 30 -50 0 -12 13 -35 29 -51 83 -82 189 12 179 159 -3 46 -4 47 -62 76 -85
42 -134 45 -174 11z m149 -31 c64 -29 69 -41 58 -122 -9 -64 -37 -96 -86 -100
-34 -3 -44 1 -62 24 -11 15 -21 37 -21 50 0 13 -9 28 -19 33 -26 14 -43 65
-31 96 19 51 74 58 161 19z"/>
<path d="M9333 4826 c-23 -8 -58 -24 -79 -36 l-37 -23 7 -69 c11 -118 56 -175
130 -161 31 6 76 56 76 85 0 11 14 33 30 50 51 51 38 127 -25 154 -41 17 -47
17 -102 0z m125 -43 c29 -33 24 -77 -13 -110 -14 -12 -25 -31 -25 -43 0 -29
-44 -70 -74 -70 -59 0 -83 35 -93 133 -5 61 -5 64 23 82 40 26 104 45 134 39
14 -3 36 -17 48 -31z"/>
<path d="M5332 4790 c-38 -9 -89 -53 -104 -90 -26 -66 -104 -458 -96 -482 4
-11 237 200 315 286 87 95 95 177 23 248 -21 21 -47 38 -58 38 -11 0 -26 2
-34 4 -7 2 -28 0 -46 -4z m98 -35 c55 -28 77 -113 46 -173 -8 -15 -79 -91
-158 -167 -128 -125 -143 -137 -146 -115 -4 39 64 355 85 396 33 65 111 91
173 59z"/>
<path d="M7345 4768 c-41 -22 -76 -63 -86 -100 -17 -65 3 -112 79 -188 97 -96
315 -275 320 -261 4 13 -51 263 -84 381 -27 94 -45 124 -94 158 -36 24 -101
29 -135 10z m125 -36 c37 -23 48 -40 70 -112 25 -77 89 -350 83 -350 -8 0
-184 151 -252 215 -71 67 -91 100 -91 145 0 100 103 156 190 102z"/>
<path d="M4436 4649 c-22 -17 -64 -79 -54 -79 2 0 28 9 58 21 44 17 68 20 122
15 36 -3 75 -8 85 -11 10 -3 -18 13 -62 35 -90 46 -112 48 -149 19z"/>
<path d="M8205 4625 c-64 -31 -66 -34 -30 -28 79 14 158 7 203 -16 l43 -22
-21 40 c-36 72 -88 79 -195 26z"/>
<path d="M8245 4515 c-31 -30 -33 -77 -5 -105 25 -25 41 -25 73 0 22 17 26 18
31 4 27 -71 -32 -167 -135 -219 -27 -14 -51 -25 -53 -25 -3 0 6 16 19 36 29
43 34 114 11 169 -18 41 -25 43 -55 11 -18 -20 -25 -42 -32 -106 -11 -113 -24
-130 -98 -130 -54 0 -178 19 -226 35 -15 5 -17 4 -5 -3 8 -6 45 -20 81 -32 95
-30 103 -42 109 -160 4 -77 9 -102 24 -119 23 -25 40 -15 62 37 31 75 11 151
-52 193 l-29 19 25 0 c37 0 128 -56 150 -93 29 -47 26 -96 -9 -144 -37 -52
-67 -110 -75 -148 -6 -29 -8 -30 -54 -27 -31 2 -72 -6 -121 -22 -90 -31 -120
-32 -155 -5 -33 26 -52 63 -66 125 -16 69 -4 87 23 34 36 -70 114 -98 196 -69
35 12 35 13 21 40 -14 24 -49 41 -132 63 -89 24 -102 39 -107 134 -4 58 -6 70
-12 47 -3 -16 -7 -47 -8 -68 0 -21 -8 -69 -17 -107 -19 -84 -33 -91 -145 -77
-75 10 -109 7 -139 -12 -12 -8 -11 -13 5 -31 28 -31 89 -60 125 -60 17 0 45 7
61 16 17 8 33 14 35 11 10 -10 -95 -108 -136 -126 -51 -23 -83 -26 -129 -10
-36 13 -40 25 -11 34 44 14 30 94 -19 110 -28 9 -86 -21 -100 -51 -16 -35 -14
-54 9 -92 43 -71 189 -99 276 -54 87 45 130 97 169 205 l22 60 6 -47 c12 -84
53 -139 117 -156 25 -7 60 -4 128 9 51 11 103 16 115 13 55 -13 36 -54 -21
-45 l-37 5 34 -26 c19 -14 45 -26 57 -26 26 0 74 36 74 56 0 9 10 14 28 14 35
0 72 37 72 72 0 14 -7 41 -15 59 l-14 34 -1 -36 c0 -37 -21 -66 -40 -54 -20
12 -10 62 30 144 65 135 50 206 -57 262 l-51 27 56 7 c161 20 271 111 288 239
9 64 -3 112 -38 151 -39 45 -95 49 -133 10z"/>
<path d="M5557 4439 c-27 -321 113 -479 508 -575 140 -34 224 -91 260 -176 59
-142 -76 -259 -216 -188 -104 54 -105 200 -1 231 75 22 142 -19 142 -88 0 -37
-37 -69 -70 -60 -26 7 -26 -9 -1 -23 35 -18 71 -11 102 19 54 54 30 160 -44
194 -104 48 -205 17 -248 -77 -35 -76 -14 -165 50 -219 40 -33 132 -61 178
-54 l35 6 -41 -45 c-47 -50 -61 -80 -61 -130 0 -71 51 -124 120 -124 43 0 90
47 90 89 0 32 -29 71 -54 71 -35 0 -49 -68 -16 -78 13 -5 13 -3 2 11 -15 18
-8 37 13 37 12 0 25 -21 25 -41 0 -18 -40 -49 -64 -49 -29 0 -76 52 -76 83 1
43 38 103 93 150 71 61 107 130 107 208 0 72 -20 119 -76 179 -55 59 -125 91
-272 124 -62 14 -143 37 -180 52 -67 27 -160 82 -182 109 -16 19 -1 19 24 0
10 -8 38 -17 61 -21 111 -16 169 100 71 141 -19 8 -40 23 -46 32 -9 15 -10 10
-6 -22 3 -22 8 -50 12 -62 9 -30 -16 -39 -66 -24 -48 14 -87 46 -126 102 -28
40 -29 48 -34 178 l-5 136 -8 -96z"/>
<path d="M7229 4403 c-5 -127 -7 -133 -39 -183 -38 -59 -90 -98 -143 -107 -44
-7 -54 10 -37 61 12 38 4 70 -11 43 -5 -8 -23 -18 -39 -22 -83 -18 -55 -130
35 -141 30 -4 52 1 89 20 l49 25 -34 -36 c-46 -47 -174 -107 -284 -134 -172
-41 -230 -60 -282 -95 -86 -59 -123 -127 -123 -226 0 -80 26 -134 93 -194 78
-70 97 -100 97 -155 0 -39 -5 -51 -26 -68 -33 -26 -66 -27 -88 -2 -22 24 -17
65 8 69 15 3 18 -1 14 -22 -4 -17 -1 -25 6 -23 19 6 19 50 0 64 -24 17 -30 17
-54 -7 -31 -31 -27 -83 11 -114 43 -36 88 -35 133 5 65 57 58 151 -18 224
l-41 41 60 -1 c122 0 217 81 218 187 1 111 -66 181 -172 181 -75 0 -119 -24
-149 -83 -28 -55 -22 -94 19 -132 31 -29 67 -35 100 -18 27 15 24 28 -5 23
-37 -7 -80 39 -71 75 12 49 49 77 105 77 42 0 54 -5 81 -31 62 -63 43 -157
-41 -201 -149 -79 -283 51 -209 204 40 82 102 118 288 168 222 59 329 120 401
227 59 89 71 141 68 299 l-3 134 -6 -132z"/>
<path d="M8453 4437 c30 -107 30 -322 -1 -430 -83 -289 -306 -512 -589 -589
-120 -33 -317 -30 -436 6 -140 42 -253 107 -350 201 -27 26 -50 45 -53 42 -9
-8 153 -152 209 -186 140 -83 261 -115 432 -115 160 0 234 17 370 83 172 85
304 216 385 385 62 130 75 189 75 361 0 131 -3 160 -24 228 -31 99 -45 111
-18 14z"/>
<path d="M4327 4443 c-125 -387 67 -819 444 -998 119 -56 215 -77 354 -77 138
0 235 21 352 77 119 56 243 152 296 230 12 19 -2 9 -39 -27 -351 -336 -880
-330 -1199 14 -103 111 -160 215 -202 369 -24 87 -24 310 -1 394 21 72 16 86
-5 18z"/>
<path d="M7812 4448 c-11 -19 -23 -62 -27 -103 -7 -72 -27 -125 -47 -125 -6 0
-9 -3 -6 -6 13 -12 89 21 119 52 41 42 51 119 22 173 -24 46 -37 48 -61 9z"/>
<path d="M4870 4419 c-17 -31 -6 -122 19 -158 24 -33 86 -61 136 -61 l35 0
-30 28 c-16 15 -42 58 -57 96 -19 45 -39 77 -60 93 l-32 24 -11 -22z"/>
<path d="M4375 4344 c-32 -34 -40 -81 -25 -145 17 -71 64 -128 135 -164 50
-25 70 -30 134 -30 42 0 94 4 116 8 l40 8 -42 -31 c-43 -32 -83 -99 -83 -141
0 -34 22 -72 83 -142 62 -71 81 -103 73 -123 -10 -27 -35 -14 -55 29 l-19 42
-1 -57 c-1 -50 2 -59 26 -78 18 -14 37 -20 55 -18 20 3 29 -1 37 -19 12 -27
54 -39 89 -27 13 5 36 24 51 43 l26 34 -32 -16 c-43 -22 -63 -21 -63 3 0 28
28 39 112 45 118 10 137 14 172 46 39 34 57 96 49 164 l-5 40 34 -50 c61 -88
172 -155 258 -155 47 0 124 29 162 60 82 68 69 177 -22 192 -80 13 -122 -98
-44 -118 20 -5 22 -9 12 -21 -21 -25 -66 -43 -110 -43 -48 0 -152 44 -181 77
-18 20 -17 20 21 10 33 -9 46 -7 86 12 45 22 101 85 90 102 -13 22 -73 20
-120 -4 -66 -34 -123 -48 -143 -37 -23 12 -70 100 -103 195 -16 44 -27 69 -24
55 29 -149 29 -159 14 -181 -8 -12 -43 -39 -79 -59 -56 -31 -109 -86 -109
-111 0 -16 101 -10 137 8 39 18 70 61 79 111 10 52 24 18 24 -56 0 -75 -21
-127 -60 -147 -18 -9 -58 -13 -131 -12 -68 1 -112 -3 -126 -11 -21 -12 -24
-10 -38 24 -8 21 -50 70 -92 110 l-76 73 5 51 c4 44 12 58 49 96 24 25 57 53
73 61 l30 16 -27 -33 c-33 -38 -41 -68 -34 -121 5 -42 44 -101 77 -119 17 -9
21 -5 31 29 10 35 9 51 -11 120 -28 97 -23 116 46 164 83 57 105 81 39 43 -33
-19 -95 -47 -138 -61 -106 -35 -116 -28 -167 108 -21 56 -59 93 -86 83 -19 -7
-19 -108 1 -146 8 -15 29 -40 47 -54 l33 -26 -45 6 c-112 16 -197 79 -207 153
l-6 42 27 -12 c23 -11 30 -10 54 8 60 44 23 123 -58 123 -31 0 -47 -6 -65 -26z"/>
<path d="M5315 4175 c-67 -33 -111 -41 -132 -24 -17 13 -17 12 -2 -11 22 -34
87 -70 127 -70 18 0 46 7 61 14 35 19 93 84 88 99 -7 22 -89 17 -142 -8z"/>
<path d="M7378 4123 c-21 -8 -38 -19 -38 -23 0 -15 59 -58 95 -70 68 -22 145
12 181 82 15 29 15 29 -7 17 -21 -11 -142 -8 -180 5 -8 3 -31 -2 -51 -11z"/>
<path d="M8288 4103 c7 -3 16 -2 19 1 4 3 -2 6 -13 5 -11 0 -14 -3 -6 -6z"/>
<path d="M8368 4094 c12 -8 22 -23 23 -32 0 -11 2 -13 6 -4 6 14 -24 52 -41
52 -6 0 0 -7 12 -16z"/>
<path d="M8230 4090 c-18 -12 -2 -12 25 0 13 6 15 9 5 9 -8 0 -22 -4 -30 -9z"/>
<path d="M8211 4063 c-1 -12 80 -83 94 -83 4 0 -13 16 -38 35 -25 19 -47 40
-50 47 -4 9 -6 9 -6 1z"/>
<path d="M8388 4022 c-4 -13 -21 -28 -40 -37 -18 -8 -25 -14 -16 -15 24 0 72
44 66 60 -3 10 -6 7 -10 -8z"/>
<path d="M6270 4016 c0 -2 8 -10 18 -17 15 -13 16 -12 3 4 -13 16 -21 21 -21
13z"/>
<path d="M6388 4013 c6 -2 18 -2 25 0 6 3 1 5 -13 5 -14 0 -19 -2 -12 -5z"/>
<path d="M6345 3990 c-10 -11 -16 -22 -14 -24 2 -2 12 7 22 20 22 29 17 32 -8
4z"/>
<path d="M6446 3988 c10 -14 21 -24 23 -22 3 3 -6 15 -18 27 l-24 22 19 -27z"/>
<path d="M5716 3969 c55 -60 78 -102 94 -168 l16 -65 23 47 c21 42 22 51 10
79 -7 17 -38 50 -73 75 -86 63 -108 73 -70 32z"/>
<path d="M7040 3958 c-69 -48 -110 -92 -110 -119 0 -11 10 -39 22 -62 l21 -42
12 55 c14 67 35 109 82 161 20 22 34 41 32 43 -2 1 -29 -14 -59 -36z"/>
<path d="M4565 3953 c31 -3 55 -10 63 -20 6 -9 12 -12 12 -7 0 22 -27 34 -74
32 l-51 -2 50 -3z"/>
<path d="M4475 3930 c-26 -28 -15 -31 12 -3 12 13 19 23 14 23 -4 0 -16 -9
-26 -20z"/>
<path d="M6510 3936 c0 -2 8 -10 18 -17 15 -13 16 -12 3 4 -13 16 -21 21 -21
13z"/>
<path d="M6599 3923 c-13 -16 -12 -17 4 -4 9 7 17 15 17 17 0 8 -8 3 -21 -13z"/>
<path d="M6331 3923 c-1 -7 8 -22 19 -33 11 -11 26 -20 33 -19 6 0 2 5 -9 11
-12 5 -27 20 -32 32 -6 11 -11 15 -11 9z"/>
<path d="M4587 3865 c-21 -25 -32 -42 -24 -39 12 4 40 37 61 72 13 22 1 12
-37 -33z"/>
<path d="M6430 3885 c-14 -8 -20 -14 -14 -15 5 0 19 7 30 15 24 18 16 19 -16
0z"/>
<path d="M4460 3863 c0 -16 49 -53 69 -53 9 1 2 7 -15 14 -18 8 -37 22 -43 33
-6 10 -11 13 -11 6z"/>
<path d="M4346 3655 c-19 -29 -52 -61 -86 -84 -20 -13 -55 -16 -215 -17 -195
-1 -252 -8 -390 -52 l-60 -19 30 -14 c17 -7 57 -30 90 -50 121 -72 247 -95
365 -65 102 26 198 94 235 166 13 26 55 160 50 160 -1 0 -10 -11 -19 -25z"/>
<path d="M5279 3653 c-13 -16 -12 -17 4 -4 9 7 17 15 17 17 0 8 -8 3 -21 -13z"/>
<path d="M5346 3619 c21 -25 41 -44 44 -42 2 2 -16 23 -40 46 l-44 42 40 -46z"/>
<path d="M8433 3648 c3 -9 11 -36 17 -60 34 -124 123 -207 265 -244 114 -31
234 -10 355 61 41 24 89 49 105 56 l30 12 -60 18 c-144 44 -214 54 -394 52
-199 -2 -220 4 -286 79 -21 24 -35 35 -32 26z"/>
<path d="M7605 3603 c-14 -21 -25 -42 -25 -48 0 -5 12 9 26 33 14 23 32 42 39
42 8 0 23 -17 34 -37 11 -21 20 -33 21 -28 0 19 -40 75 -54 75 -9 0 -27 -17
-41 -37z"/>
<path d="M5261 3604 c0 -11 3 -14 6 -6 3 7 2 16 -1 19 -3 4 -6 -2 -5 -13z"/>
<path d="M7572 3520 c0 -14 2 -19 5 -12 2 6 2 18 0 25 -3 6 -5 1 -5 -13z"/>
<path d="M5260 3523 c0 -6 8 -17 18 -24 16 -13 16 -13 2 6 -8 11 -16 22 -17
24 -2 2 -3 0 -3 -6z"/>
<path d="M5371 3507 c-13 -21 -12 -21 5 -5 10 10 16 20 13 22 -3 3 -11 -5 -18
-17z"/>
<path d="M7700 3506 c0 -42 -67 -60 -104 -28 -21 17 -21 17 -2 -5 24 -29 69
-30 96 -3 18 18 28 50 15 50 -3 0 -5 -6 -5 -14z"/>
<path d="M5313 3483 c9 -2 23 -2 30 0 6 3 -1 5 -18 5 -16 0 -22 -2 -12 -5z"/>
<path d="M5653 3407 c-112 -85 -147 -120 -181 -186 -51 -95 -66 -163 -66 -286
2 -155 56 -361 142 -530 24 -48 25 -53 19 -205 -6 -165 -25 -268 -72 -400 -51
-140 -109 -220 -160 -220 -29 0 -80 57 -96 107 -7 23 -15 149 -19 313 -8 302
-14 337 -71 424 -63 95 -153 141 -350 181 -63 13 -128 27 -145 30 -19 5 1 -12
56 -46 98 -61 201 -161 247 -239 67 -113 74 -203 42 -498 -10 -98 -11 -136 -1
-195 54 -312 340 -447 535 -252 55 54 99 137 133 250 25 80 28 106 28 235 0
129 -3 154 -26 230 -15 47 -25 86 -24 88 6 5 245 -476 320 -641 96 -212 192
-453 249 -627 53 -159 141 -486 158 -582 6 -38 13 -68 16 -68 8 0 -5 180 -23
328 -52 443 -196 882 -388 1185 l-55 88 67 -61 c79 -71 169 -120 223 -120 74
0 129 73 129 172 0 72 -13 113 -81 258 -32 69 -63 149 -68 177 -14 72 3 155
50 250 l38 78 -68 -72 c-80 -84 -134 -186 -152 -285 -16 -88 0 -181 47 -272
50 -99 44 -146 -19 -146 -68 0 -133 68 -257 266 -196 312 -310 600 -310 781
l0 58 34 -51 c69 -102 178 -174 297 -197 142 -26 239 66 285 270 9 40 20 76
25 79 45 27 -101 35 -154 8 -17 -9 -56 -40 -87 -69 -79 -73 -107 -94 -151
-105 -50 -14 -115 13 -151 61 -30 40 -78 133 -78 151 0 26 60 139 129 242 39
58 70 106 69 105 -2 0 -40 -28 -85 -62z"/>
<path d="M7054 3462 c2 -4 38 -58 79 -120 42 -62 85 -137 96 -168 l21 -55 -41
-80 c-43 -83 -76 -114 -134 -130 -48 -14 -109 15 -183 84 -99 94 -124 107
-210 107 -71 0 -74 -1 -60 -17 8 -10 23 -52 33 -93 58 -247 186 -323 385 -229
83 39 134 80 188 154 l45 60 -6 -85 c-7 -101 -42 -225 -103 -370 -65 -157
-215 -416 -317 -548 -70 -92 -174 -133 -198 -78 -10 20 -5 38 29 113 74 159
74 271 2 419 -27 54 -61 104 -105 150 l-65 69 43 -90 c40 -86 42 -94 42 -185
0 -94 0 -96 -54 -205 -73 -151 -91 -207 -91 -282 0 -108 50 -173 132 -173 51
0 125 41 210 114 l78 66 -54 -82 c-226 -348 -390 -910 -411 -1409 l-5 -124 15
80 c23 119 117 460 174 625 60 177 130 353 215 544 64 142 333 686 340 686 1
0 -8 -37 -23 -82 -22 -73 -25 -101 -25 -233 -1 -127 3 -162 22 -228 66 -230
185 -351 342 -351 83 0 143 26 208 91 60 60 98 136 119 239 15 74 15 90 -2
246 -25 233 -19 327 28 421 58 116 159 217 297 295 30 18 53 32 50 32 -28 0
-298 -63 -341 -79 -110 -42 -177 -109 -220 -220 -20 -51 -23 -81 -29 -331 -8
-308 -17 -359 -71 -404 -17 -14 -39 -26 -49 -26 -34 0 -80 52 -119 134 -69
142 -104 295 -116 506 l-7 115 41 88 c168 364 178 670 28 860 -24 32 -238 202
-223 179z"/>
<path d="M8291 3405 c-11 -15 -23 -35 -26 -46 -8 -25 -18 -24 -69 6 -24 14
-46 22 -49 18 -4 -3 -7 -30 -7 -60 l0 -53 -54 0 c-30 0 -57 -4 -60 -9 -3 -5 5
-29 19 -53 14 -23 25 -45 25 -48 0 -3 -20 -16 -45 -30 -25 -14 -45 -30 -45
-36 0 -6 20 -22 45 -35 25 -13 45 -27 45 -30 0 -4 -11 -26 -24 -50 -14 -24
-23 -46 -20 -51 3 -4 30 -8 60 -8 l54 0 0 -54 c0 -30 4 -57 8 -60 5 -3 27 6
51 20 24 13 46 24 50 24 3 0 17 -20 30 -45 13 -25 28 -45 32 -45 5 0 21 19 36
43 15 23 28 44 30 46 1 2 23 -8 49 -23 25 -14 50 -23 55 -20 5 3 9 30 9 60 l0
54 55 0 c63 0 70 13 35 65 -27 40 -25 50 9 65 16 6 37 20 46 30 16 18 14 20
-27 46 -23 16 -45 30 -47 31 -3 2 5 21 17 42 35 62 31 71 -33 71 l-55 0 0 54
c0 30 -4 57 -8 60 -5 3 -27 -6 -51 -20 -24 -13 -46 -24 -50 -24 -3 0 -15 16
-25 35 -30 55 -41 60 -65 30z m44 -65 c14 -27 14 -30 -4 -39 -13 -7 -23 -6
-36 3 -17 12 -17 14 0 39 9 15 19 27 21 27 2 0 10 -13 19 -30z m-105 -45 c0
-22 -17 -34 -38 -28 -17 4 -22 13 -22 40 l0 34 30 -18 c17 -9 30 -22 30 -28z
m230 10 c0 -30 -38 -55 -51 -34 -13 21 -11 37 9 48 28 17 42 12 42 -14z m-180
-33 c0 -13 -12 -22 -22 -16 -10 6 -1 24 13 24 5 0 9 -4 9 -8z m90 -7 c0 -8 -4
-15 -9 -15 -13 0 -22 16 -14 24 11 11 23 6 23 -9z m-230 -50 c0 -36 -28 -44
-51 -14 -26 34 -24 39 16 39 31 0 35 -3 35 -25z m405 -5 c-9 -16 -21 -30 -28
-30 -24 0 -36 16 -30 38 4 17 13 22 39 22 l35 0 -16 -30z m-345 10 c0 -5 -4
-10 -10 -10 -5 0 -10 5 -10 10 0 6 5 10 10 10 6 0 10 -4 10 -10z m250 0 c0 -5
-4 -10 -10 -10 -5 0 -10 5 -10 10 0 6 5 10 10 10 6 0 10 -4 10 -10z m-300 -80
c0 -5 -4 -10 -10 -10 -5 0 -10 5 -10 10 0 6 5 10 10 10 6 0 10 -4 10 -10z
m350 0 c0 -5 -7 -10 -15 -10 -8 0 -15 5 -15 10 0 6 7 10 15 10 8 0 15 -4 15
-10z m-393 -29 c9 -15 9 -23 -1 -37 -13 -17 -15 -17 -41 0 l-28 19 24 18 c30
23 32 23 46 0z m483 -15 c0 -2 -12 -12 -27 -21 -25 -17 -27 -17 -39 0 -9 13
-10 23 -3 36 9 18 12 18 39 4 17 -9 30 -17 30 -19z m-439 -49 c-1 -12 -15 -9
-19 4 -3 6 1 10 8 8 6 -3 11 -8 11 -12z m349 5 c0 -13 -12 -22 -22 -16 -10 6
-1 24 13 24 5 0 9 -4 9 -8z m-362 -75 c3 -25 1 -27 -33 -27 l-36 0 16 31 c20
37 49 36 53 -4z m405 3 l18 -30 -34 0 c-27 0 -36 5 -40 22 -6 21 6 38 28 38 6
0 19 -13 28 -30z m-343 -10 c0 -5 -4 -10 -10 -10 -5 0 -10 5 -10 10 0 6 5 10
10 10 6 0 10 -4 10 -10z m250 0 c0 -5 -4 -10 -10 -10 -5 0 -10 5 -10 10 0 6 5
10 10 10 6 0 10 -4 10 -10z m-173 -56 c-9 -9 -28 6 -21 18 4 6 10 6 17 -1 6
-6 8 -13 4 -17z m93 6 c0 -5 -4 -10 -10 -10 -5 0 -10 5 -10 10 0 6 5 10 10 10
6 0 10 -4 10 -10z m-142 -22 c2 -11 -8 -23 -27 -33 l-31 -16 0 36 c0 34 2 36
27 33 17 -2 29 -10 31 -20z m230 -15 c4 -38 -3 -40 -37 -14 -30 23 -22 54 11
49 18 -2 24 -11 26 -35z m-124 -35 c-18 -34 -19 -34 -41 -2 -16 25 -16 27 1
40 14 10 23 10 36 1 17 -10 17 -13 4 -39z"/>
<path d="M4455 3375 l-26 -45 -43 25 c-61 36 -66 34 -66 -33 l0 -58 -54 0
c-30 1 -57 -2 -61 -6 -4 -4 4 -27 19 -52 14 -24 26 -47 26 -49 0 -3 -20 -17
-45 -31 -25 -15 -45 -31 -45 -37 0 -5 14 -18 31 -27 66 -36 65 -34 34 -86 -34
-58 -26 -69 44 -65 l51 4 0 -57 c0 -67 5 -69 66 -33 l43 25 26 -45 c15 -25 33
-45 41 -45 7 0 21 15 30 33 29 57 31 57 77 31 62 -35 67 -33 67 34 l0 57 45
-3 c67 -6 79 9 49 61 -13 23 -24 45 -24 49 0 3 20 18 45 32 25 15 45 31 45 35
0 5 -20 21 -45 35 -25 15 -45 30 -45 33 0 3 11 26 25 49 l25 43 -21 12 c-13 6
-38 9 -60 5 l-39 -6 0 54 c0 30 -5 58 -10 61 -6 4 -31 -5 -56 -20 -25 -15 -47
-25 -48 -23 -2 1 -13 22 -26 46 -13 23 -29 42 -36 42 -7 0 -24 -20 -39 -45z
m63 -72 c-13 -16 -30 -17 -45 -2 -9 9 -8 19 3 42 l16 30 18 -29 c14 -21 16
-32 8 -41z m-128 9 c27 -22 18 -55 -14 -50 -16 2 -22 11 -24 36 -4 36 6 40 38
14z m247 -14 c-2 -26 -8 -34 -25 -36 -33 -5 -41 27 -13 50 33 26 41 23 38 -14z
m-177 -39 c0 -5 -7 -9 -15 -9 -9 0 -12 6 -9 15 6 15 24 11 24 -6z m90 1 c0 -5
-4 -10 -10 -10 -5 0 -10 5 -10 10 0 6 5 10 10 10 6 0 10 -4 10 -10z m-227 -50
c7 -26 -30 -50 -45 -29 -30 47 -30 49 5 49 26 0 36 -5 40 -20z m57 5 c0 -8 -4
-15 -10 -15 -5 0 -10 7 -10 15 0 8 5 15 10 15 6 0 10 -7 10 -15z m250 0 c0 -8
-4 -15 -10 -15 -5 0 -10 7 -10 15 0 8 5 15 10 15 6 0 10 -7 10 -15z m93 -12
c-9 -16 -18 -29 -19 -31 -1 -2 -11 1 -22 7 -33 18 -17 51 24 51 l34 0 -17 -27z
m-343 -43 c0 -5 -5 -10 -11 -10 -5 0 -7 5 -4 10 3 6 8 10 11 10 2 0 4 -4 4
-10z m-46 -31 c-3 -5 -10 -7 -15 -3 -5 3 -7 10 -3 15 3 5 10 7 15 3 5 -3 7
-10 3 -15z m337 8 c-1 -12 -15 -9 -19 4 -3 6 1 10 8 8 6 -3 11 -8 11 -12z
m-381 -33 c11 -12 10 -18 -3 -31 -14 -15 -20 -15 -42 -3 -31 17 -31 24 -2 38
30 14 33 14 47 -4z m455 4 c32 -14 32 -22 -2 -37 -22 -10 -29 -9 -41 3 -13 12
-13 18 -2 30 15 19 13 19 45 4z m-414 -71 c-13 -13 -26 -3 -16 12 3 6 11 8 17
5 6 -4 6 -10 -1 -17z m349 2 c0 -5 -7 -9 -15 -9 -15 0 -20 12 -9 23 8 8 24 -1
24 -14z m-376 -35 c9 -3 16 -17 16 -30 0 -21 -5 -24 -36 -24 l-35 0 18 30 c9
17 18 30 19 30 1 0 9 -3 18 -6z m418 -24 l17 -30 -33 0 c-40 0 -57 27 -30 47
24 18 27 17 46 -17z m-342 -21 c0 -5 -4 -9 -10 -9 -5 0 -10 7 -10 16 0 8 5 12
10 9 6 -3 10 -10 10 -16z m250 6 c0 -8 -4 -15 -10 -15 -5 0 -10 7 -10 15 0 8
5 15 10 15 6 0 10 -7 10 -15z m-170 -44 c0 -6 -4 -13 -10 -16 -5 -3 -10 1 -10
9 0 9 5 16 10 16 6 0 10 -4 10 -9z m90 -6 c0 -9 -6 -12 -15 -9 -8 4 -12 10 -9
15 8 14 24 10 24 -6z m-145 -12 c6 -17 -25 -53 -46 -53 -10 0 -12 53 -2 63 13
13 41 7 48 -10z m233 -20 c4 -37 3 -38 -33 -21 -39 18 -32 62 10 56 15 -2 21
-12 23 -35z m-120 -6 c8 -9 6 -20 -8 -41 l-18 -29 -16 30 c-11 23 -12 33 -3
42 15 15 32 14 45 -2z"/>
<path d="M4992 3220 c-75 -84 -96 -135 -95 -240 0 -102 23 -171 88 -258 41
-57 61 -72 222 -172 l61 -38 -27 101 c-38 139 -82 241 -148 339 -31 46 -62 97
-69 115 -19 45 -17 104 5 163 11 27 18 50 18 49 -1 0 -26 -27 -55 -59z"/>
<path d="M7745 3264 c38 -90 44 -142 23 -191 -7 -15 -34 -61 -61 -101 -83
-126 -139 -259 -181 -434 l-6 -27 42 28 c24 15 66 40 95 56 140 75 234 227
236 380 0 104 -24 165 -96 243 -33 36 -57 56 -52 46z"/>
<path d="M6349 3112 c-108 -69 -138 -145 -79 -204 27 -27 35 -29 73 -24 57 8
68 8 100 0 62 -15 125 45 112 107 -9 39 -49 86 -104 121 -25 15 -48 28 -51 28
-3 0 -26 -13 -51 -28z m89 -21 c50 -26 90 -70 98 -108 5 -27 1 -37 -24 -63
-32 -31 -60 -37 -94 -19 -14 8 -28 7 -48 -1 -59 -25 -125 41 -98 97 11 23 110
113 124 113 3 0 21 -9 42 -19z"/>
<path d="M9030 2485 c-367 -73 -629 -435 -580 -801 39 -298 231 -525 520 -616
64 -20 95 -23 210 -22 118 0 145 4 215 27 117 39 199 91 295 187 145 144 210
302 210 508 0 165 -41 296 -134 425 -166 233 -456 348 -736 292z"/>
<path d="M3602 2391 c-40 -10 -112 -38 -160 -61 -71 -35 -104 -60 -178 -134
-74 -75 -99 -107 -136 -183 -63 -126 -82 -214 -76 -361 4 -88 11 -136 31 -195
118 -363 505 -577 872 -482 33 8 103 36 155 62 79 38 110 61 181 132 71 71 94
102 132 181 26 52 54 124 64 160 22 87 22 253 -1 345 -22 92 -84 215 -145 291
-93 115 -262 218 -406 249 -94 20 -242 18 -333 -4z"/>
</g>
</svg>
