<?xml version="1.0" standalone="no"?>
<!DOCTYPE svg PUBLIC "-//W3C//DTD SVG 20010904//EN"
 "http://www.w3.org/TR/2001/REC-SVG-20010904/DTD/svg10.dtd">
<svg version="1.0" xmlns="http://www.w3.org/2000/svg"
 width="1276.000000pt" height="1280.000000pt" viewBox="0 0 1276.000000 1280.000000"
 preserveAspectRatio="xMidYMid meet">
<metadata>
Created by potrace 1.15, written by Peter Selinger 2001-2017
</metadata>
<g transform="translate(0.000000,1280.000000) scale(0.100000,-0.100000)"
fill="#000000" stroke="none">
<path d="M6740 12668 c0 -29 -60 -137 -107 -193 -27 -33 -117 -112 -199 -176
-156 -122 -247 -210 -288 -282 -26 -46 -70 -155 -80 -201 -17 -73 -55 -126
-192 -267 -159 -163 -196 -221 -216 -339 -23 -132 22 -274 119 -375 26 -28 91
-84 143 -126 52 -42 106 -88 119 -102 l23 -26 -21 -29 c-11 -17 -25 -40 -29
-52 -8 -21 -10 -20 -35 22 -15 25 -47 67 -72 92 -25 26 -45 50 -45 55 0 4 -6
8 -12 8 -7 0 -56 27 -109 60 -95 58 -97 60 -83 84 7 13 13 29 13 34 0 6 -7 -2
-15 -17 -8 -16 -21 -28 -29 -28 -8 0 -41 25 -74 56 -79 73 -113 142 -119 246
-7 126 19 188 158 363 71 91 124 185 135 240 4 20 0 15 -13 -17 -21 -51 -72
-118 -193 -253 -130 -146 -173 -260 -151 -402 16 -102 54 -176 130 -253 40
-41 60 -69 55 -76 -80 -111 -93 -141 -93 -214 0 -61 23 -127 60 -172 16 -19
70 -63 119 -97 93 -64 127 -98 137 -137 5 -19 -8 -39 -62 -101 -38 -43 -81
-93 -95 -112 l-27 -34 -37 23 c-33 20 -36 26 -31 54 24 114 15 180 -37 279
-41 78 -92 120 -217 179 -203 95 -226 112 -267 196 -23 46 -28 70 -28 127 0
79 13 117 84 234 50 84 91 176 90 206 0 11 -8 -4 -19 -33 -10 -29 -47 -92 -81
-140 -112 -157 -140 -238 -119 -345 26 -134 91 -208 262 -298 103 -54 188
-122 188 -151 0 -8 -16 -37 -35 -64 -56 -78 -58 -145 -8 -205 l25 -30 -23 -33
-23 -34 -35 23 c-20 13 -56 31 -81 41 -130 50 -162 131 -100 247 41 78 38 85
-6 12 -78 -129 -53 -220 80 -287 62 -31 106 -64 106 -81 0 -5 -9 -21 -19 -36
-17 -24 -36 -66 -55 -125 -6 -18 -7 -18 -30 3 -20 19 -23 32 -23 84 1 119 -65
196 -207 241 -85 27 -141 60 -130 77 3 5 0 8 -7 7 -6 -2 -21 12 -32 31 -32 52
-27 111 16 209 53 118 46 122 -13 7 -60 -116 -65 -171 -26 -249 20 -39 23 -57
18 -111 -4 -57 -2 -69 20 -102 14 -21 36 -43 49 -50 13 -6 54 -25 90 -42 52
-24 70 -39 83 -65 22 -46 21 -53 -19 -140 -19 -43 -35 -86 -35 -97 0 -19 -15
-27 -22 -10 -1 5 -22 18 -46 29 -29 14 -40 16 -32 6 7 -7 19 -14 26 -14 8 0
23 -9 34 -20 18 -18 18 -22 5 -59 -7 -21 -11 -42 -8 -45 13 -13 21 -5 21 20 0
14 5 31 11 37 8 8 11 4 11 -17 0 -31 -3 -31 76 1 l41 17 -1 56 c-1 41 6 71 28
120 39 86 41 88 61 50 16 -31 16 -34 -11 -85 -24 -49 -34 -98 -22 -111 13 -12
38 11 38 35 0 15 7 36 15 47 13 18 14 17 15 -18 0 -21 3 -38 6 -38 4 0 41 12
84 26 l77 26 -8 37 c-15 62 4 121 78 249 l25 42 19 -37 c10 -20 19 -40 19 -44
0 -3 -18 -33 -40 -65 -43 -63 -65 -123 -55 -154 5 -16 10 -17 35 -8 22 7 30
16 30 34 0 14 10 44 23 67 l22 42 3 -63 c2 -34 7 -60 12 -57 4 3 50 14 102 25
104 23 109 24 228 41 50 7 88 18 93 25 10 17 37 19 37 3 0 -8 31 -9 113 -3 61
4 162 7 223 5 64 -2 114 1 118 7 3 6 21 6 48 0 24 -5 104 -18 178 -29 74 -10
160 -24 190 -30 114 -23 108 -23 122 6 10 21 135 116 188 143 6 2 44 -58 38
-62 -1 -1 -22 -14 -44 -28 -44 -28 -90 -91 -79 -108 3 -5 14 -10 24 -10 10 0
39 -7 66 -16 l48 -17 20 27 c11 15 50 42 88 61 84 43 120 87 127 155 4 42 -1
59 -32 120 l-37 71 68 67 c78 76 125 157 148 253 37 158 4 293 -110 455 -30
41 -46 77 -53 115 -14 74 -45 154 -87 224 -20 32 -34 59 -33 61 2 1 30 22 64
47 34 25 71 60 84 78 l23 34 -39 -37 c-41 -38 -131 -98 -147 -98 -16 0 2 81
32 146 42 89 107 147 273 241 154 88 221 140 268 208 43 62 37 66 -10 7 -52
-67 -101 -99 -282 -186 -84 -40 -176 -91 -204 -113 -54 -43 -113 -124 -135
-185 -12 -36 -14 -37 -32 -20 -11 9 -32 33 -48 53 l-29 37 110 71 c126 81 179
127 221 187 38 55 38 69 0 17 -43 -59 -88 -92 -232 -172 l-130 -71 -20 22
c-43 51 -99 142 -121 196 -20 49 -23 74 -22 182 l0 125 46 95 c57 120 116 179
293 300 176 119 242 171 292 231 46 55 97 140 107 179 4 14 -7 0 -23 -30 -63
-117 -140 -184 -361 -310 -296 -169 -376 -249 -440 -443 -25 -77 -30 -84 -81
-120 -219 -152 -277 -212 -319 -325 -27 -76 -41 -102 -54 -102 -6 0 -43 33
-83 74 -167 170 -206 391 -107 596 33 68 57 95 244 280 190 188 211 211 243
280 34 73 55 140 43 140 -3 0 -6 -6 -6 -12z m-669 -1048 c22 -144 75 -244 205
-380 l77 -80 -7 -49 c-8 -64 15 -176 50 -241 15 -27 69 -96 121 -152 90 -100
93 -104 88 -141 -8 -59 -51 -135 -113 -199 -66 -69 -199 -174 -209 -164 -4 4
-6 46 -4 94 3 104 -10 166 -51 250 l-31 63 44 47 c73 77 79 92 9 24 -39 -38
-68 -58 -73 -53 -6 6 -2 20 10 38 35 50 36 59 3 20 l-32 -38 -38 35 c-21 19
-80 62 -131 97 -130 87 -200 156 -235 232 -25 54 -29 74 -29 152 0 80 3 97 31
155 18 36 57 94 88 130 118 136 187 226 199 259 l12 35 2 -30 c2 -16 8 -63 14
-104z m740 47 c-11 -17 -35 -46 -53 -63 -43 -41 -200 -155 -206 -150 -6 7 53
88 90 123 84 80 183 153 186 138 2 -8 -6 -30 -17 -48z m59 -227 c17 -41 52
-110 80 -152 l50 -77 -29 -58 c-69 -134 -67 -284 4 -408 12 -22 28 -64 34 -93
13 -61 49 -136 97 -205 19 -26 34 -51 34 -55 0 -4 -19 -24 -43 -44 -46 -38
-157 -112 -157 -104 0 3 7 31 15 63 41 159 -4 336 -119 469 -24 27 -49 67 -56
89 -28 88 -76 161 -172 260 l-98 100 0 58 c0 32 4 66 10 76 5 10 59 60 120
112 61 51 128 116 148 143 l37 51 8 -75 c5 -40 21 -108 37 -150z m280 -430 c0
-3 -16 -22 -36 -41 -20 -18 -49 -56 -64 -82 l-28 -49 -10 34 c-27 85 -21 192
15 261 l14 29 55 -73 c30 -40 54 -75 54 -79z m-627 -53 c62 -93 83 -132 91
-172 6 -27 -2 -21 -72 51 -83 85 -122 158 -122 227 l1 32 25 -30 c14 -16 48
-65 77 -108z m682 -37 c31 -62 55 -151 55 -207 0 -49 -19 -143 -28 -142 -4 0
-42 44 -85 97 -75 92 -79 99 -73 135 4 22 13 52 21 68 15 27 73 99 81 99 2 0
15 -22 29 -50z m-1536 -265 c109 -76 107 -73 61 -129 -56 -67 -72 -138 -51
-213 l10 -33 -39 20 c-157 80 -197 242 -94 377 14 18 27 33 30 33 3 0 41 -25
83 -55z m142 -117 c44 -52 72 -122 77 -193 4 -68 -11 -155 -27 -155 -16 0
-102 63 -121 89 -31 45 -44 109 -31 157 10 38 64 124 77 124 3 0 14 -10 25
-22z m282 -1 c3 -8 1 -20 -4 -28 -18 -29 -10 -132 16 -186 28 -61 20 -68 -23
-18 -53 59 -64 132 -32 203 19 43 34 53 43 29z m1372 -89 c12 -43 15 -79 11
-115 -10 -82 -19 -97 -81 -127 -31 -16 -58 -26 -60 -24 -2 2 -5 21 -6 43 -2
30 5 53 29 90 17 28 41 83 54 122 13 40 26 73 29 73 4 0 14 -28 24 -62z
m-1330 -43 c8 -62 -9 -40 -20 25 -5 31 -4 42 3 35 6 -5 13 -32 17 -60z m-75
-250 c-51 -66 -66 -78 -56 -44 5 13 15 55 24 92 l16 68 30 -30 29 -30 -43 -56z
m591 33 c-17 -24 -46 -54 -63 -69 -100 -78 -103 -74 -13 16 55 56 102 100 104
99 2 -2 -11 -22 -28 -46z m789 14 c0 -12 -30 -54 -69 -94 -36 -39 -53 -48 -47
-25 3 6 7 24 10 40 8 35 106 109 106 79z m-2030 -87 c15 -53 8 -130 -15 -175
-14 -26 -19 -29 -31 -19 -28 23 -46 71 -41 108 4 34 55 131 68 131 4 0 12 -20
19 -45z m-525 -208 c122 -57 126 -59 158 -99 21 -27 31 -51 35 -88 2 -27 0
-50 -5 -50 -19 0 -33 25 -34 60 -1 23 -3 27 -6 13 -5 -24 -22 -30 -39 -14 -5
5 -38 18 -74 30 -82 27 -103 41 -125 87 -16 34 -14 111 3 102 4 -2 43 -21 87
-41z m693 -82 c1 -2 -3 -14 -9 -29 -13 -28 -29 -35 -29 -12 0 7 -9 25 -21 40
-29 37 -15 51 24 24 18 -12 33 -22 35 -23z m1792 -33 c1 -57 -40 -109 -112
-139 -24 -11 -28 -9 -53 28 -24 37 -25 43 -13 75 10 28 26 43 83 74 l70 39 12
-27 c7 -15 12 -37 13 -50z m-1870 -37 c0 -17 -2 -17 -10 -5 -5 8 -10 24 -10
35 0 17 2 17 10 5 5 -8 10 -24 10 -35z m1902 -82 c-6 -10 -21 -27 -33 -38 -19
-16 -18 -14 4 13 15 19 27 38 27 44 0 6 3 9 6 6 3 -4 1 -15 -4 -25z"/>
<path d="M5732 11775 c0 -16 2 -22 5 -12 2 9 2 23 0 30 -3 6 -5 -1 -5 -18z"/>
<path d="M3777 11520 c6 -93 -9 -154 -86 -349 -32 -80 -64 -170 -70 -199 -32
-154 7 -305 113 -435 l44 -54 -26 -74 c-22 -61 -26 -92 -27 -175 l0 -101 -33
14 c-86 36 -166 45 -392 47 -179 1 -230 4 -248 16 -37 23 -108 124 -133 188
-29 73 -31 225 -5 396 23 150 18 286 -12 370 -32 87 -43 90 -14 4 21 -64 24
-85 19 -168 -3 -53 -20 -155 -37 -230 -55 -230 -51 -351 15 -481 l26 -51 -42
23 c-56 32 -128 97 -164 150 -25 35 -31 55 -37 128 -4 52 -17 115 -33 160
l-27 74 21 171 c25 201 26 258 7 346 -14 64 -59 180 -71 180 -3 0 1 -13 9 -28
26 -50 46 -148 46 -223 0 -74 -10 -143 -50 -334 -41 -198 -36 -315 17 -440 24
-56 26 -70 27 -235 l1 -175 37 -78 c72 -150 219 -261 378 -287 36 -5 128 -10
205 -10 144 0 252 -12 289 -32 12 -7 26 -13 33 -14 21 -4 67 -41 112 -89 53
-57 87 -132 96 -207 l7 -58 -44 0 c-48 0 -65 10 -93 55 -10 17 -36 51 -57 77
l-40 46 4 81 c2 45 0 81 -3 81 -4 0 -10 -31 -14 -70 -4 -38 -9 -70 -12 -70 -3
0 -17 8 -31 19 -47 32 -108 60 -215 96 -177 60 -258 62 -551 11 l-149 -26 -41
21 c-23 11 -60 36 -82 55 -41 33 -42 34 -49 116 -11 137 -45 247 -95 303 -13
15 -19 46 -25 130 -3 61 -11 133 -17 160 -13 65 -59 161 -98 205 -30 34 -30
34 3 -15 68 -99 72 -119 72 -420 1 -309 9 -350 85 -459 23 -32 38 -61 35 -64
-10 -10 -111 47 -159 89 l-43 38 -12 108 c-18 162 -38 227 -94 311 -25 38 -29
56 -37 155 -14 174 -55 294 -130 377 l-31 35 25 -35 c37 -52 74 -138 87 -201
6 -31 10 -151 10 -281 -1 -163 2 -246 13 -296 15 -73 59 -169 98 -218 16 -19
28 -53 36 -103 27 -164 126 -293 280 -368 l83 -41 -53 -12 c-29 -7 -111 -33
-183 -57 -133 -45 -239 -73 -286 -73 -24 0 -27 5 -39 63 -43 213 -74 297 -141
368 l-40 44 35 -47 c19 -26 44 -73 56 -105 20 -53 65 -312 56 -321 -8 -8 -133
30 -186 56 -66 33 -158 116 -198 180 -48 75 -68 138 -112 347 -57 275 -89 352
-184 449 -28 29 -39 38 -24 22 92 -107 129 -216 158 -462 11 -98 28 -208 36
-244 22 -89 75 -195 130 -258 90 -103 247 -191 370 -207 43 -6 52 -11 63 -37
7 -16 28 -49 47 -73 l33 -44 -52 -16 c-183 -55 -363 -11 -498 124 -76 76 -115
150 -154 291 -15 52 -38 136 -51 185 -44 161 -110 277 -196 344 l-43 35 52
-56 c88 -95 126 -187 163 -407 47 -269 90 -374 199 -481 160 -157 366 -206
607 -145 54 14 100 25 101 25 10 0 34 -71 53 -155 12 -55 28 -114 35 -132 10
-24 11 -34 2 -41 -26 -21 -273 -142 -295 -144 -20 -3 -27 6 -51 67 -33 84 -67
140 -112 180 l-33 30 32 -38 c17 -21 40 -54 51 -75 25 -51 64 -172 57 -179
-13 -13 -106 -14 -161 -3 -45 9 -66 20 -85 42 -14 17 -47 53 -74 82 -29 30
-34 34 -13 9 38 -44 61 -82 55 -89 -9 -8 -103 67 -136 108 -38 49 -90 153
-122 248 -42 125 -100 232 -159 293 -31 32 -65 63 -76 69 -11 6 -2 -5 19 -23
61 -51 113 -142 147 -253 94 -309 114 -352 204 -446 68 -70 91 -110 131 -223
75 -207 149 -290 305 -338 34 -11 83 -19 111 -19 64 0 176 38 279 95 45 25 85
45 89 45 4 0 27 -11 51 -24 79 -43 139 -43 251 0 l47 18 27 -24 c14 -14 37
-43 50 -66 26 -45 104 -231 104 -248 0 -6 -15 -18 -33 -26 -31 -14 -34 -14
-81 18 -66 44 -143 65 -225 60 -100 -6 -170 -44 -331 -179 -14 -11 -49 -32
-79 -46 -46 -22 -63 -25 -131 -21 -124 7 -182 51 -280 213 -55 91 -94 139
-133 167 -27 18 -25 14 14 -28 26 -28 71 -99 102 -160 65 -126 117 -186 196
-223 47 -22 70 -26 146 -26 82 0 96 3 154 33 35 17 67 32 71 32 4 0 15 -18 25
-40 25 -55 94 -117 140 -126 67 -12 122 3 198 53 74 50 120 73 143 73 11 0 64
-86 64 -103 0 -3 -17 -5 -38 -5 -55 -1 -80 -13 -160 -81 -111 -92 -185 -94
-259 -5 -21 25 -53 62 -71 82 l-33 37 34 -50 c19 -27 42 -62 51 -77 l17 -26
-48 14 c-62 19 -212 22 -283 5 -30 -8 -77 -25 -104 -38 -26 -13 -54 -22 -62
-19 -7 3 -11 0 -8 -7 2 -7 -9 -20 -25 -30 -17 -10 -79 -70 -138 -134 -160
-173 -212 -221 -278 -253 -127 -63 -263 -63 -394 1 -51 25 -86 54 -156 127
-225 238 -268 278 -336 310 -84 40 -112 42 -33 2 77 -38 143 -105 272 -274
174 -229 286 -296 493 -296 154 0 264 50 406 183 172 162 195 182 239 211 l44
28 50 -55 c28 -31 60 -59 71 -62 24 -8 25 -25 0 -25 -42 0 -153 -43 -210 -81
-71 -47 -267 -256 -347 -369 -29 -41 -68 -85 -87 -98 -96 -64 -241 -87 -357
-58 -95 24 -158 67 -302 203 -173 164 -261 222 -363 238 -31 5 -25 1 26 -17
92 -33 158 -86 294 -238 130 -145 188 -196 269 -234 78 -37 143 -48 251 -44
l94 3 -46 -47 c-86 -87 -202 -132 -343 -131 -147 0 -262 55 -425 203 -116 106
-221 187 -274 215 -59 30 -156 58 -179 52 -12 -3 -11 -5 6 -6 32 -1 118 -39
172 -74 25 -17 126 -109 225 -206 153 -150 191 -182 255 -214 196 -98 423 -83
600 37 82 56 115 90 253 262 123 152 202 222 287 256 45 19 75 23 170 23 105
0 120 -2 173 -27 64 -30 168 -108 216 -163 l31 -35 -63 -98 c-80 -123 -121
-154 -212 -160 -75 -5 -121 13 -200 79 -58 49 -134 99 -149 99 -6 0 5 -10 24
-21 19 -12 66 -51 105 -87 94 -87 157 -116 239 -110 102 9 157 48 256 181 23
31 45 57 48 57 3 0 30 -24 61 -53 31 -29 72 -65 91 -80 29 -22 31 -27 15 -27
-11 0 -36 9 -55 20 l-35 21 28 -26 c15 -14 38 -26 50 -26 12 -1 29 -2 37 -3 8
-1 49 -18 90 -37 88 -43 137 -56 246 -65 l81 -7 -2 99 c-2 100 -11 171 -25
189 -4 6 -7 25 -8 43 -1 109 1 102 -35 102 -48 0 -147 28 -182 51 -16 12 -21
18 -10 14 54 -20 152 -45 176 -45 33 0 38 23 38 158 0 84 -1 92 -19 92 -10 0
-22 4 -25 10 -3 6 -24 10 -45 10 -40 0 -90 17 -90 31 0 11 42 39 58 39 7 0 31
-18 53 -40 40 -40 69 -51 69 -27 0 8 -11 19 -25 25 -14 6 -25 16 -25 20 0 5
11 7 25 4 23 -4 25 -1 25 34 0 22 3 49 6 61 5 18 0 23 -33 32 -21 6 -48 18
-61 26 -34 25 -123 135 -117 146 13 20 66 9 88 -17 92 -110 119 -127 130 -83
4 14 -1 22 -17 29 -20 7 -55 40 -43 40 3 0 17 -4 31 -10 31 -12 37 -3 41 58 2
26 8 67 14 92 18 76 15 86 -27 98 -54 16 -101 69 -206 231 -36 57 -44 76 -34
82 27 18 47 8 82 -41 19 -27 58 -66 86 -87 27 -20 50 -40 50 -44 0 -9 64 -49
78 -49 6 0 14 21 17 48 7 45 41 162 91 305 13 38 24 70 24 72 0 3 -19 14 -42
26 -51 25 -104 73 -124 111 -23 44 -16 44 29 2 23 -23 59 -54 81 -70 37 -27
39 -28 53 -9 7 11 19 20 24 20 6 0 21 25 33 55 13 30 35 78 49 107 15 29 27
57 27 62 0 6 15 34 34 63 53 83 53 90 3 126 -38 27 -45 38 -56 89 -16 68 -34
106 -71 149 -18 20 -31 53 -39 94 -7 34 -15 68 -18 76 -3 10 2 14 18 14 53 0
67 -10 79 -58 6 -26 27 -76 45 -112 19 -36 39 -84 46 -107 11 -39 62 -113 78
-113 9 0 46 61 46 77 0 7 18 33 40 58 22 26 51 63 65 83 47 69 110 151 120
157 6 4 -8 27 -34 56 -54 60 -84 134 -90 226 -5 59 -4 62 4 28 18 -73 43 -129
86 -197 l43 -68 43 30 c43 29 133 126 133 144 0 5 7 12 16 15 9 3 51 39 95 79
67 63 76 76 66 90 -7 10 -26 45 -43 80 -27 54 -31 73 -31 145 0 45 5 119 12
165 12 80 13 82 40 82 19 0 30 -7 38 -24 6 -14 28 -30 54 -40 l43 -17 -6 -77
c-4 -42 -10 -92 -14 -110 -7 -31 10 -118 25 -127 8 -5 128 78 179 124 19 17
39 31 45 31 6 0 32 14 59 30 l47 30 -15 30 c-21 40 -19 107 6 182 14 42 22 95
24 158 2 58 11 126 25 175 63 231 19 424 -130 576 -98 100 -191 141 -400 179
-150 26 -225 47 -280 76 -75 39 -80 46 -82 105 -1 50 -2 51 -5 12 -2 -24 -8
-43 -14 -43 -5 0 -27 27 -49 61 -94 146 -98 250 -19 499 46 148 52 177 56 275
3 61 0 121 -5 135 -7 18 -8 4 -5 -50z m-1142 -870 c3 -25 8 -60 11 -77 9 -57
-13 -36 -25 24 -14 71 -15 134 -1 113 5 -8 12 -35 15 -60z m1287 -249 c35 -16
105 -39 157 -52 51 -13 96 -29 98 -36 3 -6 -14 -66 -37 -133 -35 -101 -42
-131 -38 -176 l5 -54 -41 7 c-75 12 -91 19 -89 39 5 38 11 128 7 104 -9 -52
-27 -110 -35 -110 -4 0 -36 21 -71 48 -108 81 -138 180 -103 339 9 43 19 81
22 86 2 4 17 -2 33 -13 16 -12 58 -34 92 -49z m350 -107 c93 -34 134 -60 191
-123 78 -88 110 -205 87 -326 l-12 -66 -32 7 c-17 4 -54 28 -83 54 -55 50
-123 82 -216 100 -64 13 -77 29 -77 98 0 30 60 282 67 282 1 0 35 -12 75 -26z
m-1401 -163 c35 -17 99 -40 141 -50 42 -11 89 -26 105 -34 59 -31 167 -57 276
-67 179 -17 279 -30 301 -42 99 -50 187 -220 185 -358 0 -55 0 -55 -17 -30
-65 95 -176 178 -286 213 -64 20 -86 22 -226 18 -285 -8 -342 -6 -401 12 -110
33 -224 144 -265 257 -9 25 -19 91 -22 150 l-5 105 75 -71 c46 -43 101 -84
139 -103z m-792 -86 c19 -60 39 -255 27 -255 -4 0 -19 25 -32 55 -28 62 -53
183 -53 260 l-1 50 20 -25 c11 -14 28 -52 39 -85z m252 -58 c18 -41 23 -74 26
-157 l3 -105 -29 60 c-30 62 -51 161 -51 235 0 35 2 40 14 31 8 -6 24 -35 37
-64z m1861 -161 c22 -20 67 -42 108 -55 67 -22 70 -23 95 -76 14 -30 25 -70
25 -91 0 -35 -1 -36 -17 -22 -31 27 -77 46 -128 53 -103 13 -100 12 -118 68
-9 29 -32 79 -52 111 l-35 59 41 -7 c26 -4 56 -19 81 -40z m88 -258 c54 -17
79 -37 98 -81 17 -39 17 -43 -3 -101 -11 -34 -20 -62 -20 -63 -1 -1 -23 9 -50
22 -26 14 -54 25 -62 25 -7 0 -14 8 -14 18 -1 16 -2 16 -6 0 -2 -10 -14 -18
-25 -18 -19 0 -20 4 -14 46 3 26 6 75 6 111 l0 63 28 -6 c15 -3 43 -11 62 -16z
m-2050 -33 c28 -19 74 -43 102 -52 28 -10 52 -25 55 -33 16 -51 31 -79 69
-131 l43 -58 -44 14 c-121 36 -225 139 -275 270 -5 14 -8 25 -6 25 2 0 27 -16
56 -35z m444 -106 c68 -9 133 -8 266 2 96 7 187 9 201 6 14 -4 51 -23 82 -44
52 -34 57 -40 57 -74 l0 -38 -32 11 c-153 48 -241 48 -460 -2 l-138 -31 -39
20 c-21 11 -53 32 -71 48 -32 26 -90 99 -90 112 0 9 112 4 224 -10z m676 -163
c0 -4 -9 -2 -20 4 -11 6 -20 20 -20 32 0 20 1 19 20 -5 11 -14 20 -28 20 -31z
m941 34 c13 -10 19 -19 13 -20 -7 0 -22 9 -35 20 -13 10 -19 19 -13 20 7 0 22
-9 35 -20z m-531 -130 c0 -36 -3 -40 -24 -40 -28 0 -31 3 -41 48 -6 31 -6 32
29 32 35 0 36 -1 36 -40z m-577 -16 c118 -61 207 -200 207 -324 l0 -38 -76
-17 c-41 -9 -76 -15 -77 -13 -1 1 -14 28 -29 58 -61 121 -196 250 -310 296
-27 10 -48 22 -48 25 0 7 160 25 243 27 37 1 70 -4 90 -14z m557 -139 c0 -25
-4 -45 -10 -45 -5 0 -10 20 -10 45 0 25 5 45 10 45 6 0 10 -20 10 -45z m-1035
-27 c22 -5 60 -20 85 -33 52 -26 150 -102 150 -116 0 -16 -111 2 -205 34 -76
26 -106 30 -190 31 -116 0 -180 -15 -340 -79 l-110 -44 -32 25 c-28 21 -73 75
-73 87 0 2 30 7 68 11 37 4 139 25 227 47 235 60 308 66 420 37z m-298 -264
c-3 -3 -12 -4 -19 -1 -8 3 -5 6 6 6 11 1 17 -2 13 -5z m983 -36 c0 -18 3 -63
7 -100 l6 -68 -51 0 -50 0 -16 73 c-9 39 -19 82 -22 94 -7 24 7 29 84 32 41 1
42 0 42 -31z m-638 -29 c86 -56 152 -152 182 -267 l14 -50 -37 -5 c-20 -2 -42
0 -49 6 -22 17 -51 82 -63 139 -6 29 -16 60 -21 68 -7 12 -8 11 -4 -5 2 -11
10 -51 16 -90 7 -38 19 -80 26 -92 8 -12 14 -26 14 -31 0 -19 -41 -20 -75 -2
-20 10 -49 23 -66 29 -18 6 -33 21 -39 38 -6 15 -15 37 -20 48 l-11 20 6 -20
c4 -11 9 -32 12 -47 l5 -26 -43 10 c-60 14 -192 3 -261 -21 l-56 -19 -20 46
c-11 26 -32 85 -47 132 -14 47 -33 95 -41 108 -17 26 -21 26 58 6 83 -22 191
-14 328 25 58 16 114 30 124 30 11 1 41 -13 68 -30z m218 -440 c0 -30 -28 -34
-56 -9 -33 32 -31 36 16 32 32 -3 40 -8 40 -23z m-415 12 c17 -7 14 -9 -15
-14 -33 -6 -105 4 -117 17 -9 9 109 6 132 -3z m-79 -71 c53 -11 117 -6 189 15
14 4 32 -4 60 -28 l39 -34 -53 -7 c-80 -11 -135 -32 -252 -97 -58 -32 -112
-59 -120 -59 -8 0 -22 20 -32 44 -10 24 -26 51 -36 60 -12 11 -8 -2 12 -44 22
-43 27 -64 19 -72 -18 -18 -151 -5 -203 20 -51 25 -134 102 -122 113 5 4 26
12 48 19 21 7 99 39 173 71 l134 57 44 -23 c25 -13 70 -29 100 -35z m514 -31
c0 -6 -4 -7 -10 -4 -5 3 -10 11 -10 16 0 6 5 7 10 4 6 -3 10 -11 10 -16z
m-1300 -123 c17 -45 47 -105 67 -133 59 -88 190 -161 292 -164 l36 -1 -43 -11
c-33 -8 -57 -6 -109 7 -138 34 -186 81 -289 287 l-69 136 42 -20 c39 -19 45
-28 73 -101z m250 32 c76 -103 166 -161 270 -176 l55 -7 -38 -23 c-136 -80
-290 -65 -402 39 -47 43 -81 94 -109 160 l-15 35 112 -4 c98 -3 114 -6 127
-24z m836 -48 c45 -17 19 -22 -32 -6 -37 11 -43 15 -22 15 15 1 39 -4 54 -9z
m74 -41 c0 -6 -7 -6 -20 1 -11 6 -20 15 -20 21 0 6 7 6 20 -1 11 -6 20 -15 20
-21z m-188 -157 c15 -15 -54 -42 -107 -42 -45 0 -105 17 -105 30 0 26 188 36
212 12z m-43 -451 c26 -37 78 -61 130 -61 30 0 43 -5 51 -19 8 -17 6 -20 -21
-26 -16 -4 -58 -29 -92 -57 -147 -120 -237 -114 -328 19 -17 25 -27 48 -23 52
80 66 182 116 246 120 9 1 26 -12 37 -28z m88 -2 c53 -26 55 -39 6 -29 -45 8
-83 27 -83 40 0 16 31 11 77 -11z m200 -326 c24 -11 49 -37 74 -77 l39 -61
-42 -3 c-24 -2 -48 -8 -54 -13 -8 -6 -29 2 -63 25 -32 22 -75 40 -113 47 l-61
12 29 24 c76 62 130 75 191 46z m-139 -177 c15 -8 36 -23 46 -35 19 -21 19
-21 -19 -21 -30 0 -47 7 -74 33 l-34 32 21 -31 c26 -38 72 -59 111 -51 27 6
32 1 71 -58 23 -36 60 -80 81 -100 41 -37 46 -45 27 -45 -6 0 -22 -10 -34 -21
-22 -20 -25 -21 -47 -6 -14 9 -60 55 -103 103 -44 49 -106 116 -138 151 l-59
63 62 0 c34 0 74 -6 89 -14z m-475 -21 c32 -8 72 -22 88 -31 30 -15 30 -16 12
-36 -29 -34 -93 -58 -153 -58 -43 0 -66 7 -106 29 -43 25 -93 77 -82 86 2 1
21 7 43 13 59 15 133 14 198 -3z m208 -132 c39 -41 129 -158 129 -167 0 -3
-20 9 -45 28 -54 41 -134 81 -200 97 l-48 12 46 23 c25 13 48 28 52 34 11 18
31 10 66 -27z"/>
<path d="M9670 11055 c-74 -79 -180 -113 -425 -138 -190 -20 -270 -44 -355
-108 -69 -53 -122 -73 -235 -90 -188 -28 -291 -81 -358 -182 -72 -109 -88
-234 -47 -369 11 -38 29 -98 40 -134 l19 -65 -35 -31 c-39 -34 -74 -95 -74
-128 0 -15 -11 -26 -37 -36 -70 -29 -113 -85 -113 -147 l0 -35 -67 -12 c-38
-6 -75 -14 -83 -16 -11 -3 -19 10 -27 46 -12 48 -11 53 16 95 33 52 56 149 47
198 -6 32 -4 36 21 46 l28 10 -28 -2 c-24 -2 -31 4 -42 31 -14 32 -14 33 18
47 23 11 25 13 7 9 -14 -4 -30 -8 -35 -11 -6 -2 -30 36 -55 84 -67 134 -68
228 0 321 30 41 89 75 245 138 39 16 84 42 101 59 16 16 21 23 10 14 -36 -29
-99 -56 -179 -78 -153 -42 -226 -98 -267 -207 -30 -81 -24 -152 25 -269 21
-52 32 -91 26 -93 -24 -8 -60 -44 -75 -76 -21 -45 -20 -105 3 -166 l19 -51
-21 -13 c-12 -8 -74 -30 -137 -50 -64 -21 -138 -52 -167 -71 -46 -31 -113
-109 -113 -133 0 -12 119 -64 130 -57 5 3 10 1 12 -3 1 -4 35 -21 73 -36 80
-32 97 -40 145 -66 19 -11 43 -18 53 -16 9 2 24 -5 31 -16 8 -11 49 -40 92
-65 l78 -44 35 41 c37 42 75 57 187 75 41 6 42 6 40 -21 -1 -20 -15 -38 -59
-71 -32 -25 -65 -55 -73 -68 -17 -26 -10 -50 12 -41 8 3 30 -10 52 -32 56 -57
120 -104 132 -97 5 3 10 0 10 -8 0 -7 28 -37 63 -65 171 -141 465 -466 555
-614 l23 -37 42 19 c56 26 103 25 227 -6 181 -45 295 -30 392 51 20 17 41 25
69 25 21 0 39 -3 39 -7 0 -4 -11 -45 -25 -90 -30 -97 -74 -151 -141 -171 -60
-18 -84 -15 -155 17 -106 47 -189 65 -270 58 -40 -3 -76 -10 -81 -15 -9 -9 33
-104 64 -146 13 -16 18 -17 38 -6 41 22 119 16 208 -15 45 -16 82 -32 82 -36
0 -3 -7 -22 -15 -41 -14 -35 -15 -35 -89 -41 -41 -4 -88 -4 -104 -1 -16 3 -32
1 -36 -4 -10 -16 4 -40 26 -45 17 -5 20 -11 15 -36 -4 -18 -2 -31 3 -31 6 0
10 -8 10 -17 0 -20 25 -94 40 -121 12 -22 50 -141 50 -159 0 -7 5 -13 11 -13
5 0 8 -4 5 -8 -3 -5 3 -35 13 -68 l17 -59 60 3 c50 3 68 -1 118 -27 32 -17 73
-31 92 -31 26 0 68 -23 187 -104 94 -63 180 -112 220 -127 37 -13 67 -27 67
-30 0 -17 -103 -49 -155 -49 l-56 0 -82 77 c-45 42 -89 83 -97 90 -13 12 -13
15 0 23 24 16 60 11 96 -11 19 -11 34 -18 34 -16 0 3 -15 15 -34 26 -37 23
-73 27 -109 10 -19 -9 -30 -8 -48 4 -42 27 -151 57 -206 57 -64 0 -62 13 -29
-182 13 -79 27 -188 31 -244 l7 -101 77 -10 c108 -14 178 -51 283 -152 l89
-84 -27 -29 c-15 -15 -31 -28 -34 -28 -3 0 -49 49 -102 108 -102 114 -160 156
-235 168 -50 8 -49 11 -52 -181 -1 -77 -4 -163 -6 -192 -7 -78 -25 -234 -31
-268 -5 -28 -3 -31 45 -48 28 -10 69 -32 93 -50 41 -32 148 -177 148 -202 0
-6 -11 -17 -24 -23 -30 -13 -31 -12 -80 86 -20 40 -52 90 -71 111 -32 35 -89
71 -112 71 -8 0 -53 -175 -53 -203 0 -4 14 -13 30 -19 17 -5 35 -19 41 -29 12
-23 6 -24 -26 -3 -27 18 -65 11 -65 -12 0 -8 -11 -46 -25 -85 -25 -72 -25 -89
-1 -89 16 0 69 -40 62 -47 -3 -3 -19 5 -36 17 -17 12 -33 21 -35 19 -13 -13
-107 -214 -108 -231 -1 -12 -30 -74 -64 -137 -42 -77 -59 -118 -51 -122 7 -5
-7 -33 -43 -81 -29 -40 -56 -75 -59 -78 -3 -3 -15 -19 -27 -36 l-22 -32 40
-32 c76 -61 129 -158 142 -260 l6 -45 -13 40 c-40 120 -147 268 -186 258 -11
-3 -20 -13 -20 -22 0 -9 -17 -34 -38 -56 -20 -22 -59 -66 -86 -98 l-49 -58 30
-32 c74 -80 100 -148 110 -289 l6 -98 -30 0 -30 0 -6 88 c-6 99 -24 157 -70
224 -33 50 -60 60 -76 31 -5 -10 -52 -61 -105 -113 -53 -52 -96 -101 -96 -107
0 -7 -15 -20 -32 -29 -18 -9 -42 -26 -54 -38 -11 -12 -40 -37 -64 -56 -24 -19
-62 -51 -85 -71 -24 -20 -59 -46 -78 -58 l-36 -22 30 -57 c30 -59 53 -161 39
-176 -12 -13 -63 16 -77 44 -9 20 -9 37 3 80 16 63 17 70 6 88 -15 23 -41 2
-40 -31 0 -18 -2 -51 -6 -74 -5 -30 -3 -50 8 -72 17 -31 61 -61 92 -61 24 0
15 -67 -36 -270 -29 -118 -43 -195 -47 -272 l-6 -107 -36 15 c-47 20 -106 78
-131 129 -34 70 -27 130 31 274 28 69 53 150 56 178 5 43 9 53 24 53 11 0 29
-10 40 -21 12 -12 20 -15 17 -8 -2 8 -20 22 -39 32 -33 16 -37 22 -49 87 -13
66 -24 82 -45 61 -10 -10 -117 -69 -253 -138 -53 -28 -71 -42 -66 -53 3 -8 11
-39 17 -68 14 -67 -2 -135 -66 -278 -25 -54 -52 -126 -62 -159 -10 -33 -20
-67 -22 -75 -4 -13 -6 -13 -13 1 -19 34 -28 99 -19 140 9 37 81 175 99 189 13
10 29 98 33 180 2 47 2 77 0 68 -2 -9 -10 -15 -18 -12 -7 3 -49 -9 -94 -27
l-81 -32 6 -51 c5 -47 1 -59 -45 -151 -54 -107 -57 -110 -38 -25 14 61 8 163
-10 181 -9 9 -31 6 -95 -14 -195 -62 -479 -118 -625 -124 l-113 -5 0 -31 c0
-18 -9 -52 -20 -76 -11 -24 -20 -50 -20 -59 0 -17 -78 -122 -91 -122 -20 0 -7
56 24 99 37 51 53 87 63 144 l6 37 -143 0 c-79 0 -174 3 -210 6 l-66 7 -6 -42
c-8 -64 -36 -106 -107 -161 l-65 -50 -3 32 c-2 18 -12 45 -23 60 l-20 27 40
44 c46 50 68 95 48 102 -34 12 -211 35 -217 28 -4 -4 -13 -25 -19 -45 -12 -36
-117 -145 -129 -133 -3 2 2 13 10 22 24 28 78 128 78 146 0 25 -25 44 -72 52
-24 4 -46 7 -50 7 -4 -1 -36 10 -73 23 -36 14 -68 25 -70 25 -3 0 -10 -11 -15
-25 -8 -22 -63 -65 -83 -65 -4 0 5 18 19 40 15 22 25 42 23 44 -2 2 -51 27
-109 54 l-105 50 -27 -31 c-15 -18 -27 -37 -28 -43 0 -21 -64 -75 -120 -104
-30 -15 -118 -49 -195 -75 -186 -62 -265 -105 -345 -185 -138 -139 -190 -330
-141 -522 11 -42 51 -142 89 -224 39 -82 77 -173 86 -203 43 -147 -5 -314
-122 -423 -63 -59 -134 -94 -297 -148 -147 -48 -244 -95 -305 -147 -57 -49
-43 -53 20 -5 58 44 150 78 330 122 171 42 270 91 345 172 65 70 122 178 131
250 4 26 10 45 14 43 14 -9 127 -208 154 -271 30 -74 49 -184 41 -236 -9 -49
-31 -64 -203 -143 -202 -91 -266 -136 -333 -232 -38 -54 -38 -68 0 -16 62 85
159 146 324 202 45 16 106 38 135 50 28 11 52 18 52 15 0 -27 -75 -149 -120
-195 -68 -69 -141 -112 -323 -189 -78 -34 -171 -77 -207 -97 -64 -36 -185
-146 -209 -191 -6 -12 19 9 57 47 84 84 167 126 392 201 206 69 278 107 366
195 80 79 122 148 155 250 13 42 35 85 54 106 85 95 128 207 128 339 1 120
-18 180 -118 379 -41 80 -81 173 -91 205 -32 115 -1 262 75 348 35 39 51 47
143 77 56 18 136 45 176 61 39 16 72 27 72 25 0 -2 -9 -19 -20 -37 -33 -57
-53 -155 -47 -231 8 -89 39 -156 136 -286 43 -58 89 -126 101 -151 27 -54 39
-162 20 -185 -7 -8 -50 -38 -95 -65 -45 -27 -103 -72 -128 -99 -61 -65 -60
-73 1 -13 52 52 212 141 212 119 0 -27 -64 -110 -114 -146 -28 -21 -85 -58
-126 -81 -91 -52 -151 -100 -181 -143 -19 -27 -15 -25 28 15 32 29 97 70 174
108 182 91 249 153 285 263 16 49 51 101 64 95 3 -2 48 -49 100 -106 l93 -103
-30 -32 c-17 -18 -36 -43 -42 -57 l-12 -25 18 25 c10 14 30 38 46 55 l27 30
35 -40 c20 -22 50 -69 68 -105 31 -62 32 -70 32 -180 0 -103 -3 -121 -27 -172
-37 -79 -101 -144 -254 -259 -165 -124 -246 -213 -269 -299 -3 -14 8 0 24 30
43 77 129 153 272 239 207 126 298 231 335 387 31 133 6 272 -73 393 l-43 66
23 15 c61 41 128 116 144 161 18 50 33 56 33 12 0 -14 7 -56 16 -93 l17 -67
-41 -41 c-36 -36 -80 -102 -68 -102 2 0 14 16 26 35 24 39 87 92 97 81 3 -3 1
-18 -6 -33 -10 -25 -10 -26 3 -10 13 16 16 14 40 -28 45 -76 144 -173 286
-278 74 -55 137 -102 140 -104 15 -13 -63 -116 -177 -235 -93 -96 -141 -155
-162 -197 -41 -80 -39 -102 1 -27 22 40 62 85 127 145 136 124 236 223 249
246 10 19 11 19 31 1 12 -11 21 -29 21 -40 0 -14 3 -17 8 -8 10 14 37 -19 72
-88 36 -70 50 -137 50 -238 0 -172 -50 -270 -240 -467 -148 -152 -201 -218
-240 -294 -31 -62 -60 -154 -59 -185 0 -12 7 3 15 33 29 108 70 169 198 291
274 263 320 313 358 386 54 102 71 186 65 314 -6 130 -32 216 -92 306 -25 37
-45 70 -45 73 0 4 35 41 78 84 l78 78 59 -42 c33 -22 72 -52 87 -66 l26 -25
-29 -46 c-32 -51 -69 -143 -68 -170 0 -9 7 3 14 28 15 47 81 151 101 157 16 5
70 -85 94 -158 l21 -61 -26 -43 c-14 -24 -53 -79 -87 -122 -142 -178 -190
-265 -202 -368 l-6 -50 13 50 c20 75 40 114 89 180 44 58 205 237 218 243 16
7 -13 -129 -40 -187 -36 -76 -71 -126 -189 -269 -48 -59 -104 -134 -123 -167
-43 -72 -78 -172 -77 -217 1 -31 2 -30 10 10 21 108 87 205 262 389 166 174
228 277 243 408 4 30 11 55 15 55 12 0 11 37 -1 45 -15 9 -12 75 6 147 22 83
15 221 -15 299 -21 54 -21 58 -5 120 34 132 -4 275 -102 379 -25 27 -91 79
-145 115 -179 118 -228 181 -236 305 l-5 65 46 45 46 44 0 -70 c0 -136 39
-234 132 -330 50 -52 84 -74 217 -143 183 -95 226 -128 268 -208 37 -71 44
-99 44 -178 0 -86 -27 -155 -110 -282 -79 -123 -120 -205 -127 -260 -5 -36 -4
-35 13 12 24 66 58 120 144 230 38 50 83 117 99 150 62 124 59 252 -8 385 -45
90 -123 160 -262 235 -50 28 -106 62 -123 76 l-31 26 31 39 c54 69 66 101 61
169 -5 77 -37 131 -107 177 l-48 32 25 38 c13 21 27 38 29 38 3 0 14 -11 25
-25 10 -13 71 -50 134 -81 144 -70 169 -100 169 -203 0 -60 -4 -73 -47 -149
-56 -99 -74 -150 -26 -72 19 30 50 79 68 108 46 72 53 155 20 225 -27 56 -56
82 -154 136 -69 39 -136 98 -136 122 0 6 16 31 35 56 19 25 45 67 57 94 25 53
43 65 31 22 -4 -16 -7 -53 -6 -84 2 -95 56 -177 147 -225 48 -25 55 -33 70
-79 30 -97 123 -216 192 -247 13 -6 24 -17 24 -24 0 -7 -20 -54 -45 -105 -25
-51 -45 -100 -44 -108 0 -9 6 -2 12 14 23 60 102 185 117 185 41 0 41 -15 5
-91 -43 -89 -47 -128 -4 -44 16 33 38 71 48 84 l19 24 98 -27 c55 -15 125 -39
157 -54 52 -22 58 -28 52 -49 -3 -13 -8 -44 -10 -71 -5 -46 -5 -46 8 10 7 32
16 61 20 64 9 9 47 -25 47 -43 0 -7 5 -12 12 -11 7 2 30 -32 52 -74 36 -71 40
-85 40 -155 0 -87 -13 -132 -80 -284 -55 -125 -74 -200 -73 -285 l2 -69 7 84
c7 80 12 94 93 255 99 196 110 233 107 336 -6 192 -5 201 29 280 18 41 35 78
39 82 4 3 39 -4 78 -18 67 -22 141 -35 369 -64 258 -32 385 -112 478 -298 l42
-85 0 -131 c0 -123 -3 -142 -45 -301 -40 -156 -44 -180 -44 -290 1 -90 5 -130
18 -160 9 -22 14 -29 11 -15 -14 66 -17 163 -5 226 7 38 39 148 70 244 32 96
64 211 70 254 40 270 -114 532 -373 638 -40 16 -149 45 -242 63 -196 40 -262
58 -326 90 -55 28 -62 37 -78 95 -12 42 -76 150 -90 150 -3 0 -21 14 -40 32
l-33 31 5 106 c3 58 13 132 23 165 l18 59 16 -62 c29 -106 79 -189 160 -272
101 -103 192 -146 362 -174 35 -5 36 -6 31 -43 -3 -20 0 -53 6 -72 l11 -35 -5
34 c-3 18 -2 51 2 74 l6 40 146 -6 c239 -10 324 -38 426 -141 74 -75 111 -143
131 -238 17 -82 14 -135 -18 -323 -35 -203 -26 -353 26 -454 25 -47 28 -37 6
15 -48 111 -44 220 16 457 19 76 38 175 41 220 10 159 -42 292 -163 414 -106
107 -205 149 -410 173 -55 6 -112 13 -129 15 l-30 5 0 92 c0 77 -4 100 -23
135 -58 111 -130 155 -285 179 -138 22 -128 16 -120 71 7 54 58 271 65 279 3
2 25 -5 49 -16 24 -11 52 -20 61 -20 9 0 38 -19 65 -42 65 -56 137 -87 220
-94 44 -4 80 -14 101 -28 l34 -21 -5 -110 c-2 -60 0 -123 4 -140 8 -27 8 -27
4 8 -3 33 5 112 21 188 l5 27 62 -23 c34 -13 70 -26 80 -29 17 -6 18 -14 12
-109 -5 -68 -3 -123 5 -161 15 -71 21 -69 12 4 -5 32 -3 95 5 150 6 52 12 97
12 100 1 3 50 5 111 5 l110 0 20 -48 c19 -43 21 -68 21 -215 -1 -165 10 -243
38 -288 12 -18 12 -18 6 1 -23 67 -27 98 -21 180 17 251 18 290 3 336 l-14 47
71 11 c135 23 226 25 296 7 156 -40 284 -167 325 -321 9 -37 19 -140 25 -265
10 -235 24 -297 90 -398 22 -34 42 -62 45 -62 4 0 -3 13 -15 29 -74 105 -95
219 -80 443 20 295 -34 456 -195 581 -30 23 -52 43 -50 45 8 8 117 -72 151
-112 84 -97 110 -187 123 -437 6 -96 17 -201 26 -233 18 -68 68 -166 97 -193
14 -12 11 -4 -9 27 -64 96 -66 110 -73 410 -6 247 -8 281 -28 333 -42 116
-111 203 -214 271 -122 81 -234 97 -498 72 -268 -26 -350 -6 -471 113 -102
102 -112 135 -115 396 -2 124 1 202 6 190 5 -11 9 -34 9 -51 2 -59 50 -224 86
-292 74 -142 214 -259 366 -307 65 -20 100 -25 189 -25 97 0 129 5 285 45 299
77 379 79 519 12 182 -87 266 -225 301 -494 41 -310 71 -400 171 -509 l46 -49
-36 46 c-86 111 -119 236 -131 495 -8 179 -24 258 -75 361 -47 95 -125 179
-222 236 -152 90 -289 102 -573 47 -138 -26 -187 -31 -266 -28 -87 3 -104 7
-171 41 -55 27 -92 55 -136 101 -92 99 -118 181 -129 415 l-6 134 39 -27 c21
-14 43 -26 48 -26 4 0 43 -35 85 -78 116 -117 257 -182 402 -182 87 0 168 16
259 50 41 16 81 30 89 32 9 2 20 -25 37 -90 22 -86 63 -184 82 -196 5 -3 -2
17 -15 43 -25 49 -66 251 -54 263 15 16 121 51 190 63 118 21 222 -1 327 -71
109 -72 162 -166 220 -389 19 -77 49 -171 65 -210 32 -78 100 -171 151 -205
29 -20 28 -18 -11 21 -81 81 -118 159 -146 309 -44 236 -58 289 -95 366 -70
146 -221 257 -388 286 -81 14 -189 3 -299 -31 l-63 -19 -19 32 c-11 18 -29 40
-40 50 -19 18 -18 19 77 65 269 132 376 147 529 75 123 -59 188 -151 263 -374
69 -206 124 -300 213 -362 21 -14 14 -4 -19 29 -69 67 -113 163 -159 348 -45
185 -86 274 -159 347 -145 145 -344 184 -556 110 -47 -16 -128 -47 -180 -68
-88 -35 -102 -38 -200 -39 -94 0 -111 3 -162 27 -74 34 -152 113 -183 183 -20
45 -65 197 -65 220 0 4 19 -14 43 -39 90 -97 233 -153 370 -144 92 7 164 33
279 102 51 30 125 70 163 88 62 29 80 33 155 33 76 0 93 -4 151 -32 88 -44
150 -111 200 -218 21 -47 57 -123 79 -170 38 -83 118 -183 165 -207 11 -6 -1
8 -26 30 -56 50 -105 141 -149 277 -72 220 -145 313 -297 374 -133 54 -235 40
-453 -64 -160 -76 -209 -89 -296 -82 -118 9 -212 74 -269 186 l-25 51 37 19
c21 10 65 35 97 55 49 29 70 36 113 36 93 0 137 -36 202 -167 23 -46 43 -83
45 -83 10 0 -76 189 -100 218 -14 19 -47 43 -72 54 l-46 21 27 14 c15 8 31 11
36 9 5 -3 38 -10 75 -15 92 -13 185 2 273 43 l72 35 34 -52 c19 -29 49 -80 67
-114 18 -35 48 -80 67 -100 l34 -38 -25 35 c-13 19 -48 85 -76 145 -28 60 -57
117 -65 125 -12 13 -1 25 77 89 168 136 241 171 352 171 120 0 233 -53 310
-146 14 -17 58 -83 97 -145 39 -63 85 -132 102 -153 32 -40 141 -126 160 -126
6 0 -10 13 -36 30 -61 38 -119 118 -202 280 -105 203 -184 278 -344 327 l-76
23 100 -3 c83 -2 110 -7 157 -29 85 -39 151 -108 246 -253 93 -142 171 -231
238 -270 60 -35 67 -31 11 6 -66 44 -119 109 -179 222 -122 228 -187 305 -303
362 -140 70 -295 69 -436 -2 -39 -19 -71 -33 -73 -32 -1 2 -13 22 -26 44 -81
137 -126 185 -199 211 -35 13 -34 13 42 14 42 0 77 -4 77 -8 0 -13 100 -122
123 -133 13 -6 9 0 -9 15 -29 23 -94 113 -94 129 0 11 38 8 45 -3 3 -5 20 -19
38 -31 l32 -22 -29 31 c-16 18 -28 33 -25 35 2 2 33 13 68 25 83 27 159 74
235 144 l63 57 39 -42 c22 -23 71 -77 109 -120 61 -71 155 -147 179 -147 5 0
-12 14 -38 31 -25 17 -64 54 -86 83 -84 110 -170 228 -170 232 0 6 117 150
176 216 23 26 61 64 84 83 l41 35 37 -19 c20 -10 48 -21 62 -25 14 -3 0 5 -30
20 l-55 25 23 19 c47 39 150 65 259 65 l102 0 88 -86 c99 -97 189 -160 266
-185 41 -13 72 -36 147 -108 52 -50 119 -106 147 -125 55 -35 174 -81 208 -80
11 0 -6 8 -37 18 -119 38 -205 108 -345 280 -203 249 -288 319 -440 364 -30 9
-75 34 -108 61 -112 92 -221 130 -364 129 l-93 -1 -106 99 c-131 124 -213 169
-315 172 -37 1 -67 3 -67 5 0 15 129 252 163 298 124 168 349 225 545 138 31
-14 115 -64 187 -113 184 -124 289 -173 369 -170 26 1 23 3 -14 10 -75 14
-180 73 -295 166 -151 121 -173 136 -230 166 -93 47 -158 60 -269 55 -118 -6
-185 -28 -280 -92 l-63 -42 44 110 c92 227 153 321 254 386 122 78 261 105
395 75 78 -17 169 -60 377 -178 105 -59 229 -103 315 -111 66 -6 60 9 -7 17
-80 9 -186 61 -342 167 -256 172 -343 206 -519 198 -166 -8 -288 -60 -400
-170 -68 -67 -120 -148 -208 -325 -39 -78 -76 -144 -82 -148 -5 -3 -25 5 -42
19 -18 13 -58 37 -88 52 -47 24 -67 28 -135 28 -68 0 -89 -4 -139 -29 -66 -33
-119 -89 -164 -172 -17 -32 -37 -66 -44 -76 -14 -19 -12 -20 -158 72 -11 7
-12 12 -2 24 7 8 26 52 43 97 38 104 51 129 86 162 40 39 94 58 160 58 50 0
75 -8 173 -55 63 -30 121 -55 130 -55 8 0 -7 11 -35 24 -27 12 -75 39 -105 58
-114 72 -186 84 -284 48 -73 -28 -127 -89 -181 -205 -24 -51 -47 -95 -52 -98
-5 -3 -29 8 -54 24 -115 78 -296 149 -381 149 -31 0 -38 23 -15 54 12 17 19
17 84 6 56 -10 81 -10 124 0 108 25 192 89 239 180 12 23 35 96 51 163 30 121
58 185 97 221 21 18 23 18 97 -8 41 -14 83 -26 93 -26 9 1 -6 9 -33 19 -28 10
-63 25 -79 33 l-30 16 35 18 c59 31 154 23 289 -25 63 -22 129 -40 145 -40 29
1 29 1 -7 10 -20 4 -83 29 -139 55 -131 58 -197 71 -273 51 -31 -7 -56 -12
-56 -10 0 2 11 22 25 44 33 52 42 74 75 189 l27 95 64 -2 64 -3 -57 13 c-32 7
-59 15 -61 18 -3 4 10 164 19 226 4 25 10 33 32 36 l27 4 -27 2 c-24 1 -28 5
-28 29 0 86 126 238 242 292 124 58 220 59 444 5 210 -51 346 -54 439 -9 17 8
21 12 10 8 -123 -37 -217 -28 -430 39 -182 57 -259 71 -350 64 -74 -7 -180
-40 -231 -73 -27 -18 -27 -18 -16 3 6 11 28 35 49 53 102 90 208 130 337 129
88 0 106 -3 306 -44 114 -23 150 -27 240 -22 61 3 125 12 153 22 63 22 56 27
-13 9 -114 -30 -200 -18 -495 66 -142 40 -273 49 -365 25 -137 -36 -283 -138
-345 -243 -43 -73 -46 -74 -278 -30 -60 11 -129 18 -154 16 l-45 -3 4 120 c3
110 6 125 35 187 40 84 106 156 181 196 51 27 70 31 177 37 66 3 206 7 310 8
170 2 196 4 249 24 33 13 64 27 70 33 5 5 -14 1 -42 -10 -29 -11 -82 -23 -119
-26 -68 -6 -222 10 -233 24 -3 4 -23 8 -45 8 -22 1 -85 5 -140 9 -78 6 -114 4
-165 -9 -36 -10 -114 -19 -175 -20 -115 -4 -164 -16 -242 -62 l-42 -24 14 39
c48 137 187 253 334 281 29 5 136 10 236 10 198 0 270 9 351 45 69 31 70 40 2
12 -61 -24 -204 -28 -453 -13 -165 10 -222 1 -324 -50 -80 -40 -186 -145 -226
-224 -29 -56 -55 -157 -55 -212 0 -20 -4 -39 -8 -42 -8 -5 -45 181 -57 288 -7
67 11 168 42 233 32 70 127 171 192 206 68 37 190 67 275 67 129 0 294 20 369
43 67 22 178 84 193 109 4 6 -18 -6 -47 -26 -104 -70 -153 -80 -412 -78 -258
2 -326 -7 -428 -59 -86 -43 -188 -143 -233 -228 -68 -129 -79 -237 -50 -488 9
-80 13 -164 9 -200 l-7 -63 -106 0 c-126 0 -167 -10 -224 -53 -60 -46 -92
-114 -97 -204 l-3 -73 -104 0 -103 0 -10 38 c-17 60 -14 67 48 106 32 20 83
62 111 93 35 39 63 60 84 64 31 6 31 6 3 8 l-27 1 29 58 c41 81 53 132 53 231
0 92 -12 149 -70 331 -33 102 -37 127 -37 220 0 99 2 110 32 171 85 173 170
220 513 284 159 30 252 70 320 139 24 25 42 46 39 46 -3 0 -16 -11 -29 -25z
m-876 -337 c-5 -7 -21 -33 -36 -58 -69 -109 -86 -263 -48 -434 11 -50 20 -93
20 -97 0 -3 -43 -12 -96 -19 -112 -14 -187 -34 -204 -55 -24 -29 -37 -15 -73
78 -69 175 -72 242 -17 354 53 107 119 149 320 203 63 17 116 33 119 36 10 10
22 3 15 -8z m-44 -667 c7 -34 11 -98 8 -148 -3 -76 -9 -96 -38 -151 -42 -80
-122 -154 -195 -181 -73 -27 -83 -26 -90 7 -3 15 -12 50 -20 79 -11 45 -11 59
2 100 10 34 13 73 10 135 l-6 86 69 17 c38 9 77 23 87 31 15 12 13 12 -17 0
-19 -8 -57 -17 -85 -22 -47 -7 -49 -6 -36 10 24 28 85 55 173 75 128 29 123
30 138 -38z m1001 -109 c-108 -108 -147 -208 -158 -399 -5 -92 -9 -116 -24
-129 -18 -17 -19 -15 -19 52 0 38 -7 140 -17 226 l-17 158 39 41 c64 66 166
117 237 118 25 1 23 -4 -41 -67z m-1913 16 c8 -27 5 -37 -11 -55 -11 -12 -28
-46 -38 -75 l-18 -53 -11 30 c-17 44 -7 109 24 150 33 43 43 44 54 3z m482
-46 c0 -82 -52 -221 -71 -190 -13 20 -11 58 4 59 10 0 10 2 0 6 -18 7 -16 38
3 76 31 60 64 86 64 49z m-475 -59 c-4 -21 -13 -49 -20 -63 l-14 -25 -1 33 c0
31 24 92 36 92 4 0 3 -17 -1 -37z m357 -160 c3 -34 0 -39 -37 -59 -22 -12 -50
-25 -62 -29 -21 -6 -23 -3 -23 31 0 47 31 97 73 117 30 15 32 15 39 -3 4 -11
8 -36 10 -57z m154 -149 c-3 -8 -17 -14 -31 -14 -34 0 -33 26 3 63 l27 29 3
-32 c2 -18 1 -38 -2 -46z m854 -25 c-56 -109 -160 -191 -278 -217 -28 -7 -44
-6 -49 0 -13 22 -7 143 9 173 21 40 76 91 113 106 43 18 229 27 233 12 2 -6
-11 -39 -28 -74z m-1391 27 c-9 -8 -10 -7 -5 7 3 10 7 26 7 35 1 9 4 6 6 -7 3
-13 -1 -28 -8 -35z m-69 14 c-14 -25 -48 -43 -135 -69 -46 -13 -86 -33 -113
-57 -51 -44 -56 -31 -6 19 25 25 70 50 148 81 61 25 112 45 114 46 1 0 -2 -9
-8 -20z m2288 -137 c56 -3 102 -6 102 -7 0 -1 -9 -27 -19 -57 -11 -30 -25 -85
-32 -123 -11 -61 -15 -67 -33 -62 -119 32 -180 39 -235 28 -31 -7 -68 -12 -82
-12 l-24 0 0 120 c0 97 3 120 15 124 15 5 97 2 308 -11z m-715 -171 c-40 -49
-54 -56 -97 -48 l-37 7 54 60 c30 33 65 80 78 105 l24 44 3 -66 c3 -61 0 -70
-25 -102z m-771 98 c0 -16 1 -36 2 -42 1 -9 -25 -15 -84 -20 -73 -5 -169 -30
-242 -62 -14 -7 -18 -3 -18 15 1 20 14 30 78 60 63 30 196 71 250 78 7 0 13
-12 14 -29z m1033 -27 c-2 -16 -7 -48 -10 -73 -9 -68 -55 -160 -80 -160 -10 0
6 122 22 160 17 41 55 100 65 100 4 0 6 -12 3 -27z m-344 -147 c-28 -33 -228
-92 -219 -64 2 5 32 24 68 42 47 25 79 35 114 35 40 1 47 -1 37 -13z m794 -26
c23 -8 13 -9 -47 -6 -42 2 -85 10 -95 16 -14 9 -4 10 47 6 36 -4 79 -11 95
-16z m-67 -16 c56 -4 102 -10 102 -13 0 -3 -7 -46 -15 -96 -8 -49 -15 -93 -15
-96 0 -4 -35 -6 -77 -6 -93 2 -147 -19 -217 -83 -54 -50 -90 -121 -107 -207
-11 -60 -13 -63 -40 -63 -33 0 -34 3 -14 59 8 23 19 105 24 183 8 113 15 150
33 187 21 42 26 46 58 45 25 -1 28 0 8 3 -16 2 -28 8 -28 12 0 11 51 57 85 75
19 10 43 14 65 11 19 -2 81 -8 138 -11z m-560 -126 c-3 -22 -59 -63 -78 -56
-13 4 53 78 70 78 6 0 10 -10 8 -22z m612 -133 c0 -28 -50 -116 -91 -160 -47
-51 -117 -98 -178 -120 l-44 -15 7 56 c13 108 66 185 161 230 59 28 145 33
145 9z m-492 -72 c-10 -77 -32 -155 -55 -189 -25 -39 -31 -18 -12 38 10 29 18
80 19 112 0 47 5 65 22 83 12 13 24 23 28 23 4 0 3 -30 -2 -67z m-298 -80 c0
-12 -11 -17 -67 -28 -35 -7 -212 20 -227 35 -5 5 53 8 142 7 109 -1 152 -5
152 -14z m134 -78 c-4 -8 -13 -15 -22 -15 -13 0 -12 3 4 15 24 18 25 18 18 0z
m477 -411 c-36 -108 -54 -146 -85 -181 -39 -45 -103 -82 -140 -83 -16 0 -15 3
8 21 44 34 75 101 99 210 l22 104 65 32 c36 17 68 32 71 32 3 1 -15 -60 -40
-135z m-541 97 c97 -24 108 -29 70 -30 -25 0 -83 13 -130 28 -109 37 -86 38
60 2z m1301 -638 c40 -21 74 -43 76 -49 6 -17 -93 -121 -142 -149 -72 -43
-154 -66 -235 -67 -82 -2 -140 8 -140 23 0 24 70 158 101 193 49 56 118 86
201 86 58 0 76 -5 139 -37z m-864 -289 c36 -20 62 -38 60 -41 -5 -4 -121 59
-136 73 -15 14 21 -1 76 -32z m916 -75 c-10 -17 -29 -44 -43 -61 -24 -29 -29
-30 -110 -32 -104 -1 -178 -33 -239 -102 -37 -42 -43 -45 -73 -39 -53 12 -129
49 -185 91 -29 22 -53 42 -53 45 0 4 13 12 30 19 24 10 37 9 77 -5 72 -25 251
-31 336 -11 76 18 199 72 237 104 36 30 44 27 23 -9z m-788 1 c3 -5 -3 -10
-14 -10 -12 0 -21 5 -21 10 0 6 6 10 14 10 8 0 18 -4 21 -10z m669 -138 c13
-21 -194 -115 -213 -97 -8 9 34 47 74 68 22 11 58 24 80 28 22 3 43 7 47 8 4
0 9 -3 12 -7z m430 -45 c28 -13 98 -61 156 -107 l104 -84 -29 -12 c-17 -7 -36
-13 -44 -14 -7 0 -47 31 -88 69 -95 90 -165 124 -258 129 -95 5 -115 25 -43
43 51 13 146 1 202 -24z m-18 -108 c57 -29 166 -118 159 -130 -3 -5 -28 2 -54
16 -139 70 -331 43 -453 -64 -24 -22 -81 -84 -127 -140 -46 -55 -104 -114
-129 -131 -87 -57 -212 -78 -246 -41 -16 18 -14 19 41 30 139 27 216 88 330
258 86 129 152 194 220 217 64 22 78 20 129 -15 47 -32 105 -59 126 -59 7 0
-6 9 -30 20 -51 23 -102 58 -102 69 0 13 89 -7 136 -30z m-621 -160 c-68 -70
-116 -92 -209 -96 l-81 -4 51 30 c28 16 64 45 79 63 25 30 35 34 94 39 36 3
75 6 86 7 15 2 11 -6 -20 -39z m700 4 c15 -9 11 -15 -30 -48 -26 -22 -94 -93
-152 -159 -102 -118 -201 -211 -235 -222 -9 -3 -41 9 -71 26 -29 16 -63 30
-75 30 -28 0 -28 12 -1 36 12 10 53 64 92 118 103 145 159 195 257 227 32 11
192 5 215 -8z m478 -18 c32 -8 77 -25 100 -37 l42 -22 -93 -13 c-63 -8 -120
-24 -175 -48 l-82 -35 -57 57 c-70 69 -63 87 16 48 68 -33 84 -29 20 4 -51 27
-47 38 17 50 70 14 150 12 212 -4z m-233 -175 c0 -3 -21 -20 -46 -39 -25 -19
-100 -92 -166 -162 -116 -124 -120 -127 -151 -119 -18 5 -54 11 -81 15 l-48 7
35 36 c19 20 75 91 124 157 50 66 115 144 147 173 l56 53 65 -58 c36 -32 65
-60 65 -63z m784 -146 c65 -56 116 -114 101 -114 -3 0 -28 12 -56 26 -49 24
-219 177 -219 196 0 17 100 -45 174 -108z m-1535 -93 c25 -13 30 -20 20 -26
-19 -12 -170 -19 -216 -10 l-38 7 45 24 c56 29 139 31 189 5z m-565 -182 c-4
-7 -74 -1 -83 7 -3 2 6 16 20 30 l24 25 22 -27 c12 -15 20 -31 17 -35z m926
47 c0 -9 -95 -66 -110 -66 -24 0 -67 48 -49 54 8 2 21 7 29 9 18 6 130 9 130
3z m-160 -48 c17 -12 30 -25 30 -28 0 -4 -17 -12 -37 -18 -48 -14 -143 -26
-143 -19 0 8 103 87 113 87 4 0 21 -10 37 -22z m-641 -102 l32 -33 -37 -31
c-37 -30 -38 -31 -66 -14 -16 9 -45 34 -65 54 l-37 38 39 1 c22 1 51 5 65 9
14 4 27 8 31 9 3 1 20 -14 38 -33z m431 -236 c19 -10 49 -33 66 -52 35 -36
114 -147 114 -159 0 -11 -189 -144 -247 -173 -28 -14 -70 -30 -93 -35 -38 -8
-42 -7 -57 17 -51 83 -69 103 -116 127 -55 27 -114 32 -167 13 -30 -10 -35 -9
-53 13 l-19 24 39 11 c67 20 115 50 198 123 84 76 120 99 170 112 42 11 123 0
165 -21z m-368 -27 c-79 -70 -147 -103 -213 -103 -35 0 -41 4 -58 39 l-20 38
73 5 c51 3 84 11 107 26 24 14 50 20 86 20 l53 -1 -28 -24z m38 -282 c34 -18
100 -92 100 -113 0 -14 -80 -1 -145 23 -27 10 -67 33 -89 51 -36 29 -37 32
-20 45 26 19 113 16 154 -6z m-440 -62 c0 -5 -12 -4 -26 2 -44 16 -48 21 -28
36 17 12 21 11 37 -8 9 -12 17 -25 17 -30z m-30 -69 c8 -1 2 -8 -14 -16 -24
-13 -30 -14 -37 -2 -15 22 -10 31 14 24 12 -3 29 -6 37 -6z m89 -14 c10 -12 8
-13 -9 -9 -25 7 -37 23 -17 23 8 0 20 -6 26 -14z m6 -34 c31 -19 74 -86 63
-98 -17 -16 -113 20 -152 57 l-41 38 25 10 c38 15 72 13 105 -7z m125 -82 c0
-4 -9 -10 -20 -13 -16 -4 -25 3 -41 34 l-20 40 41 -27 c22 -15 40 -30 40 -34z
m-218 -75 c29 -14 61 -25 71 -25 32 0 17 -17 -34 -39 -28 -13 -52 -21 -54 -19
-5 5 -43 108 -40 108 2 0 27 -11 57 -25z m-7 -827 c31 -14 32 -24 3 -32 -51
-13 -66 -7 -86 37 -11 23 -23 53 -27 67 -7 22 -3 20 39 -18 25 -23 57 -48 71
-54z m242 -84 c28 -3 83 -1 122 6 l72 12 46 -39 c26 -21 46 -43 46 -48 -1 -6
-34 -21 -75 -34 -55 -18 -98 -24 -173 -25 -93 -1 -105 1 -165 30 -111 54 -112
56 -38 86 34 15 75 25 89 23 14 -2 49 -7 76 -11z m-1108 -414 c14 0 19 -17 29
-104 6 -58 20 -130 30 -160 l19 -56 -38 0 c-30 0 -42 6 -57 28 -30 43 -42 90
-42 167 0 97 9 138 27 131 8 -4 22 -6 32 -6z m-3589 -653 c0 -2 -12 -14 -27
-28 l-28 -24 24 28 c23 25 31 32 31 24z m-88 -56 c-5 -35 -42 -57 -241 -140
-189 -80 -272 -130 -357 -216 -81 -82 -143 -192 -173 -310 l-18 -70 -18 59
c-26 88 -18 193 22 277 64 137 142 190 361 245 75 19 160 42 187 51 69 22 178
79 206 109 29 31 36 30 31 -5z m3621 -79 c93 -41 150 -129 151 -234 1 -36 -2
-69 -5 -72 -9 -9 -120 23 -177 51 -88 44 -187 168 -206 258 l-7 31 101 -8 c62
-4 117 -15 143 -26z m-2979 -34 c26 -37 19 -72 -23 -125 -21 -26 -50 -58 -63
-71 l-26 -23 -21 34 c-12 20 -21 51 -21 75 0 37 4 42 49 72 27 17 55 38 61 46
17 19 26 18 44 -8z m516 -108 c0 -24 -16 -47 -81 -115 -45 -46 -93 -101 -108
-122 -20 -31 -26 -34 -29 -19 -5 25 15 103 35 133 17 26 162 152 176 153 4 0
7 -13 7 -30z m-715 -42 c6 -20 21 -48 31 -63 l20 -27 -67 -67 c-45 -46 -77
-91 -100 -139 -19 -39 -37 -71 -40 -71 -15 -2 -52 87 -56 138 -7 72 9 123 54
176 33 39 120 98 137 92 4 -1 14 -19 21 -39z m2112 -28 c33 -40 111 -77 219
-105 155 -41 166 -48 225 -145 44 -72 51 -92 51 -133 -1 -50 -29 -150 -40
-145 -4 2 -29 15 -57 29 -27 15 -96 43 -152 64 l-103 37 0 52 c0 103 -74 199
-186 242 -51 19 -53 27 -27 118 16 59 17 59 32 36 9 -13 26 -36 38 -50z
m-1787 -193 c0 -60 31 -134 77 -188 37 -42 48 -109 31 -191 -11 -53 -28 -79
-28 -43 0 30 -40 94 -110 177 -72 86 -105 141 -116 194 -5 29 -2 32 62 72 37
22 71 39 76 36 4 -3 8 -29 8 -57z m-601 -115 c11 -21 38 -62 61 -90 41 -52 41
-53 38 -128 l-3 -76 -57 89 c-97 150 -116 219 -93 323 l8 35 13 -57 c8 -32 22
-75 33 -96z m1759 119 c113 -57 134 -185 51 -302 l-21 -30 -29 27 c-31 30 -62
102 -74 171 -7 46 11 153 26 153 5 0 26 -9 47 -19z m704 -73 c15 -24 30 -60
34 -81 l7 -39 -31 16 c-23 12 -32 25 -37 55 -3 22 -20 61 -36 87 l-30 47 33
-21 c18 -11 45 -40 60 -64z m-91 0 c11 -21 11 -22 -4 -9 -10 7 -17 17 -17 22
0 15 9 10 21 -13z m-2025 -56 c-16 -15 -25 -20 -21 -12 13 25 38 50 44 45 3
-3 -8 -18 -23 -33z m49 -22 c4 -11 50 -67 102 -123 84 -90 143 -176 143 -213
0 -6 -11 -21 -25 -34 -14 -13 -25 -27 -25 -32 0 -5 11 4 25 19 l24 28 1 -36
c0 -65 -28 -124 -88 -183 -30 -31 -60 -56 -66 -56 -17 1 -158 182 -189 244
-39 77 -51 153 -37 234 14 83 31 115 77 147 45 30 50 31 58 5z m681 -134 c-9
-41 -16 -103 -16 -136 0 -64 25 -201 42 -233 8 -16 7 -17 -9 -9 -10 6 -33 26
-52 45 -31 33 -33 38 -22 68 18 53 14 150 -11 208 l-21 52 49 50 c27 27 50 45
52 40 2 -5 -4 -43 -12 -85z m1845 5 c-28 -83 -35 -96 -50 -87 -7 5 -5 19 9 45
10 21 24 59 31 85 8 34 15 44 23 36 7 -7 4 -30 -13 -79z m-3608 -145 c19 -39
69 -127 111 -196 88 -143 116 -221 116 -321 0 -65 -28 -180 -50 -202 -4 -5
-11 13 -14 40 -13 90 -37 158 -121 333 -46 96 -93 204 -105 240 -26 76 -31
201 -10 270 l13 45 13 -69 c7 -38 29 -101 47 -140z m3756 119 c1 -2 -8 -39
-22 -82 -15 -43 -29 -95 -33 -116 l-7 -39 -23 42 c-13 23 -38 60 -55 81 l-31
39 36 75 35 75 48 -36 c26 -20 50 -38 52 -39z m-1682 -24 c39 -61 103 -113
244 -193 185 -106 245 -183 256 -333 3 -42 2 -75 -3 -75 -5 0 -33 25 -63 55
-29 31 -82 76 -117 101 -48 34 -66 54 -73 80 -22 80 -113 187 -229 270 -22 16
-43 38 -46 49 -6 22 -8 95 -2 95 1 0 17 -22 33 -49z m-408 -92 c17 -67 8 -138
-15 -119 -8 8 -14 32 -15 64 0 28 -4 60 -8 71 -5 11 -6 26 -3 33 9 26 27 4 41
-49z m517 -191 l29 -33 -32 29 c-18 17 -33 31 -33 33 0 8 8 1 36 -29z m-1329
0 c-3 -8 -6 -5 -6 6 -1 11 2 17 5 13 3 -3 4 -12 1 -19z m1178 -56 c39 -38 109
-92 158 -122 79 -48 87 -56 87 -84 0 -59 -13 -63 -72 -20 -73 53 -155 131
-188 179 -24 35 -63 115 -57 115 2 0 34 -31 72 -68z m-317 -81 c136 -106 193
-186 210 -295 5 -31 7 -56 5 -56 -14 0 -201 175 -239 222 -72 92 -113 198 -75
198 5 0 49 -31 99 -69z m689 -176 c101 -75 132 -138 87 -175 -12 -11 -23 -4
-67 36 -28 27 -67 60 -84 74 -32 25 -32 26 -21 68 7 23 15 42 19 42 4 0 34
-20 66 -45z m-374 -27 c23 -18 68 -49 100 -68 31 -19 57 -38 57 -43 0 -9 -118
-150 -129 -155 -4 -1 -18 9 -30 22 -21 22 -24 36 -26 123 -1 54 -7 110 -13
126 -6 15 -9 27 -7 27 3 0 24 -15 48 -32z m536 -202 c6 -25 11 -57 11 -71 0
-24 -4 -22 -35 25 -34 50 -35 54 -20 77 20 31 30 24 44 -31z"/>
<path d="M10278 9143 c7 -3 16 -2 19 1 4 3 -2 6 -13 5 -11 0 -14 -3 -6 -6z"/>
<path d="M10348 8843 c7 -3 16 -2 19 1 4 3 -2 6 -13 5 -11 0 -14 -3 -6 -6z"/>
<path d="M10228 8383 c7 -3 16 -2 19 1 4 3 -2 6 -13 5 -11 0 -14 -3 -6 -6z"/>
<path d="M12068 7383 c7 -3 16 -2 19 1 4 3 -2 6 -13 5 -11 0 -14 -3 -6 -6z"/>
<path d="M83 6253 c9 -2 23 -2 30 0 6 3 -1 5 -18 5 -16 0 -22 -2 -12 -5z"/>
<path d="M12678 6103 c7 -3 16 -2 19 1 4 3 -2 6 -13 5 -11 0 -14 -3 -6 -6z"/>
<path d="M3149 5723 c-13 -16 -12 -17 4 -4 14 11 23 12 43 2 35 -16 44 -13 14
4 -33 19 -45 18 -61 -2z"/>
<path d="M2885 5721 c-16 -4 -44 -15 -61 -24 -28 -14 -37 -14 -85 -2 -163 44
-346 -16 -449 -147 -22 -27 -40 -53 -40 -57 0 -5 -34 -25 -76 -45 -134 -67
-251 -198 -310 -348 -17 -42 -22 -48 -49 -48 -66 0 -123 25 -310 134 -83 49
-173 81 -203 73 -11 -3 -9 -5 8 -6 40 -2 117 -43 220 -116 114 -81 191 -122
248 -131 23 -4 42 -10 42 -15 0 -15 -53 -154 -76 -200 -88 -176 -223 -270
-407 -285 -108 -9 -184 13 -387 116 -96 48 -204 97 -240 108 -82 25 -186 36
-225 23 -26 -8 -21 -9 36 -10 114 -2 198 -35 396 -158 144 -89 234 -130 323
-149 122 -26 251 -5 375 60 33 17 64 33 68 35 5 2 -1 -15 -12 -38 -21 -40 -22
-41 -79 -43 -57 -2 -57 -2 -9 -5 27 -3 47 -9 47 -16 0 -23 -117 -123 -181
-154 -90 -44 -141 -55 -239 -55 -108 0 -176 21 -385 117 -237 108 -353 137
-470 116 l-50 -9 75 -1 c136 -2 213 -30 448 -163 240 -136 377 -169 547 -133
l85 18 112 -51 c156 -71 192 -82 278 -89 85 -6 169 11 248 51 68 34 79 23 48
-47 -66 -149 -237 -257 -407 -257 -83 0 -120 8 -299 65 -174 56 -267 70 -362
55 -39 -6 -78 -15 -87 -21 -13 -9 -13 -9 4 -4 11 4 54 9 95 12 94 6 155 -9
349 -87 80 -33 178 -67 216 -76 83 -19 207 -14 275 11 63 24 83 22 217 -22
107 -34 128 -38 228 -38 99 0 116 3 167 27 67 31 149 105 184 164 35 60 51
112 78 263 39 210 85 285 213 343 73 34 160 29 303 -15 191 -59 286 -69 390
-41 l25 7 -25 -20 c-19 -17 -26 -33 -30 -79 l-5 -58 -40 -9 c-22 -4 -58 -13
-80 -19 -22 -6 -107 -11 -190 -12 -128 -1 -159 -5 -213 -24 -203 -73 -350
-244 -387 -452 -8 -47 -21 -104 -30 -127 -29 -82 -38 -182 -31 -344 l7 -155
-39 -51 c-119 -149 -255 -201 -478 -180 -54 6 -164 10 -244 11 -129 1 -152 -2
-211 -23 -36 -13 -77 -32 -90 -43 -18 -14 -12 -13 27 6 113 55 194 56 473 6
237 -42 371 -19 519 91 59 45 60 44 38 -62 -21 -97 -48 -145 -86 -153 -18 -3
-111 -3 -208 0 -196 7 -268 -3 -362 -51 -68 -35 -63 -40 7 -8 69 32 206 42
341 25 48 -6 113 -14 146 -17 l59 -7 -49 -49 c-26 -27 -77 -64 -113 -83 -120
-61 -155 -65 -566 -56 -187 4 -191 4 -269 -23 -75 -27 -160 -70 -171 -87 -3
-4 20 5 51 22 30 17 78 37 107 44 61 17 219 19 332 4 44 -6 112 -15 150 -20
106 -14 244 -12 310 5 126 33 251 112 326 207 31 39 55 58 94 74 156 64 275
207 311 373 9 42 14 130 14 244 l0 177 34 0 c19 0 59 13 90 29 31 17 56 29 56
27 0 -1 -9 -20 -20 -42 -10 -21 -25 -65 -32 -98 -9 -42 -18 -61 -33 -67 -17
-6 -17 -8 -2 -8 14 -1 17 -10 17 -54 0 -29 14 -136 31 -237 30 -180 34 -290
11 -298 -5 -1 -18 -10 -28 -18 -18 -14 -18 -15 3 -5 33 17 34 15 14 -40 -35
-92 -121 -187 -213 -235 -56 -29 -148 -45 -308 -54 -182 -9 -274 -27 -350 -65
-28 -14 -50 -27 -50 -29 0 -2 28 8 63 22 60 25 72 26 332 32 246 6 275 8 326
28 147 58 257 174 309 327 l17 50 94 6 c52 3 95 5 97 4 1 -1 10 -35 18 -76 33
-154 1 -291 -91 -397 -86 -99 -168 -133 -405 -167 -91 -13 -193 -33 -227 -43
-66 -21 -147 -68 -179 -104 -10 -11 3 -5 29 15 75 57 154 76 377 92 222 16
293 33 386 93 167 110 247 292 223 507 -4 42 -11 84 -14 94 -3 12 6 22 31 36
113 61 180 219 156 367 -9 58 -9 58 23 83 35 26 85 115 85 151 0 26 35 34 158
34 l82 0 0 -34 c0 -36 -28 -78 -63 -98 -12 -7 -49 -18 -82 -25 l-60 -13 60 6
c103 9 161 52 174 131 l6 37 80 14 c44 7 105 24 137 36 62 25 72 20 33 -19
-13 -14 -21 -25 -16 -25 14 0 51 46 51 63 0 26 19 20 30 -9 15 -39 12 -66 -12
-91 -12 -13 -17 -23 -11 -23 18 0 46 39 47 67 0 16 -3 42 -7 59 -7 29 -4 35
43 74 46 38 50 40 45 19 -3 -13 -1 -37 5 -54 10 -29 10 -29 5 7 -6 39 12 68
44 68 23 0 58 26 48 36 -4 4 -13 2 -19 -4 -18 -18 -33 -15 -18 3 16 19 7 29
-28 30 -15 0 -26 6 -25 12 1 6 -10 16 -25 21 -15 5 -57 31 -94 58 -37 27 -99
72 -139 99 -39 28 -89 65 -110 83 -21 19 -43 31 -48 28 -6 -4 -16 4 -23 18 -7
13 -33 40 -58 61 -25 20 -84 75 -131 122 l-87 85 -46 -27 c-43 -25 -52 -27
-145 -23 -55 1 -102 6 -106 9 -3 4 -2 28 2 54 11 66 41 88 103 77 54 -10 95
-2 95 18 0 12 -16 15 -78 14 l-79 0 46 23 c48 24 53 32 35 50 -6 6 -16 20 -23
31 -34 58 -83 122 -93 122 -7 0 -13 4 -13 9 0 13 -72 139 -92 161 -10 11 -53
88 -95 172 -42 84 -81 160 -88 168 -7 8 -20 40 -30 70 -10 30 -19 58 -21 61
-2 4 -21 1 -41 -7 -52 -18 -158 -17 -223 2 -57 17 -304 137 -314 152 -3 5 5
19 19 32 l24 22 89 -60 c101 -67 171 -97 255 -107 31 -4 54 -11 52 -16 -3 -4
7 -2 22 6 15 8 43 15 62 15 28 0 32 3 26 18 -6 15 -45 161 -45 168 0 2 -26 1
-58 -2 -55 -6 -63 -4 -133 34 -41 22 -90 43 -109 47 -46 10 -122 54 -114 67 4
6 26 8 51 5 32 -3 66 -20 129 -63 78 -54 90 -58 151 -62 l66 -5 -8 39 c-9 53
-11 54 -59 54 -30 0 -56 9 -89 30 -106 67 -170 86 -232 71z m-192 -163 c15
-12 15 -16 0 -45 -18 -37 -17 -37 -98 -18 -33 8 -87 15 -119 15 -69 0 -66 10
10 40 57 22 181 27 207 8z m77 -34 c0 -16 -43 -74 -51 -69 -5 3 1 21 14 40 20
32 37 45 37 29z m-247 -395 c20 -5 37 -13 37 -16 0 -3 -9 -20 -20 -38 -11 -18
-29 -57 -39 -86 -12 -34 -37 -73 -67 -105 -38 -40 -82 -109 -110 -172 -1 -2
-29 6 -63 18 -33 11 -68 20 -78 20 -10 0 12 -11 49 -23 37 -13 71 -26 74 -30
4 -3 3 -22 0 -42 -6 -29 -14 -39 -40 -50 -57 -24 -128 -28 -192 -12 -69 18
-174 65 -174 77 0 19 63 167 93 220 90 159 240 249 412 250 44 0 97 -5 118
-11z m267 -424 c0 -3 -11 -22 -25 -43 -35 -54 -52 -109 -75 -243 -11 -66 -29
-142 -41 -168 -50 -118 -201 -200 -324 -177 -29 6 -35 11 -30 24 4 9 22 74 40
144 27 104 40 135 69 171 20 24 52 79 71 121 27 58 43 79 63 87 15 6 59 26 97
44 39 19 79 36 90 38 30 7 65 8 65 2z m217 -56 c47 -21 48 -21 23 -32 -92 -40
-120 -57 -178 -111 -61 -57 -65 -59 -58 -31 16 64 50 126 87 160 45 41 60 42
126 14z m-1021 -59 c88 -44 90 -45 190 -45 l100 0 -23 -73 c-13 -40 -23 -81
-23 -91 0 -30 -72 -54 -160 -54 -62 1 -93 7 -175 38 -55 20 -104 40 -108 45
-5 4 7 36 26 71 19 35 43 86 52 112 10 26 21 46 25 45 3 -2 46 -23 96 -48z
m-135 -244 c127 -60 207 -80 287 -72 l64 7 -21 -29 c-26 -38 -98 -102 -114
-103 -6 0 -39 -1 -72 -1 -55 -1 -56 -1 -12 -5 26 -2 47 -8 47 -13 0 -22 -97
-45 -185 -44 -88 1 -159 20 -319 83 l-29 12 52 27 c66 36 138 93 176 142 17
22 31 39 31 40 1 0 44 -20 95 -44z m854 -223 c-19 -220 -79 -325 -223 -391
-76 -34 -184 -32 -340 6 l-114 28 51 32 c64 42 129 114 169 190 l32 60 38 -10
c62 -17 171 -5 236 27 52 25 146 107 146 127 0 4 3 8 6 8 3 0 3 -35 -1 -77z
m1580 -179 c-37 -31 -87 -64 -99 -64 -11 0 107 88 119 89 6 0 -3 -11 -20 -25z
m-739 -125 l76 -12 -68 -33 c-37 -19 -89 -52 -114 -73 l-46 -39 13 62 c7 33
13 71 13 84 0 26 13 27 126 11z m-196 -57 c0 -109 -72 -206 -173 -233 -21 -6
-40 -9 -42 -7 -9 10 31 121 60 165 32 48 125 133 146 133 5 0 9 -26 9 -58z
m-325 -83 c-9 -24 -19 -69 -23 -99 l-7 -55 -45 4 c-25 1 -47 5 -50 8 -9 8 44
96 88 145 25 27 46 47 48 45 2 -2 -3 -24 -11 -48z m794 -90 c-17 -22 -34 -39
-39 -39 -4 0 -32 -21 -61 -47 -33 -30 -50 -40 -45 -28 14 34 26 89 26 121 l0
31 75 0 75 1 -31 -39z m-194 -106 c-28 -72 -118 -133 -199 -133 -31 0 -32 11
-7 65 27 60 105 140 164 170 l52 26 3 -42 c2 -24 -4 -62 -13 -86z m-628 7 c1
-8 7 -91 13 -185 14 -193 6 -263 -38 -353 -27 -55 -102 -140 -142 -162 -21
-11 -22 -11 -16 6 23 59 39 169 47 319 5 94 13 217 18 275 6 58 10 109 10 113
1 4 25 7 53 5 38 -2 53 -7 55 -18z m948 -116 c-14 -49 -54 -100 -66 -87 -4 5
-9 30 -10 57 -3 49 -3 50 36 67 22 10 43 16 47 13 4 -2 1 -25 -7 -50z m-353
-26 c-65 -106 -82 -270 -44 -428 11 -47 23 -92 27 -101 7 -19 -8 -24 -109 -35
l-69 -7 7 54 c4 30 0 118 -9 199 -16 153 -19 240 -9 278 6 19 13 22 63 22 56
0 131 26 146 50 4 6 9 9 12 6 3 -3 -4 -20 -15 -38z m203 -75 c6 -30 5 -31 -35
-38 -23 -4 -43 -5 -46 -3 -2 3 10 24 27 48 33 45 43 44 54 -7z m22 -90 c16
-74 9 -175 -15 -220 -27 -52 -80 -113 -97 -113 -34 0 -46 278 -15 343 12 24
18 27 66 27 l53 0 8 -37z"/>
<path d="M278 4433 c7 -3 16 -2 19 1 4 3 -2 6 -13 5 -11 0 -14 -3 -6 -6z"/>
<path d="M4795 3630 c-3 -6 1 -7 9 -4 18 7 21 14 7 14 -6 0 -13 -4 -16 -10z"/>
<path d="M4865 3598 c-22 -11 -43 -25 -47 -32 -11 -16 -9 -68 2 -86 6 -11 9
-2 7 29 -2 47 -2 47 72 81 16 7 28 31 14 29 -4 -1 -26 -10 -48 -21z"/>
<path d="M4975 3539 c-4 -6 -5 -12 -2 -15 2 -3 7 2 10 11 7 17 1 20 -8 4z"/>
<path d="M2319 2273 c-13 -16 -12 -17 4 -4 9 7 17 15 17 17 0 8 -8 3 -21 -13z"/>
<path d="M7721 2264 c0 -11 3 -14 6 -6 3 7 2 16 -1 19 -3 4 -6 -2 -5 -13z"/>
<path d="M3594 1368 l-19 -23 23 19 c12 11 22 21 22 23 0 8 -8 2 -26 -19z"/>
<path d="M9340 1045 c0 -5 5 -17 10 -25 5 -8 10 -10 10 -5 0 6 -5 17 -10 25
-5 8 -10 11 -10 5z"/>
</g>
</svg>
